<mxfile host="Electron" agent="Mozilla/5.0 (Windows NT 10.0; Win64; x64) AppleWebKit/537.36 (KHTML, like Gecko) draw.io/24.7.8 Chrome/128.0.6613.36 Electron/32.0.1 Safari/537.36" version="24.7.8">
  <diagram name="Page-1" id="CO7M_uaUtFStSW6usdqw">
    <mxGraphModel dx="3595" dy="3270" grid="1" gridSize="10" guides="1" tooltips="1" connect="1" arrows="1" fold="1" page="1" pageScale="1" pageWidth="850" pageHeight="1100" math="0" shadow="0">
      <root>
        <mxCell id="0" />
        <mxCell id="1" parent="0" />
        <mxCell id="sJfHZRyvvE6cVOoVh98q-6" value="&lt;font style=&quot;font-size: 13px;&quot;&gt;&lt;b&gt;Availability Zone&lt;/b&gt;&lt;/font&gt;" style="fillColor=none;strokeColor=#147EBA;dashed=1;verticalAlign=top;fontStyle=0;fontColor=#147EBA;whiteSpace=wrap;html=1;movable=1;resizable=1;rotatable=1;deletable=1;editable=1;locked=0;connectable=1;rounded=1;imageAspect=0;recursiveResize=0;strokeWidth=2;" parent="1" vertex="1">
          <mxGeometry x="380" y="-320" width="410" height="400" as="geometry" />
        </mxCell>
        <mxCell id="sJfHZRyvvE6cVOoVh98q-21" value="&lt;font style=&quot;font-size: 13px;&quot;&gt;&lt;b&gt;Availability Zone&lt;/b&gt;&lt;/font&gt;" style="fillColor=none;strokeColor=#147EBA;dashed=1;verticalAlign=top;fontStyle=0;fontColor=#147EBA;whiteSpace=wrap;html=1;movable=1;resizable=1;rotatable=1;deletable=1;editable=1;locked=0;connectable=1;rounded=1;imageAspect=0;recursiveResize=0;strokeWidth=2;" parent="1" vertex="1">
          <mxGeometry x="830" y="-320" width="410" height="400" as="geometry" />
        </mxCell>
        <mxCell id="sJfHZRyvvE6cVOoVh98q-1" value="&lt;font style=&quot;font-size: 17px;&quot;&gt;&lt;b&gt;AWS Cloud&lt;/b&gt;&lt;/font&gt;" style="points=[[0,0],[0.25,0],[0.5,0],[0.75,0],[1,0],[1,0.25],[1,0.5],[1,0.75],[1,1],[0.75,1],[0.5,1],[0.25,1],[0,1],[0,0.75],[0,0.5],[0,0.25]];outlineConnect=0;gradientColor=none;html=1;whiteSpace=wrap;fontSize=15;fontStyle=0;container=1;pointerEvents=0;collapsible=0;recursiveResize=0;shape=mxgraph.aws4.group;grIcon=mxgraph.aws4.group_aws_cloud_alt;strokeColor=#232F3E;fillColor=none;verticalAlign=top;align=left;spacingLeft=30;fontColor=#232F3E;dashed=0;" parent="1" vertex="1">
          <mxGeometry x="-160" y="-770" width="1980" height="1000" as="geometry" />
        </mxCell>
        <mxCell id="sJfHZRyvvE6cVOoVh98q-74" value="&lt;font color=&quot;#7f00ff&quot;&gt;X-ENI(IPv4/IPv6)&lt;/font&gt;" style="text;strokeColor=none;align=center;fillColor=#f8f9fa;html=1;verticalAlign=middle;whiteSpace=wrap;rounded=1;fontStyle=0;fontSize=20;fontFamily=Times New Roman;" parent="sJfHZRyvvE6cVOoVh98q-1" vertex="1">
          <mxGeometry x="770" y="340" width="160" height="30" as="geometry" />
        </mxCell>
        <mxCell id="sJfHZRyvvE6cVOoVh98q-7" value="&lt;font style=&quot;font-size: 16px;&quot;&gt;&lt;b&gt;VPC (Amazon EKS)&lt;/b&gt;&lt;/font&gt;" style="points=[[0,0],[0.25,0],[0.5,0],[0.75,0],[1,0],[1,0.25],[1,0.5],[1,0.75],[1,1],[0.75,1],[0.5,1],[0.25,1],[0,1],[0,0.75],[0,0.5],[0,0.25]];outlineConnect=0;fontSize=12;fontStyle=0;container=1;pointerEvents=0;collapsible=0;recursiveResize=0;shape=mxgraph.aws4.group;grIcon=mxgraph.aws4.group_vpc2;strokeColor=#248814;fillColor=none;verticalAlign=top;align=left;spacingLeft=30;dashed=0;movable=1;resizable=1;rotatable=1;deletable=1;editable=1;locked=0;connectable=1;strokeWidth=2;whiteSpace=wrap;html=1;fontColor=default;" parent="sJfHZRyvvE6cVOoVh98q-1" vertex="1">
          <mxGeometry x="140" y="70" width="430" height="260" as="geometry" />
        </mxCell>
        <mxCell id="sJfHZRyvvE6cVOoVh98q-61" value="" style="sketch=0;points=[[0,0,0],[0.25,0,0],[0.5,0,0],[0.75,0,0],[1,0,0],[0,1,0],[0.25,1,0],[0.5,1,0],[0.75,1,0],[1,1,0],[0,0.25,0],[0,0.5,0],[0,0.75,0],[1,0.25,0],[1,0.5,0],[1,0.75,0]];outlineConnect=0;fontColor=#232F3E;fillColor=#ED7100;strokeColor=#ffffff;dashed=0;verticalLabelPosition=bottom;verticalAlign=top;align=center;html=1;fontSize=12;fontStyle=0;aspect=fixed;shape=mxgraph.aws4.resourceIcon;resIcon=mxgraph.aws4.eks;" parent="sJfHZRyvvE6cVOoVh98q-7" vertex="1">
          <mxGeometry x="147" y="55.5" width="155" height="155" as="geometry" />
        </mxCell>
        <mxCell id="sJfHZRyvvE6cVOoVh98q-63" value="" style="sketch=0;outlineConnect=0;fontColor=#232F3E;gradientColor=none;fillColor=#8C4FFF;strokeColor=none;dashed=0;verticalLabelPosition=bottom;verticalAlign=top;align=center;html=1;fontSize=12;fontStyle=0;aspect=fixed;pointerEvents=1;shape=mxgraph.aws4.network_load_balancer;" parent="sJfHZRyvvE6cVOoVh98q-7" vertex="1">
          <mxGeometry x="-60" y="78" width="110" height="110" as="geometry" />
        </mxCell>
        <mxCell id="sJfHZRyvvE6cVOoVh98q-67" value="" style="edgeStyle=orthogonalEdgeStyle;html=1;endArrow=block;elbow=vertical;startArrow=block;startFill=1;endFill=1;strokeColor=#ff0000;rounded=0;strokeWidth=5;movable=0;resizable=0;rotatable=0;deletable=0;editable=0;locked=1;connectable=0;" parent="sJfHZRyvvE6cVOoVh98q-7" source="sJfHZRyvvE6cVOoVh98q-63" edge="1">
          <mxGeometry width="100" relative="1" as="geometry">
            <mxPoint x="70" y="620" as="sourcePoint" />
            <mxPoint x="380" y="480" as="targetPoint" />
            <Array as="points">
              <mxPoint x="30" y="480" />
            </Array>
          </mxGeometry>
        </mxCell>
        <mxCell id="sJfHZRyvvE6cVOoVh98q-69" value="EKS Control Plane" style="text;strokeColor=none;align=center;fillColor=none;html=1;verticalAlign=middle;whiteSpace=wrap;rounded=0;fontStyle=0;fontSize=20;fontFamily=Times New Roman;" parent="sJfHZRyvvE6cVOoVh98q-7" vertex="1">
          <mxGeometry x="120" y="220" width="190" height="30" as="geometry" />
        </mxCell>
        <mxCell id="sJfHZRyvvE6cVOoVh98q-75" value="IPv4" style="text;strokeColor=none;align=center;fillColor=default;html=1;verticalAlign=middle;whiteSpace=wrap;rounded=1;fontStyle=0;fontSize=20;fontFamily=Times New Roman;" parent="sJfHZRyvvE6cVOoVh98q-7" vertex="1">
          <mxGeometry x="60" y="463" width="60" height="30" as="geometry" />
        </mxCell>
        <mxCell id="sJfHZRyvvE6cVOoVh98q-93" value="IPv4/IPv6" style="text;strokeColor=none;align=center;fillColor=default;html=1;verticalAlign=middle;whiteSpace=wrap;rounded=1;fontStyle=0;fontSize=20;fontFamily=Times New Roman;" parent="sJfHZRyvvE6cVOoVh98q-1" vertex="1">
          <mxGeometry x="150" y="715" width="100" height="30" as="geometry" />
        </mxCell>
        <mxCell id="sJfHZRyvvE6cVOoVh98q-71" value="NLB" style="text;strokeColor=none;align=center;fillColor=none;html=1;verticalAlign=middle;whiteSpace=wrap;rounded=0;fontStyle=0;fontSize=20;fontFamily=Times New Roman;" parent="sJfHZRyvvE6cVOoVh98q-1" vertex="1">
          <mxGeometry x="50" y="250" width="100" height="30" as="geometry" />
        </mxCell>
        <mxCell id="sJfHZRyvvE6cVOoVh98q-9" value="Private subnet" style="points=[[0,0],[0.25,0],[0.5,0],[0.75,0],[1,0],[1,0.25],[1,0.5],[1,0.75],[1,1],[0.75,1],[0.5,1],[0.25,1],[0,1],[0,0.75],[0,0.5],[0,0.25]];outlineConnect=0;gradientColor=none;html=1;whiteSpace=wrap;fontSize=12;fontStyle=0;container=1;pointerEvents=0;collapsible=0;recursiveResize=0;shape=mxgraph.aws4.group;grIcon=mxgraph.aws4.group_security_group;grStroke=0;strokeColor=#147eba;fillColor=#E6F6F7;verticalAlign=top;align=left;spacingLeft=30;fontColor=#147EBA;dashed=0;" parent="1" vertex="1">
          <mxGeometry x="1050" y="-200" width="130" height="220" as="geometry" />
        </mxCell>
        <mxCell id="sJfHZRyvvE6cVOoVh98q-11" value="" style="sketch=0;points=[[0,0,0],[0.25,0,0],[0.5,0,0],[0.75,0,0],[1,0,0],[0,1,0],[0.25,1,0],[0.5,1,0],[0.75,1,0],[1,1,0],[0,0.25,0],[0,0.5,0],[0,0.75,0],[1,0.25,0],[1,0.5,0],[1,0.75,0]];outlineConnect=0;fontColor=#232F3E;fillColor=#ED7100;strokeColor=#ffffff;dashed=0;verticalLabelPosition=bottom;verticalAlign=top;align=center;html=1;fontSize=12;fontStyle=0;aspect=fixed;shape=mxgraph.aws4.resourceIcon;resIcon=mxgraph.aws4.compute;" parent="sJfHZRyvvE6cVOoVh98q-9" vertex="1">
          <mxGeometry x="26" y="70" width="78" height="78" as="geometry" />
        </mxCell>
        <mxCell id="sJfHZRyvvE6cVOoVh98q-22" value="Node" style="text;strokeColor=none;align=center;fillColor=none;html=1;verticalAlign=middle;whiteSpace=wrap;rounded=0;fontStyle=0;fontSize=20;fontFamily=Times New Roman;" parent="sJfHZRyvvE6cVOoVh98q-9" vertex="1">
          <mxGeometry x="35" y="170" width="60" height="30" as="geometry" />
        </mxCell>
        <mxCell id="sJfHZRyvvE6cVOoVh98q-14" value="Public subnet" style="points=[[0,0],[0.25,0],[0.5,0],[0.75,0],[1,0],[1,0.25],[1,0.5],[1,0.75],[1,1],[0.75,1],[0.5,1],[0.25,1],[0,1],[0,0.75],[0,0.5],[0,0.25]];outlineConnect=0;gradientColor=none;html=1;whiteSpace=wrap;fontSize=12;fontStyle=0;container=1;pointerEvents=0;collapsible=0;recursiveResize=0;shape=mxgraph.aws4.group;grIcon=mxgraph.aws4.group_security_group;grStroke=0;strokeColor=#248814;fillColor=#F2F6E8;verticalAlign=top;align=left;spacingLeft=30;fontColor=#248814;dashed=0;movable=1;resizable=1;rotatable=1;deletable=1;editable=1;locked=0;connectable=1;" parent="1" vertex="1">
          <mxGeometry x="610" y="-220" width="140" height="240" as="geometry" />
        </mxCell>
        <mxCell id="sJfHZRyvvE6cVOoVh98q-15" value="" style="sketch=0;points=[[0,0,0],[0.25,0,0],[0.5,0,0],[0.75,0,0],[1,0,0],[0,1,0],[0.25,1,0],[0.5,1,0],[0.75,1,0],[1,1,0],[0,0.25,0],[0,0.5,0],[0,0.75,0],[1,0.25,0],[1,0.5,0],[1,0.75,0]];outlineConnect=0;fontColor=#232F3E;fillColor=#8C4FFF;strokeColor=#ffffff;dashed=0;verticalLabelPosition=bottom;verticalAlign=top;align=center;html=1;fontSize=12;fontStyle=0;aspect=fixed;shape=mxgraph.aws4.resourceIcon;resIcon=mxgraph.aws4.elastic_load_balancing;" parent="sJfHZRyvvE6cVOoVh98q-14" vertex="1">
          <mxGeometry x="40" y="50" width="60" height="60" as="geometry" />
        </mxCell>
        <mxCell id="sJfHZRyvvE6cVOoVh98q-16" value="" style="sketch=0;outlineConnect=0;fontColor=#232F3E;gradientColor=none;fillColor=#8C4FFF;strokeColor=none;dashed=0;verticalLabelPosition=bottom;verticalAlign=top;align=center;html=1;fontSize=12;fontStyle=0;aspect=fixed;pointerEvents=1;shape=mxgraph.aws4.application_load_balancer;rotation=-90;" parent="sJfHZRyvvE6cVOoVh98q-14" vertex="1">
          <mxGeometry x="36" y="130" width="68" height="68" as="geometry" />
        </mxCell>
        <mxCell id="sJfHZRyvvE6cVOoVh98q-17" value="Public subnet" style="points=[[0,0],[0.25,0],[0.5,0],[0.75,0],[1,0],[1,0.25],[1,0.5],[1,0.75],[1,1],[0.75,1],[0.5,1],[0.25,1],[0,1],[0,0.75],[0,0.5],[0,0.25]];outlineConnect=0;gradientColor=none;html=1;whiteSpace=wrap;fontSize=12;fontStyle=0;container=1;pointerEvents=0;collapsible=0;recursiveResize=0;shape=mxgraph.aws4.group;grIcon=mxgraph.aws4.group_security_group;grStroke=0;strokeColor=#248814;fillColor=#F2F6E8;verticalAlign=top;align=left;spacingLeft=30;fontColor=#248814;dashed=0;movable=1;resizable=1;rotatable=1;deletable=1;editable=1;locked=0;connectable=1;labelBackgroundColor=none;" parent="1" vertex="1">
          <mxGeometry x="430" y="-220" width="140" height="240" as="geometry" />
        </mxCell>
        <mxCell id="sJfHZRyvvE6cVOoVh98q-18" value="" style="sketch=0;points=[[0,0,0],[0.25,0,0],[0.5,0,0],[0.75,0,0],[1,0,0],[0,1,0],[0.25,1,0],[0.5,1,0],[0.75,1,0],[1,1,0],[0,0.25,0],[0,0.5,0],[0,0.75,0],[1,0.25,0],[1,0.5,0],[1,0.75,0]];outlineConnect=0;fontColor=#232F3E;fillColor=#8C4FFF;strokeColor=#ffffff;dashed=0;verticalLabelPosition=bottom;verticalAlign=top;align=center;html=1;fontSize=12;fontStyle=0;aspect=fixed;shape=mxgraph.aws4.resourceIcon;resIcon=mxgraph.aws4.elastic_load_balancing;" parent="sJfHZRyvvE6cVOoVh98q-17" vertex="1">
          <mxGeometry x="40" y="50" width="60" height="60" as="geometry" />
        </mxCell>
        <mxCell id="sJfHZRyvvE6cVOoVh98q-19" value="" style="sketch=0;outlineConnect=0;fontColor=#232F3E;gradientColor=none;fillColor=#8C4FFF;strokeColor=none;dashed=0;verticalLabelPosition=bottom;verticalAlign=top;align=center;html=1;fontSize=12;fontStyle=0;aspect=fixed;pointerEvents=1;shape=mxgraph.aws4.application_load_balancer;rotation=-90;" parent="sJfHZRyvvE6cVOoVh98q-17" vertex="1">
          <mxGeometry x="36" y="130" width="68" height="68" as="geometry" />
        </mxCell>
        <mxCell id="sJfHZRyvvE6cVOoVh98q-23" value="Private subnet" style="points=[[0,0],[0.25,0],[0.5,0],[0.75,0],[1,0],[1,0.25],[1,0.5],[1,0.75],[1,1],[0.75,1],[0.5,1],[0.25,1],[0,1],[0,0.75],[0,0.5],[0,0.25]];outlineConnect=0;gradientColor=none;html=1;whiteSpace=wrap;fontSize=12;fontStyle=0;container=1;pointerEvents=0;collapsible=0;recursiveResize=0;shape=mxgraph.aws4.group;grIcon=mxgraph.aws4.group_security_group;grStroke=0;strokeColor=#147eba;fillColor=#E6F6F7;verticalAlign=top;align=left;spacingLeft=30;fontColor=#147EBA;dashed=0;" parent="1" vertex="1">
          <mxGeometry x="880" y="-200" width="130" height="220" as="geometry" />
        </mxCell>
        <mxCell id="sJfHZRyvvE6cVOoVh98q-24" value="" style="sketch=0;points=[[0,0,0],[0.25,0,0],[0.5,0,0],[0.75,0,0],[1,0,0],[0,1,0],[0.25,1,0],[0.5,1,0],[0.75,1,0],[1,1,0],[0,0.25,0],[0,0.5,0],[0,0.75,0],[1,0.25,0],[1,0.5,0],[1,0.75,0]];outlineConnect=0;fontColor=#232F3E;fillColor=#ED7100;strokeColor=#ffffff;dashed=0;verticalLabelPosition=bottom;verticalAlign=top;align=center;html=1;fontSize=12;fontStyle=0;aspect=fixed;shape=mxgraph.aws4.resourceIcon;resIcon=mxgraph.aws4.compute;" parent="sJfHZRyvvE6cVOoVh98q-23" vertex="1">
          <mxGeometry x="26" y="70" width="78" height="78" as="geometry" />
        </mxCell>
        <mxCell id="sJfHZRyvvE6cVOoVh98q-25" value="Node" style="text;strokeColor=none;align=center;fillColor=none;html=1;verticalAlign=middle;whiteSpace=wrap;rounded=0;fontStyle=0;fontSize=20;fontFamily=Times New Roman;" parent="sJfHZRyvvE6cVOoVh98q-23" vertex="1">
          <mxGeometry x="35" y="170" width="60" height="30" as="geometry" />
        </mxCell>
        <mxCell id="sJfHZRyvvE6cVOoVh98q-26" value="Auto Scaling group" style="points=[[0,0],[0.25,0],[0.5,0],[0.75,0],[1,0],[1,0.25],[1,0.5],[1,0.75],[1,1],[0.75,1],[0.5,1],[0.25,1],[0,1],[0,0.75],[0,0.5],[0,0.25]];outlineConnect=0;gradientColor=none;html=1;whiteSpace=wrap;fontSize=12;fontStyle=0;container=1;pointerEvents=0;collapsible=0;recursiveResize=0;shape=mxgraph.aws4.groupCenter;grIcon=mxgraph.aws4.group_auto_scaling_group;grStroke=1;strokeColor=#D86613;fillColor=none;verticalAlign=top;align=center;fontColor=#D86613;dashed=1;spacingTop=25;strokeWidth=2;" parent="1" vertex="1">
          <mxGeometry x="850" y="-260" width="370" height="290" as="geometry" />
        </mxCell>
        <mxCell id="sJfHZRyvvE6cVOoVh98q-27" value="&lt;font style=&quot;font-size: 13px;&quot;&gt;&lt;b&gt;Availability Zone&lt;/b&gt;&lt;/font&gt;" style="fillColor=none;strokeColor=#147EBA;dashed=1;verticalAlign=top;fontStyle=0;fontColor=#147EBA;whiteSpace=wrap;html=1;movable=1;resizable=1;rotatable=1;deletable=1;editable=1;locked=0;connectable=1;rounded=1;imageAspect=0;recursiveResize=0;strokeWidth=2;" parent="1" vertex="1">
          <mxGeometry x="1275" y="-320" width="410" height="400" as="geometry" />
        </mxCell>
        <mxCell id="sJfHZRyvvE6cVOoVh98q-28" value="Private subnet" style="points=[[0,0],[0.25,0],[0.5,0],[0.75,0],[1,0],[1,0.25],[1,0.5],[1,0.75],[1,1],[0.75,1],[0.5,1],[0.25,1],[0,1],[0,0.75],[0,0.5],[0,0.25]];outlineConnect=0;gradientColor=none;html=1;whiteSpace=wrap;fontSize=12;fontStyle=0;container=1;pointerEvents=0;collapsible=0;recursiveResize=0;shape=mxgraph.aws4.group;grIcon=mxgraph.aws4.group_security_group;grStroke=0;strokeColor=#147eba;fillColor=#E6F6F7;verticalAlign=top;align=left;spacingLeft=30;fontColor=#147EBA;dashed=0;" parent="1" vertex="1">
          <mxGeometry x="1495" y="-220" width="130" height="251" as="geometry" />
        </mxCell>
        <mxCell id="sJfHZRyvvE6cVOoVh98q-29" value="" style="sketch=0;points=[[0,0,0],[0.25,0,0],[0.5,0,0],[0.75,0,0],[1,0,0],[0,1,0],[0.25,1,0],[0.5,1,0],[0.75,1,0],[1,1,0],[0,0.25,0],[0,0.5,0],[0,0.75,0],[1,0.25,0],[1,0.5,0],[1,0.75,0]];outlineConnect=0;fontColor=#232F3E;fillColor=#ED7100;strokeColor=#ffffff;dashed=0;verticalLabelPosition=bottom;verticalAlign=top;align=center;html=1;fontSize=12;fontStyle=0;aspect=fixed;shape=mxgraph.aws4.resourceIcon;resIcon=mxgraph.aws4.compute;" parent="sJfHZRyvvE6cVOoVh98q-28" vertex="1">
          <mxGeometry x="26" y="70" width="78" height="78" as="geometry" />
        </mxCell>
        <mxCell id="sJfHZRyvvE6cVOoVh98q-30" value="Node" style="text;strokeColor=none;align=center;fillColor=none;html=1;verticalAlign=middle;whiteSpace=wrap;rounded=0;fontStyle=0;fontSize=20;fontFamily=Times New Roman;" parent="sJfHZRyvvE6cVOoVh98q-28" vertex="1">
          <mxGeometry x="35" y="170" width="60" height="30" as="geometry" />
        </mxCell>
        <mxCell id="sJfHZRyvvE6cVOoVh98q-31" value="Private subnet" style="points=[[0,0],[0.25,0],[0.5,0],[0.75,0],[1,0],[1,0.25],[1,0.5],[1,0.75],[1,1],[0.75,1],[0.5,1],[0.25,1],[0,1],[0,0.75],[0,0.5],[0,0.25]];outlineConnect=0;gradientColor=none;html=1;whiteSpace=wrap;fontSize=12;fontStyle=0;container=1;pointerEvents=0;collapsible=0;recursiveResize=0;shape=mxgraph.aws4.group;grIcon=mxgraph.aws4.group_security_group;grStroke=0;strokeColor=#147eba;fillColor=#E6F6F7;verticalAlign=top;align=left;spacingLeft=30;fontColor=#147EBA;dashed=0;" parent="1" vertex="1">
          <mxGeometry x="1325" y="-220" width="130" height="251" as="geometry" />
        </mxCell>
        <mxCell id="sJfHZRyvvE6cVOoVh98q-32" value="" style="sketch=0;points=[[0,0,0],[0.25,0,0],[0.5,0,0],[0.75,0,0],[1,0,0],[0,1,0],[0.25,1,0],[0.5,1,0],[0.75,1,0],[1,1,0],[0,0.25,0],[0,0.5,0],[0,0.75,0],[1,0.25,0],[1,0.5,0],[1,0.75,0]];outlineConnect=0;fontColor=#232F3E;fillColor=#ED7100;strokeColor=#ffffff;dashed=0;verticalLabelPosition=bottom;verticalAlign=top;align=center;html=1;fontSize=12;fontStyle=0;aspect=fixed;shape=mxgraph.aws4.resourceIcon;resIcon=mxgraph.aws4.compute;" parent="sJfHZRyvvE6cVOoVh98q-31" vertex="1">
          <mxGeometry x="26" y="70" width="78" height="78" as="geometry" />
        </mxCell>
        <mxCell id="sJfHZRyvvE6cVOoVh98q-33" value="Node" style="text;strokeColor=none;align=center;fillColor=none;html=1;verticalAlign=middle;whiteSpace=wrap;rounded=0;fontStyle=0;fontSize=20;fontFamily=Times New Roman;" parent="sJfHZRyvvE6cVOoVh98q-31" vertex="1">
          <mxGeometry x="35" y="170" width="60" height="30" as="geometry" />
        </mxCell>
        <mxCell id="sJfHZRyvvE6cVOoVh98q-50" value="VPC (Customer)" style="points=[[0,0],[0.25,0],[0.5,0],[0.75,0],[1,0],[1,0.25],[1,0.5],[1,0.75],[1,1],[0.75,1],[0.5,1],[0.25,1],[0,1],[0,0.75],[0,0.5],[0,0.25]];outlineConnect=0;html=1;whiteSpace=wrap;fontSize=17;fontStyle=1;container=1;pointerEvents=0;collapsible=0;recursiveResize=0;shape=mxgraph.aws4.group;grIcon=mxgraph.aws4.group_vpc2;strokeColor=#248814;fillColor=none;verticalAlign=top;align=left;spacingLeft=30;dashed=0;movable=1;resizable=1;rotatable=1;deletable=1;editable=1;locked=0;connectable=1;strokeWidth=2;fontColor=default;" parent="1" vertex="1">
          <mxGeometry x="330" y="-400" width="1430" height="540" as="geometry" />
        </mxCell>
        <mxCell id="sJfHZRyvvE6cVOoVh98q-51" value="" style="group;fillColor=none;" parent="sJfHZRyvvE6cVOoVh98q-50" vertex="1" connectable="0">
          <mxGeometry x="590" y="350" width="230" height="220" as="geometry" />
        </mxCell>
        <mxCell id="sJfHZRyvvE6cVOoVh98q-52" value="" style="rhombus;whiteSpace=wrap;html=1;labelBackgroundColor=none;fontColor=#333333;fillColor=#f5f5f5;strokeColor=none;" parent="sJfHZRyvvE6cVOoVh98q-51" vertex="1">
          <mxGeometry width="230" height="220" as="geometry" />
        </mxCell>
        <mxCell id="sJfHZRyvvE6cVOoVh98q-53" value="" style="shape=image;verticalLabelPosition=bottom;labelBackgroundColor=default;verticalAlign=top;aspect=fixed;imageAspect=0;image=data:image/png,iVBORw0KGgoAAAANSUhEUgAAAQAAAAD5CAYAAADImOsDAAAABmJLR0QA/wD/AP+gvaeTAAAgAElEQVR4nO2dd3Qc1fXHv3e2Slr15t5l2cYdN1whmJLQe++hBAIhNJsOAQIJJNQASYCY8sM2AZIQWrCNG+5FtmVbttwtF/W+2j7v98dKVvG80Y60s/V9zuEcrPdm5kq798599917H0EQFzDGcgGcD2A6gLEAegLIBVAPwAHgIICdAJYC+IGIysIjqUAgCBqMsTMZY18xxnwscDyMsS8YY2eGW36BQKARxhgxxi5gjK3RoPQ8ChhjNzLGDOH+vQQCgQqMMalZ8TcFQfE7sr3ZEBjD/XsKBII2MMbMzcq5WwfF78gBxthvGGMJ4f69BYK4hjGW1KyMJSFQ/I6UMcaeYYylhvvvIOg6FG4BBNphjKUD+DWA3wDI1HYtGuodbH9FrdfucsMHAFYLGXJSpVRbgtSfCDaN4lQCeAPAW0RUo/FaQZgRBiCKYP6tvAcA/ApAcqDX+WRWvnKHq+iTJY05W/e7h8lM+XM3SPBOyLPsvmG2rXJyvnmURJShQbwGAG8DeFVsIUYPwgBEAYyx/gAeBnArgIDX3i4P2//eD43HP1pkn+T1ySYtz7QYyXXbOckbbjzL1tdkQH8NlzoAfADgZSI6pOWZgtAjDEAEwxgbDOA+AHcCsAR6ndPNit9f1Fgx74eGKbKMbm3fSQT5/MmJmx66LNWWZKXhGi71AFgA4EUiKuqODAL9EAYgAmGMjQbwEIBrgcAVuKFJLvzzv+qd/13XNIFx3PzuMHtcwuYnrk0zJ1tppIbLZADfAniOiNYHWyZB9xAGIIJgjE0HMAfAedDw2TQ0yYW/m1/n/XGLY5xuwrVh6nBr4ePXpjp7pBkmarx0FYBniGixHnIJtCMMQATQRvHP13CZXFrr2/T0RzVJG/e4R+gkmiqjB5h3P3FtWuXgnsYp0OCpwG8I/gDgayJi+kgnCARhAMIEY0yC/03/BIBJGi717DvuXf/Eh9U9i496B+kjnTaG9TEffvr6tGNDexsnANCSKbgNwJ8A/B8R+fSRTqCGMAAhhjFmAnANgLkAtATVXPuOezfO+aC6z4FSr5aofMjom2U88sS1qfsn5FkmQsNuBYB9AP4I4B9E5NFHOoESwgCECMaYGcDV8L/x8wK/DvZNe12bnvqoNr+s1perm4BBJDNFqnz48tQds8cmjCNCioZLDwF4FcDfiMihk3iCNggDoDOMMRuA2+Dfx+8d8HVA9eICR+GLC+tG19nldN0E1JHUJKnhkStSt51zasIIArT8DuUA3gHwGhHV6iSeAMIA6AZjLBPAvc3/BZxRJzNULtni2PH8/NrxjQ4WcLZfJJNkIfs9FyRvumJGUr4kkRYvph5+Q/AyEVXpJF5cIwxAkGGM5QC4G8D9AAIulPHJOPL5ysb9r/+nYaLLE5uVdiYjuW+Ybdtwx7nJfTRmF9oBvA+/ITiik3hxiTAAQYIxNgDAbwHcDk3putj73g8NZR/+0DDZJ2uKoEctRgPJ159h23jHL2xZFhNp2clwA1gI4HkiKtZJvLhCGIBuwhg7Bf49/GugYQvM6Wa731/UWBmMdN1o5USa8eWpiUkWOkXDpS3ZhU8T0WadxIsLhAHoIoyxsfBX5nU1XXciEykwJ+hidiED8A38HsE6nUSLaYQB0EhX03WrGuXNT31Ua15b5NSSRx93tDEEE6Dt+7kKwB+I6L86iRaTCAMQIIyx2QCeBTBVw2Vyaa1v05Pzamyb97m1JP3EPSMHmIufujatogtpxpsBvATgc5Fm3DnCAKjQJl33KQATNFzq2Xfcu/7xD2t67jnqiYh03Wilf66h5LGr0g5MyLNMhoaSaACFAF4B8CkRefWRLvoRBkCBNum6jwIYpuFS146DnvVz59UMPlbl7aWPdPFJn0zDsSevS9s7Ic8yAUCihkv3w9+y7K9E5NRHuuhFGIA2MMYsAG6CP123b+DXoXHTXtfmpz6syy+r80ZFum60kpEsVT1yRer22WMTxhIFnmcBoBTAawDeJKImncSLOoQBAMAYS4a/3dYc+I/MCgiZseolW5yFLy6oH1PX5EvTTUDBSSRZqPGeC5I3XzHTNkwi5Gi4tBLAXwC8LpqYxrkBYIxlwd9d9z5oyFWXGSq+Xmff+Yd/1k90upkWd1QQZBItkv3XF9g2XTHDlidJgRtv+JuY/gPAS0R0XCfxIp64NADN3XV/C3+efsAK7JNR8vnKxgOvfdUwye1mVt0EFGimJc349nNtvc0GGqDhUheAD+HPJSjRRbgIJq4MAGNsIPw5+ncACFiBXW62971FjXGVrhuttGQXPnJ5anKChbQEcFuamL5ARLt1Ei/iiAsDwBgbBX85rtZ03V1vftVQs3BF4xQ9mmwK9IMI7ILJiRsfuCQlMTlR6kqa8bNEtFEn8SKGmP5SM8bGwb+Vdzk0Ntn887/qnV+tbdLa9FIQgXSjieliAE8R0Ro95IoEYtIAdLHJJiut9W189pO6hPW7RbpuLDJ6oHnX09el1Q/INU6ESDMGEEMGgDFG8Cv8YwCmaLhULq31bXpiXo2tQKTrxgXD+xr3PntDRtngnsbJ0NbEdAv8Lctipolp1BuANum6zwAYr+FS977j3g2P/aO6197j3oG6CCeIaPrlGEoevzrtwIQ8yyRoCAoD2AF/E9OoTzOOWgPQpsnm4wCGarjUvnGPa9MzH9flHa/xatk3FsQoWSlSxeNXpRXPGGUdR6Qpzfgg/NmFUdvENOoMAGMsCcAv4T86q0/g1/nTdZ/4qHZYRa1PS+aYIE5IT6bqOVekFc4elzCGAC2ZnWUA3oX/ZOQ6ncTThagxAG3SdecC6BHodTJD1ZItju2/X1A/tr7JpyV3XBCn2Kxkv/v8LjUxrQLwFoA3iKhaJ/GCSsQbAMZYNoB7APwGGqyyT2bHPl9p3/vGVw0TRLquoCtYjOS69RxbwS1nJ/czSNBS3dkI/xHpfyCiYzqJFxQi1gAwxvoBeBB+dz9gBfb4WMmXP9kPvP6fhskuD9NSPy4QKGI0SJ4bz0paf/u5yT3NBmjp7+AC8BmA3xHRXp3E6xYRZwAYY4Pgf9vfCQ0NIFxutue9RY3l8dxkU6AvbZqYJiVZSMuBrC1pxi8SUZFO4nWJiDEAjLHR8Af2NDXZbHSywj99Uef877qmCSJdVxAqpg63Fj5zfZo3M0XSciR7S5rx74hog06iaSLsCsMYmwZ/YE9Tk02RriuIBLrZxPRpIlqik2gBETYDwBibBH/zxjM0XCaXVvvWPf1JXfLGPSJdVxA5jBts3vPUdWn1/bKN4wBIGi79EcCccBUehdwANO/j/wn+ktxAn+89UOpZ88RHtb12lXgG6yedQNA9hvY2lTx7Q/rRob2NExB4mjED8DaAh0OdUBRSA9Bcj/8NgEBz7l07D3tWPflRzcCDZSJdVxA99M0xHn32uvSDYwaZTkXgacbbAZxHRId1FK0dITMAjLERAJYggCQexph9Q7F7/TP/Vzu8rMYXcNKPQBBp5KQZKh+7OrV4+gjrGCIkBXDJUQA/C9XZhyExAIyx3gDWoPNOu03LCp0bnp9fO6qmQQ74SG2BINJJTZJqnroubdvpo6wT0XleywEA00LRq1B3A8AYMwJYCmC62rzSau+GW1+t6ldW6xNttQUxS490Q9kHD2Qdzu28OclSALOJSNZTHi3Ryq7yMNSV3/fZCvvy854unyiUXxDrlNb4cs97qmzCl6vtK+DPC+BxBvzdqnVFVw+AMdYDQDGAZM4U70uf1W3850q7lgYeAkFMcP3PbGt+e0nKJPAT32oB5BFRpV4y6O0BPAC+8uNv3zWsFcoviFc++bHxtI+XNK5WmZIGnb0A3TwAxpgVwBEAmUrjhQc9K2/+U8UMvZ4vEEQL8+dmrxra2zSNM1wKoB8RefR4tp4ewM/AUX6fjCN3vVmp5bRdgSBm+eWrlWN8MivnDPcAoNuLUk8DcC5v4I2v6g873SxBx2cLBFGD3cVsH/yvcY/KlJ/r9Ww9DcAspR/6ZHb006WNk3V8rkAQdfz9+4bJsoxSzrCiLgUDXQwAYywFgOJpLN9vcu4R9foCQXt8MozLtzt4R5KNZUyfrlZ6eQBTwNnamL+0MeBGngJBPPHpj028ZrUmAJP0eKZeBmCq0g9lmZUWlXiG6PRMgSCqKdjvGiYzxmsmytsl6BZ6GQDFzL8jlb79Oj1PIIh6GANV1Mm83oGKL9XuEnQDwBgzgOOurN7l0mUvUyCIFdbtcvL6AUxtPgUrqOjhAYwBJ/tv8WaHOJBDIFBhcYErnTOUhsD7aASMHgaAt1axbzvgztPheQJBzLCx2JUPfztxJYIeB9DDACiuVWoa5WKfrOkkVoEg7nB5maWhSeYlBUWFAVAUcss+V1SdmSYQhIvth9xVnKHINgDNnX8Uu/4s3uKwBfNZAkGssmSri9dDcDBjLKgnWgfbA+AVLcirdrjE/r9AEADLtjXlwd8pWInTgvmsYK/JFV0Ul5vta3AwEQCMEEwGwrghZkwb4T95bdVOFwr2uuHx8b5zglBS08AyPD4cNBkwQGF4GoAvg/WsYBsAxQBg8THvcQDCAISRjGQJU4dbMWOkBVOGWWBLaHX+rv+ZDU43w9YDbqzc7sSPW50oq/GFUVrBgVLPkaG9TQMUhoIaBwiaAWg+8GO00tiybQ5R/BNiJAnI723CzFFWzBhpxbA+JpBK+xermTA534LJ+RY8dFkqjlb6sHKHEysKndi01w2v8A5CysrtTgztbVIaGs8YSySipmA8J2gdgRhjZwJYrDR28XNlh0vKff2C9SyBMqlJEiYO9SvxrFFWZKYEJ8RT3yRj/W4X1u12YeV2FyrqhHegN/l9jPs/nZPDO4p8FhGtCMZzgrkEUHRNZIZyofz6MbinETNGWjEp34IJeRYYdNjYTUmUMHtcAmaPS4DMgN1HPFi3y4WVO5zYtt8NWTgHQaf4qHcgA2oIUMoMnAogOgzAsWrfPgAiBThIJJgJE4daMGOkFdNPsSAnLbSrK4mA4X1NGN7XhJvPsqG2UcbGPX7PYMV2J+qbdG1jHzcwBiqv9e3lnB8QtDhAUAxAc5GCYpeftTud7mA8I57pnWXAzJH+tfz4IWaYDGE/1f0EabY23oEM7D7qwcrt/tjBriMeMOEddJmNe9z28yYqds6bxhiTgnFoSLA8gFEAUpUGFm1xZQXpGXGDxUQYO8iMmaOsmDXKip4Z0RFDlaRW7+COnyejukHGmiK/Z7CmyAm7U1gDLSze7EjnGIB0APkAirr7jGAZAF6tsmPrfpfY/guA3lkGTM63YOZIKybnW2A2Rc5bvqtkJEs4b1ICzpuUAJ8MbD/oxopm72B/qTfc4kU863a7hgJwAzArDE9DBBkAxTVJnZ3t9njZ2CA9I6YwSMCogWbMOMWKycMsGN5XccsnZjBIwJhBZowZZMa9F6bgaKWveVfBibW7XXB7hHfQEZeHJTQ62Q6blZT6a04D8F53n6GrAdiy31UbpPvHBG2TcU4bbkWSNfrf8l2ld5YBl2Yl4tJpiXB5GLbs9ychLd3qRKlIQjrBzoPuyknDLEpDQQkEdtsAMMZ6AYopi1iyxRnIeegxi9ZknHjFYuInIW2O8xTlH7c5LRwDkMcY60FEvFbiAdHtryNj7AoAnykN/WxuaW2dXeZ1OIlJ0mwSJuRZmqP2FqQkhuIA5tjF4WbYWOwPJP60w4Xy2vjyDrJSpIr/vdAjmzN8CRH9uzv3D8YSQDEA6PKw/XV2eXAQ7h/RSATk9zFh8jC/0o8aaIYk3vJBI8FMmNG8BQoA+0u9WFHoxPrdLmzc44IvxtMOKuvlbI+PHTYZSCmZbhqAsBsAxbXIvuPeYwBi0gAkWggT8izNX0wLslOjY5suFhjUw4hBPWxxlYR0qMxbMqSXiWcAukW3DABjLAH+JqAnsWybMybfgwlmwqXTkjBrlBVjBpl1Sb0VBEaaTcIZYxKQkWxAmk3CFz/Z4XDHXrxg5XanPKQXtzDISkTOrt67W0rKGDsdwFKlsctfKD94oNQ7oDv3j3TCnZYbr8TLm7+F4X1Nez95JJvXUGc6Ea3q6r27uwTgFQBVHij19u/mvSMeh5v5E1u2+w1wKApz4pF4L0DadcQzWKUwaBqAyDIApTW+vQDiLgV433Ev9h1vxLxFjWI3oJs0uRg27fG/4eO9BJkxUGWdb292avALg7psABhjBE4B0LpdTl5f87ihtlHG4gIHFhc4RD5AgIgmJHw2FLubfqFcFzCVMUZE1KU/Vnc8gBEAMpQGFm12ZnbjvhGNJAGyxiWnLANFJR4UlXjw128bVNtzxRPBbkPWlc8mWlhc4EjjGIAsAEMB8I4WV6U7BoDneri27IvdE4AumpKIW85KPvGm6spedHWDjK/XN+Hr9U1xVxPQrgZglwtub9ff8i05GC2e1ec/2fHv1UHplBVxrN3VaWFQZBiAhiZ5t8vLFHsDxgq9swy4elYSrp6VhDq7jA3F/oj08kInGhzarIFPBrbsc2PLPjfe/AronWnA5GH+tNipI6xItET3WsHtYSjY78b63f6/z4FuVgG23XmZOcqCrJTWnZfo/kup4/KwBLuL7Uyy0AiF4WkAPujKfYNuALYdcPPON49JUpPaN8Qo7GbJ69EqH75c1YQvVzWd6AswKd+C00dbMSA3Ok5WO1btw9oifw/B1TudaHJ1by3fYhRnjrRiynBLRDVECSVFh90VE/KCWxjUpW8UYywXnCy/JVudiV0VJtqRVEpe1xS5NBe1uDwM65qbcb75VX3EdgYKdicgSQJGx9GyKFB+LHBaOAZgKGMsm4gqtN6zq68UnsVhK7c7YzL9tyu0LXltW9SyvNCJqnrt0aqjlT7MX2bH/GX2dq7wtFMsyA1xElJNo4xNe7q+9OlISqKESfli21SNHwudgx65UrHxFsF/YtBXWu/ZVQOgWADk9rGD1Q3ywC7eM6ZpW9Ty6FX+xJbuvDHVkpBOHWKGMcjeQcdknK373d3u99fWo9FD5lijotaX45NRYpAUz9+cihAaAOUCoGPeowCEAeiEtp117/h58ok1c3ci422TkNqeD9AxUKaFlgDnut0urCh0obK+e9t0bXc8oimmEUkcLPMeHtzTqGQAuhQH0PwJMMYsAMYpjf20Q3R97Aq9Mgy4dJp/qdB2b3zJFmeX6t/r7K1JSC8ubF+uPHqgWTUJqW25bTCScdJsEqaPEF2QgsWqnS7f4J6KajuRMWYhIk1JeF0xwZMAKEYilhQ4enfhfoI2dDyiq0Uhu+p2y6w1CWneokak2ySc2pyiPHOUBUYDnYhNrNrhQlkQGm60LEdEf4Tgs2izo+eNZyo22rIAGA9gjZb7dcUAKLoaDKjee9wr3P8g07b+vW2b7a5ur9W0SVFuWXN39y3fto35GaOtyE0XVZF6savEPZgx1BEptuGfhhAYAMUAYHmtby9jmNSF+wkCpG2b7ZYEm+400uyO4rdNZ46FhKVoQWaQqup9e7JSDRMUhqcBeEXL/TQZgOYCoClKY+t2OR1a7iXoHmaVRpp6tMrqmHYrCprCx8Y9nsZzJyh6WdO1FgZp9QDyASg2KFxc4Iqr5p+RBi89eVmhE41d3KO3mgmThorWZ5HG4oKmtHMnWJWGsgAMAbAn0HtpNQC8rQb3xj3iBKBIgZeeHEguftu028nDLDAbxWs+0li3250HwAtl/Z2GUBuAhia52OVhIzXeSxACOqYnf7vBgSc/qlGc+9yN6eCUnAoiiCaXnNTkYkWJFhquMDwNwLxA76U131LRAOw47KnUeB9BmEi38T/yjGSRfhst7Dzs5uX9a0oICvgTZ4xlAVB083/c0iReG1GCWh6BOMo7elhW6OJVSA1jjCk26lFCi8mfCk7J9YodbrH/HyWo6bgwANHDjwWOQZyhlsKggNBiABRdC48PhypqfTka7iMIJypaLvQ/eiir9eX6ZHaUMxzwMqDbBuBgmbdEwz0EYUZVyYULEFUcKvMd4gwF1wA0FwCdqjS2crszRtswxiaqMYDQiSEIAquLnLw93YmMMaXegScRqAdwKgDFzIMlBY5eAd5DEAGIGEDssKjA2YMzlABOxW5HAjUAygVADHXFRz28YIRAINCRnYfcQxhDPWc4oGVAoAZAsQCost5XLDPNuQSCMCKWALGDzCBVN8i8rL+gGgDFAqCNxW57gNcLIgSRBxBbbN7nbuAMBccAMMbyACiuNRZtdogCoBhCGIDo44fNDsUuoQByGWOdNugNxAPgWRLPumJRABRtCCWPLdYWuYbCXxikRKdeQJcNgN3Fip1uFrdnAEQrYhcgtmhyyUkOF9vLGQ6KAVAMAO486BYFQFGICALGHkUl7nLOkKLutkXVADDG0gEMUxpbutWp2BhUENkwFTUXHkB0snwbtzDolM4KgzrzAKby5izf4RzQuWiCiEPVAxAWIBpZvNXBK8YjAJPVru3MACiuIXwySkqrfbwsJEEEo/qWF/oflZRW+3rIMo5xhlXjAF0yAAfLvIcDEUwgEISGwxXeLhUGcQ0AY8wEQKn1MFbtdHX/9AhBWBC7ALHJ6p1OD2doslphkJoHMB6A4jbfki0O4f5HKWIXIDZZVODk9eRIADCGd52aAVDcQmAMDTsPu8UR4FGK8ABik+2H3HmMQXNasJoBULyoql4ulmWIBvHRivAAYhJZhqHarr0wSLMHsGkvt/hAEAWodwQKlRQCPSjY6+aVBk/nXaNoABhjgwD0VBpbVMAtPhBEASIGELssKnCkcIZ6MMYUcwV4HgDPZfCu3+UcqlkyQcQgyoFjlzU7nEMB8HboFHWaZwAU3f8mF9tjdzHFw8kF0YFIBY5d7C5mc7q5hUGKOq3JA9hVwj2NRBAtiFTgmGbXEXcZZygwD4AxlgJghNLkpducvKIDgUAQASzd5uKd9zmSMXZS/E7JA5gKKG/zLdvm6t8N2QQRgNgFiG2WbnEM4AxJUGjtp2QAOAVA7NixKq9oAR7liF2A2OZola+XLOM4Z/gk3Q7YAJRU+A52Qy5BhCAyAWOfI5Xeg5whdQPAGDMCmKh05aqd3FNIBFGE8ABin1VFqoVB7WIEHT2AMQBsSlcu5hcbCKIJkQcQ8ywpcGZzhpLQoTCoowHgnQBk33HIPSQIsgnCjAgCxj7bDrjzGAPvzI52Oh6QAai2y7t9MnjbC4IoQiwBYh+fDGOtXS7mDKsaAMVsIZUiA0GUITIB44Mt+9x1nKF2hUEnDABjrD+APkpXqBQZCASCCGRRgSOZM9SrWdcBtPcAeAVAvrVFLrH+jxHUlwDCBYgVflIvDDrh6UtKP2yL0832Njpk4QHECmIXIC6wO1myy832cYZPvOw79QCKj3p5xQVxSWmND25v9GpKrCYCub0MpTWiV21bio96SzlD7Q0AYywZwCilmUu3OkT0vw1rily4+Hfl+HJVE+QoVJhoVnIlGAMWFzhw+QvlWFPkCrc4EcWybU5e675RLYVBLR7AFHAKgH7c6hQFQB0oq/HhhQW1uOmVCmza6w63OJqIJQ+g8KAbt71WiTkf1OBopXj7d2TJFgdPdw0AJgE4sbev6P7LMis7UuntrYNsMcHOwx7c8XolJudb8OBlqRjcM/KdpVjIAzhU7sXbXzdgyRZH1BmtUFJS6e0jyzguSYrt/aYBWNTiASgGAI9U+vbrJl0MsW63C9e8VI4XFtSiukEOtzhdJtKVqc4u482v6nH1ixVYXCCUPxCOVakXBhkZYyfcgY6s4RcVCDrgk4EvVzXh+40O3HCmDTfNtsFionCLdRLRqDQeH8MXPzXhnW8a0OiIXgMbDlYXOT1XZiuW90xhjBklACMBKHb6/XGrM0tP4WKRJhfDX79twCUtgcII+75GU1PQlgDfZc+V4+XP64Tyd4ElW7g6bAMwygh+z3DvtkOeQfqIFfuU1foDhQuWN+I3F6Vg2inWcIsUVWwoduG1f9djV4lwQrtDsw77oBzkn2YEx/33+HDE7WYDdJQtLth33Iv73q3G5HwLfntJCvJ6h7etYqTXArQE+BYXOMItSkzgdjOrx8dKTAbqqzA80QhgtNKFThcTJwAFkXW7Xbj2DxX4xcRE3HdRCjJTOjuZXR8iNRW4tlHGe/9rwGcr7PAJTz+ouD2wm5QzAk4xAlCyDJAZN49Y0EVkBny9vglLtjhw1awk3HZOMhItkRMoDIcH4HQzLFhuxwc/NMDujAAXJAZhAG8d1c8IIE1pxGiEaAGuEw43w7xFjfhmvQN3/DwZF5+WCClEDkEkuPmA3xj+uMWB1/5dj+PV4l2jJyYJvABUihGcAEGCmXhthQRBoqLOHyicv6wR912Ughkj9Q8URkIm4Prd/gDf7iMiwBcKzGbi7QTIRgB1AE5SdomQnW6Tqmoa5UxdpRNgf6kX9//VHyi8/5IUDNUxUBjOTMADpV68+60I8IWS3FRjGQG5nOFaCcBBziCdMTaBd964QAfW7Xbhuj9U4OmPa1FZr49bHI48gNpGGa98UYcrXywXyh9izppg5ZUEA8B+CcAW3uiVMxJFK/AQ0xIovOjZcrz5VX1IA2PBNgDO5ljHhc+WYf4ye8QlRcUDl5yWqDZcKAFYwRsd0tM0NjlB4vUWE+hIW+VZsDx4W2OhWOfLDPhmvSMsRkzQSnoyVQ/INY5XmbJEAvBfAIqF1ESwPXRZaoEu0gkCorZRxsuf1+HK30eH+9yyjHnq4xrdljGCwJh7Rdo2gLsD0ATgB4mI6gB8wbvJeZMSxmelSuV6CCgInINlXsz5oAa/equqW9FzvXYB9pd68Zt3q3H3W1UoPiqi++EmN91QOntcguIpX80sIKL6lt3nl8H5bhAh5cMHsvbxxgWhZf1uF67/YwXmfFCDY13YP2cqWt6VD7i8uebhqhfL8dMOZxfuIAg2RGAfPph9FP6TgJTwAfgz0NwRiIi2APiQd8MeGcbTHroshRsrEIQWuTnM9WUAABcOSURBVLlK7ooX/GtsLVVy6h5A4CagJZnpsucjs+oxnnni6tQV2anSqSpT3ieiHUD7pqCPANxjhXHN6baps0YmiHhABNEaKCwPPFDYzTyA1gBfGd78qh5NLuEYRhJnjU/cfPHUJF6FLwCUAJjT8o8TBoCIKgDcAH4vcdMrd6T17ZNlKAmKpIKgUWf3BwqveKHzQKHqS74TXfZ3PvIH+KrqxSs/0uifbTzy4i1pA8Hp7wnAC+B6Iqpt+UG7DHQiWgJgLu8BElHWwkdzmqxmagqGwILgcqjcHyi85c+V2HpAuVlpV4KARSUe3PlGFe5+qwp7j4kAXySSZCH7/LnZDgLSVaY9QETtlvInlaAQ0SsA5vHuYDVT/sePZIulQASz7YAbt73a3C23qr1DpyUVuKWpyY2vVGDjHtFyO1IhAvvkkextFjPlqUz7mIje7PhDXg3arwBs5N1pUK5x2mNXpy/TJqYglLRtp/XKF3Vo0BAobHIx/O27yG1rJmjPczekL++XYzxNZUoBgDuVBrjF6IyxfvAbAV5VoO+JD6sLvtvonBCwpIKwkZIo4abZNjQ4ZMxb1Kg459azbeiZYcQ739RHdXfjeOLsUxM2vXhz+ljw1/1lACYQ0RGlQdVuFIyx6QCWADArjgM1lz9X3nCw3NtPg8yCMGKQwN0tUBsTRB6De5oOLnw0O51Iuakv/I1AziKi5bx7qLahIKKf4N8eVB4H0j+dk+1MtEj2gCQWhB01BRfKHz0kWcj+8cPZXhXlB4D71JQf6MQAAAARvQ7gfd64xUxDFzyaXUgkMgUFglBABPZ/c7ILLSYMUZn2IRG929m9Am1E9WsA63mDvTMNU56+Nl3V0ggEguDw0i0Zy/tmG6eoTFkLTtCvIwEZACJyArgYwDHenAumJMw8b1LihkDuJxAIusZFpyWunz3OOlNlSimAy4kooH3bgFtREtFxAFcA4B2HKz17fVrewB7Gg4HeUyAQBM6QnsYDT16TNgx8vfUAuJKIjgZ6T029aIloNYD7+eNI+3Rujpxkleq13FcgEKiTZKHGjx7OlomQojLtHiJaqeW+mptRE9E7AP7OGzcbMOizR7OLiCBiygJBEJAI8mdPZBdZTDRYZdrbRMTVS+69uyjTPQC4lqZHhmHyCzeli/JhgSAIvHx7xooeaUa15h6rAfy2K/fukgEgIg+AKwFw1xrnnJow85KpCau7cn+BQODnkmlJ604fZZ2lMuU4gCuIiBebU6XL59EQUSmAy8HpJwhAevzq9NH5fUxqbYkFAgGHvN6m/Y9flToC/IxdJ4CLiYi7O9cZ3TqQiojWAriDPw7bvAeyJNFZWCDQRmqiofbjh7MNREhWmfZrIuLm5wRCt0+kI6KPALzNGzebaODnj+fslSRx2KhAEAgSQV74WNYekwH9Vaa9TkTcDN2An9XdGzRzPwBuJmBWqnTqS7eka9qeEAjilVfvyFiZnWpQC/qp1uhoISgGoDkoeBX8/cYUOXNswqyrZyWtCcbzBIJY5YoZSWunj1TN9DsM4NKuBv06ErRDqYmoDMBF8B84oDjloctSRw/va9wbrGcKBLHEyAHm4rlXpo6CetDvsub+nUEhqKfSExG384h/HEkfPpRjSU+WqoL5XIEg2klNkmreuz/TCn4vfwD4FRFxO3V1haAaAAAgok8AvM4bN0jou3BuziERFBQI/EgSfJ89mr3PZCC1xjqvENG8oD872Dds5iEAS3mDmSnS+FfvyBBBQYEAwF9+lflTVqpBrbXeEgCP6vFsXQwAEXnhTxLaz5sz/RTrrOvOsIlMQUFcc/Ps5FWThlnUMv0OAbi6WaeCjl4eAIioGsClAHjtwuiBS1PGjR1kLtJLBoEgkhk9wLz73ouSx6lMccAf8a/USwbVpqDBgDF2GYB/8p7lk9nRcx4vs9Y0ypl6yyKIHCYOteDs8Qkn/v3Wf+tRZ4+fAtL0ZKn6f8/3sBsk9OVMYQCuIaKFesqhmwfQAhF9AeAV3rhBot4LH805bJCgi4sjiEwG9zTi0mmJJ/5LtOj+LooYDBK8/3ws57CK8gPAS3orPxACA9DMXADf8QYzU6Rxb96d+VOIZBEIwsq792auTrdJY1WmLALwZChkCYkBICIZwHUAuElAk/Mtp9/xi2RhBAQxzS1n21aNH2JRy/Q7AL/rH5Jt8lB5ACCiGgAXAuC2C7vz58kTJuSZd4ZKJoEglIweaN716wtSxqtMaQRwIRGFLFEuZAYAAIioCMDN4B9Sa33n11mpmSmSblFPgSAcZKVIFe/fn5UKIIEzhQG4lYi2h1Cs0BoAACCifwF4kTcuSej9xeM5x03G4BQ7CAThxmiQPAsfyzkmSeipMu15IvpnyIRqJuQGoJknAXzNG0xOlEa9fU+GqBwUxATv3Z+5Ji1JGqMy5X8Ang2VPG0xhuOhRCQzxq6F/wSTEUpzxg+xzLrrvOSV737TMCO00kUGA3sY0TfLiMwUCY1OhmNVXuw87AELwgFsvTIMGNjThHSbBAMBtXYZx6t92HMsOPcf3NOI/jlGpNkkVDfIqKjzoajEE5fHjN92bvJPowaY1IJ+xfBn+oWlNiYsBgAAiKiBMXYpgHWA8gGHt5+bPHHjHveOjcWuU0Irnb6YDIS1r7V6gxv3uHDnG1UwGQhXzUrCJVMTMSD35I+mrMaHT5fZMX9Zo+aDPA0ScMnUJFw+PRF5vU2KcyrqfFi02YkPfmhATaN2bT331ATcdm4yBvU4WfbaRhmLChz4+/cNqKqPD0swKd+y/e7zktUaezTAn+lXGyqZOhL27AvG2IUA/gXOckRmKDv/6TJWVuPrEVrJ9EPJADz49xq8cVcGxgxSPIm9HTsOuXHvO9UBZ871yjDgz3dkcBW/I3Ynw+8X1OL7TY6A5ptNhBdvTsfpo62dzq1ukHHPX6owfogZD1/eavfPf7oMx6tjp0A0O81Q/u2zubIkgfe9ZfB38/0ilHJ1JOwGAAAYY88AeJo33tAkbz/n8bI8l5dZQieVfnQ0AJv2uOBwM0w/xa9AdifD0m0OlFT4YLMSxgwyY/TA9oZh9xEPbn+9Enanus/eN9uIv96Xidw0w4mfeXwMq3e6sPeYBz4ZGJhrxIyRVljNrV8HmQF/+KwOn/+kfvK70UB441cZmJzf/qPZX+rFul0u1DTK6JFuwMxRFmSl+GU4WunDf9c34a5ftPa7jCUDYDRInh9eyClKTZJGq0x7ioieC5lQHCLFABCAz+CvIFRk52HP0hterjgjdFLpR0cD4HSzE8r33UYHXlxYe5JiTxxqwQs3pSMzpdVR+veaJjz3Kd97NBsJ8x7MQn6f1jf/+t0uPPNJLcpq2ytbapKEx65KxexxrbtUPhn45WuV2HaAvyFz2znJuPv8VkV2uBleWliHr9e3bwxlNBDu+kUybjnbBgBocrF26b+xZAA+fjh75Yh+JrXY1X/gd/3DvhYK1y5AO4iIAbgVwA7enBH9TGfce0FKTJ421KL832904MmPahTf6huKXbjv3So43a1jF5+WiFOH8JcMN55pa6f8m/a48Jt3q09SfgCos8uY+4+adoprkICnr0uDxHlNZKca8MtzbCf+LcvAnPerT1J+APD6GN76bz3mLWoEgJjN/f/tpanLO1H+XQBuigTlByLEAAD+oCD85cPcV9rNZ9tOmznSujV0UoWO6gYZv19YqxqF31XiwbvfNrT72bVn2BTnmgyEK2e2dpdyeRie+rgWbi//AYwBL8yvw6Hy1rqsAblGnDZCeW1/weQEmE2tivz5T3as2ql+KvXbX9dj9xGP6pxo5bRh1sLrz0g6TWVKPfxv/og5JyNiDAAAEFEx/N2Feb6g6U93ZPTqmW48HkKxQsKC5fZO1/MAMH+ZHZX1rX+emSOtSLOd/DFOHmZpt1z4Zr0DpTWdu9huL8Pfv2tvZM6fpJy8ds6prT9nDJi3uLHT+/tk4J1vGjqdF23kphrL3vhVeg4AnksmA7i2ORs2YogoAwAARPQDVAKCEiF74ePZlWYjBRaijhJ+3BrYr+P1MXy/sXWuJAGjB5z8neu4mxDo/f1znWhytRqjjgFIwO/CD+rRurzYediNsgAMDACs2ulEdUNEeMBBwWwm5z+fzK6UJMpVmfYEEX0TMqECJOIMQDO/hz8oqEiShUZ98nD2phDKoysON8OhssDbIWzZ3z4od0r/k7f3hvdt/7NdJYG73S4Paze/R7oB6R28jCG9TJDa/KjocOD3l2Wg8GDsZHp/cH/WxiQLqeWq/AvAS6GSRwsRaQCag4K3ASjkzRncyzj9wUtTuKcRRRPHqnyQNWTgHShtbywyUwwnzWmrsHYn05zYc6CsvUJnJLf/qnQ0CEeqtEXwO/4O0cqcK1KWD+9rmq4ypQjAzc3f6YgjIg0AABBRI/zlw9zKwGvPsE2dNTphS+ik0ge7U5tyNjjaz09JPPljTE5sawC0u9sNTe2/r8kdnmFLaB/Fb+rm7xCNTBth3XblTJta0K8GwAVExC2BDzcRawAAgIgOArgGakHB29P79csxcI8kiwa05sh3TAM2KHyKbbfuupLf7+vgkhg67AUStf+3Fg/Gf3/tMkUSvTMNx167K6M31IN+1xHRvhCKpZmINgAAQESLATzGHQcy5s/JabKaiXckWcSTaNW2J56c0P5jq2s6WZvavmG13l/pGQ0dntHRq0i0aPsqJSdEbx6AxUzO+XNz6iSCWiPbOUTEbYMXKUS8AQAAIvojgPm8cauZ8j9+JLsghCIFlbZpuoHQO7P9/BqFiHrbOgGbVYItQdtH3T+nfUFPxxhCxzqEnDRt9++dGbY6tG4z74GsjUlWGq4y5VMi4jbCjSSiwgA0cxsAbuR/UK5x2qNXpkZlUDA1SUKOBiMwsn97r7NIIcLfNtmGCMjvHbjCGSRgeL/WXYSWkt627D3mbbe0yOsVWKFRC0o7F9HAk9emLxvaWzXotxXA7aGSp7tEjQEgIgeAywBwT0a9fEbS9HMnWIN6eGKomHFK4HVOZ3dIwFHK1S880N4ozBzVeaVeC9NGWNsFFpW27OqbZJRUtkbyxw0xB+xljOhnQt/s6PMAzhyTsPni0xLUlL8a/ky/qFmORo0BAAAiOgR/ujBv09nw/E0Zg/vlGA+HUKygcMWMpHb76jxOH23F4J6tyrNprwvlCrn9q4ucaGwTBzh/UmJACkoE3HpO+/TiHzhlwT9ucZ74f7ORcOnUxE7vD/gLiKKNvlnGIy/dljYA/B4aXgCXExH3OLxIJKoMAAAQ0U8AHuGOA+kL5uQ4Ei2Seh1rhJHX29SpYuSmGTD3yva9UxYsV/41m1wM/1nb+iJKs0n47SUpoE5ibzfNtmFUm8zCijoflrRR9LZ8tbapXfT/l+cmtzNOSlw4JTGgvgGRhMVE9gWPZjdIRBkq0x4iIu6BuJFK1BkAACCi1wB8wBu3mJG/4NHsQiJu9+GIwtFc4XfXL5Lxm4tT2hXYtJDfx4R37s1EdmprrGDdLheWbVNWTgB47/vGdt7Bxacl4rkb0xXzBhLMhAcvTcW9F6a0+/krn9fD41P+Mx4q9+LLVa0GKMlKePfeLEwdcfJyhgi4elYSHr86td3vHOkQgc2fm73NalYN+n1CRK+HTKggErV7MYwxK4AVALgtl/6z1r7sd/9Xd3rIhAoQpY5AVfXyieKamkYZK7c7cazahyQLYUQ/E8YNsbTb269plHHjyxU41kkN/YQ8C968OwNmY+vFDjfDmiIXDpT6+/T1zTFi2gjLSVt/X65qwgsL1LtVpSRK+OSR7JN2JnaVeLB5rxt1TTKyUyVMHWFFrwz/nNIaH/6zpgl3RkFDkN9dn77svMkJp6tMKQAwPZrW/W2JWgMAAIyxXgA2Atx2y/JTn9Rt+madXa0vW8hRMgAPv1eD9+7P6tSFBvxbcHe9WYXio4Hl30/Ot+CV2zM01eAvWG7Hn76oCyjBp0e6Ae/emxlQYK++Sca971RjZH9TxLcEO2t8wqaXbkkfC4C3RVMGYCIRRW0iWlQuAVogomPwdxHiVZZIz16Xmjewh/FQCMXqEvVNMn75WiW+3eCAl+NyMwYs3erE1S9VBKz8ALButwuXP1+Obzc4Os3A23HIg7verMLLnwem/ID/jX7dHyvw2Qo7V/aWe9/0SiW2R0EhUL9s48EXb0kfCL7yewBcFc3KD0S5B9ACY+weAG/xxt0+7J8993i23ckiIvzM6wrcQmqShJkjreiTZUBWigF2l4wjlT6sKHQGVNOvRnKChNOGWzCwhxHpNgkmA6GqwYfj1T6s2+XqdEnRGalJEs4YbUX/XCNSEiTU2mWU1vjvfbgiOgqAkixkX/T7HsctZhqiMu0eIno7ZELpREwYAABgjP0NKgkYx6u86y54tnwSY+H/nTszAILwQQT27ydz1vbJNqoV+XxERDeFTCgdieolQAfuAbCSN9gz0zj5+RszloVOHEE08uJN6cs7Uf61AO4IlTx6EzMGgIg8AK4EcJQ359wJ1lkXTUlYHTqpBNHEhVMS1591aoLaKT6l8PfyV298GEXEjAEAACIqhT8oyPuApCevTR+d38cU0SWagtAzpKfxwFPXpg0DXyc8AK4koiMhFEt3YsoAAAARrQVwJ38ctnkPZEnJCVLEdGYVhJckCzV+9HC2TIQUlWm/JiLuEjNaiTkDAABE9CGAd3njZhMNXPhodpFE3EYjgjhBIsj/fCJnp8VEg1WmvUtEfwuZUCEkJg1AM/cB4JYH56Ybprx0a0ZMHjQiCJw/3pa+IjfNMEllyhoA94dKnlAT9i0xPWGM5cKfKdiHN+Xlz+vXLljeqBb1DToSARe3qZyrqPOn/gpCy8VTE9Y9eU36JPD14DiACc0JZzFJTBsAAGCMjQOwCoDi6RaMwX7Dy+XHi0q8akkfghgjr7dp//w52dlE4CWHOQHMIqL1oZQr1MTyEgAAQEQFUA8KJv3jwWxjcqJUHUKxBGEkNdFQ+/HD2QYV5Qf8Qb+YVn4gDgwAABDRxwDe4I2bDDTgi8dzDkqSCArGOhJBnv9o5h6TAf1Vpr1JRO+HTKgwEhcGoJkHAXAbNmSmSOP/dHumCArGOK/embEiN82oVh26CsBDoZIn3MSNASAiL/wHj3IrA2eOtJx+zSybyBSMUa45w7Zm+inWWSpTDsPf0y/yyxWDRNwYAAAgogoAFwPgNW+ghy5PGTd9hHlbCMUShIBJ+ZbtD12aMgb8wLcT/p5+5SEUK+zElQEAACLaAvVijoTX7srqN/0U69ZQySTQl9NHJRS8fU9mPwBqXUtvJ6INoZIpUoj5bUAejLFX4I8L8HD+/fuGDe9+0zAjVDIJggsR2L0XpKy86SzbZABqfddfJaIHQiVXJBHPBsAA4HsAs9XmlVZ719/zdnXuwTKvWtRYEGEM7mE88JdfZ1Zmpxo6awe3BMC5zTGiuCNuDQAAMMYyAawHMKiTqe6iEu/aVz6vzd6y363WHVYQZiYNtWx/4LKU2rxepskAOjt+6CD8Pf24J1DHOnFtAACAMTYawGoASYHM9/jY4aJD7oMb9rip8KAnuaZBTqh3+AI7EUMQNAwS+dKSJEdOumQf1sfcNCHPQsP6mAZJEnoHeIsmANOaY0JxS9wbAABgjF0I4AvwT30RxBYtp/j8J9yChJu42wVQgoi+AvBL+L8YgtjGC+BWofx+hAfQBsbY+QA+BVRzxAXRSx2Aa4jou3ALEikID6ANRPQ1gDFQaS4qiFqWAhgjlL89wgB0gIgOAJgFf9pwUZjFEXSfQgCXEdHPmk+XFrRBLAFUYIwRgNMBXA3g5wD6hlUgQaAcAPAdgPnNp0kLOAgDoAHGWA8AIwBkAUgLsziCVrzwr+/LABQRkThlJUD+H1mjVjgV9mfjAAAAAElFTkSuQmCC;" parent="sJfHZRyvvE6cVOoVh98q-51" vertex="1">
          <mxGeometry x="31.700000000000045" y="100" width="84.03807858565249" height="81.74267812909802" as="geometry" />
        </mxCell>
        <mxCell id="sJfHZRyvvE6cVOoVh98q-54" value="" style="shape=image;verticalLabelPosition=bottom;labelBackgroundColor=default;verticalAlign=top;aspect=fixed;imageAspect=0;image=data:image/png,iVBORw0KGgoAAAANSUhEUgAAAQAAAAD5CAYAAADImOsDAAAABmJLR0QA/wD/AP+gvaeTAAAgAElEQVR4nO2dd3Qc1fXHv3e2Slr15t5l2cYdN1whmJLQe++hBAIhNJsOAQIJJNQASYCY8sM2AZIQWrCNG+5FtmVbttwtF/W+2j7v98dKVvG80Y60s/V9zuEcrPdm5kq798599917H0EQFzDGcgGcD2A6gLEAegLIBVAPwAHgIICdAJYC+IGIysIjqUAgCBqMsTMZY18xxnwscDyMsS8YY2eGW36BQKARxhgxxi5gjK3RoPQ8ChhjNzLGDOH+vQQCgQqMMalZ8TcFQfE7sr3ZEBjD/XsKBII2MMbMzcq5WwfF78gBxthvGGMJ4f69BYK4hjGW1KyMJSFQ/I6UMcaeYYylhvvvIOg6FG4BBNphjKUD+DWA3wDI1HYtGuodbH9FrdfucsMHAFYLGXJSpVRbgtSfCDaN4lQCeAPAW0RUo/FaQZgRBiCKYP6tvAcA/ApAcqDX+WRWvnKHq+iTJY05W/e7h8lM+XM3SPBOyLPsvmG2rXJyvnmURJShQbwGAG8DeFVsIUYPwgBEAYyx/gAeBnArgIDX3i4P2//eD43HP1pkn+T1ySYtz7QYyXXbOckbbjzL1tdkQH8NlzoAfADgZSI6pOWZgtAjDEAEwxgbDOA+AHcCsAR6ndPNit9f1Fgx74eGKbKMbm3fSQT5/MmJmx66LNWWZKXhGi71AFgA4EUiKuqODAL9EAYgAmGMjQbwEIBrgcAVuKFJLvzzv+qd/13XNIFx3PzuMHtcwuYnrk0zJ1tppIbLZADfAniOiNYHWyZB9xAGIIJgjE0HMAfAedDw2TQ0yYW/m1/n/XGLY5xuwrVh6nBr4ePXpjp7pBkmarx0FYBniGixHnIJtCMMQATQRvHP13CZXFrr2/T0RzVJG/e4R+gkmiqjB5h3P3FtWuXgnsYp0OCpwG8I/gDgayJi+kgnCARhAMIEY0yC/03/BIBJGi717DvuXf/Eh9U9i496B+kjnTaG9TEffvr6tGNDexsnANCSKbgNwJ8A/B8R+fSRTqCGMAAhhjFmAnANgLkAtATVXPuOezfO+aC6z4FSr5aofMjom2U88sS1qfsn5FkmQsNuBYB9AP4I4B9E5NFHOoESwgCECMaYGcDV8L/x8wK/DvZNe12bnvqoNr+s1perm4BBJDNFqnz48tQds8cmjCNCioZLDwF4FcDfiMihk3iCNggDoDOMMRuA2+Dfx+8d8HVA9eICR+GLC+tG19nldN0E1JHUJKnhkStSt51zasIIArT8DuUA3gHwGhHV6iSeAMIA6AZjLBPAvc3/BZxRJzNULtni2PH8/NrxjQ4WcLZfJJNkIfs9FyRvumJGUr4kkRYvph5+Q/AyEVXpJF5cIwxAkGGM5QC4G8D9AAIulPHJOPL5ysb9r/+nYaLLE5uVdiYjuW+Ybdtwx7nJfTRmF9oBvA+/ITiik3hxiTAAQYIxNgDAbwHcDk3putj73g8NZR/+0DDZJ2uKoEctRgPJ159h23jHL2xZFhNp2clwA1gI4HkiKtZJvLhCGIBuwhg7Bf49/GugYQvM6Wa731/UWBmMdN1o5USa8eWpiUkWOkXDpS3ZhU8T0WadxIsLhAHoIoyxsfBX5nU1XXciEykwJ+hidiED8A38HsE6nUSLaYQB0EhX03WrGuXNT31Ua15b5NSSRx93tDEEE6Dt+7kKwB+I6L86iRaTCAMQIIyx2QCeBTBVw2Vyaa1v05Pzamyb97m1JP3EPSMHmIufujatogtpxpsBvATgc5Fm3DnCAKjQJl33KQATNFzq2Xfcu/7xD2t67jnqiYh03Wilf66h5LGr0g5MyLNMhoaSaACFAF4B8CkRefWRLvoRBkCBNum6jwIYpuFS146DnvVz59UMPlbl7aWPdPFJn0zDsSevS9s7Ic8yAUCihkv3w9+y7K9E5NRHuuhFGIA2MMYsAG6CP123b+DXoXHTXtfmpz6syy+r80ZFum60kpEsVT1yRer22WMTxhIFnmcBoBTAawDeJKImncSLOoQBAMAYS4a/3dYc+I/MCgiZseolW5yFLy6oH1PX5EvTTUDBSSRZqPGeC5I3XzHTNkwi5Gi4tBLAXwC8LpqYxrkBYIxlwd9d9z5oyFWXGSq+Xmff+Yd/1k90upkWd1QQZBItkv3XF9g2XTHDlidJgRtv+JuY/gPAS0R0XCfxIp64NADN3XV/C3+efsAK7JNR8vnKxgOvfdUwye1mVt0EFGimJc349nNtvc0GGqDhUheAD+HPJSjRRbgIJq4MAGNsIPw5+ncACFiBXW62971FjXGVrhuttGQXPnJ5anKChbQEcFuamL5ARLt1Ei/iiAsDwBgbBX85rtZ03V1vftVQs3BF4xQ9mmwK9IMI7ILJiRsfuCQlMTlR6kqa8bNEtFEn8SKGmP5SM8bGwb+Vdzk0Ntn887/qnV+tbdLa9FIQgXSjieliAE8R0Ro95IoEYtIAdLHJJiut9W189pO6hPW7RbpuLDJ6oHnX09el1Q/INU6ESDMGEEMGgDFG8Cv8YwCmaLhULq31bXpiXo2tQKTrxgXD+xr3PntDRtngnsbJ0NbEdAv8Lctipolp1BuANum6zwAYr+FS977j3g2P/aO6197j3oG6CCeIaPrlGEoevzrtwIQ8yyRoCAoD2AF/E9OoTzOOWgPQpsnm4wCGarjUvnGPa9MzH9flHa/xatk3FsQoWSlSxeNXpRXPGGUdR6Qpzfgg/NmFUdvENOoMAGMsCcAv4T86q0/g1/nTdZ/4qHZYRa1PS+aYIE5IT6bqOVekFc4elzCGAC2ZnWUA3oX/ZOQ6ncTThagxAG3SdecC6BHodTJD1ZItju2/X1A/tr7JpyV3XBCn2Kxkv/v8LjUxrQLwFoA3iKhaJ/GCSsQbAMZYNoB7APwGGqyyT2bHPl9p3/vGVw0TRLquoCtYjOS69RxbwS1nJ/czSNBS3dkI/xHpfyCiYzqJFxQi1gAwxvoBeBB+dz9gBfb4WMmXP9kPvP6fhskuD9NSPy4QKGI0SJ4bz0paf/u5yT3NBmjp7+AC8BmA3xHRXp3E6xYRZwAYY4Pgf9vfCQ0NIFxutue9RY3l8dxkU6AvbZqYJiVZSMuBrC1pxi8SUZFO4nWJiDEAjLHR8Af2NDXZbHSywj99Uef877qmCSJdVxAqpg63Fj5zfZo3M0XSciR7S5rx74hog06iaSLsCsMYmwZ/YE9Tk02RriuIBLrZxPRpIlqik2gBETYDwBibBH/zxjM0XCaXVvvWPf1JXfLGPSJdVxA5jBts3vPUdWn1/bKN4wBIGi79EcCccBUehdwANO/j/wn+ktxAn+89UOpZ88RHtb12lXgG6yedQNA9hvY2lTx7Q/rRob2NExB4mjED8DaAh0OdUBRSA9Bcj/8NgEBz7l07D3tWPflRzcCDZSJdVxA99M0xHn32uvSDYwaZTkXgacbbAZxHRId1FK0dITMAjLERAJYggCQexph9Q7F7/TP/Vzu8rMYXcNKPQBBp5KQZKh+7OrV4+gjrGCIkBXDJUQA/C9XZhyExAIyx3gDWoPNOu03LCp0bnp9fO6qmQQ74SG2BINJJTZJqnroubdvpo6wT0XleywEA00LRq1B3A8AYMwJYCmC62rzSau+GW1+t6ldW6xNttQUxS490Q9kHD2Qdzu28OclSALOJSNZTHi3Ryq7yMNSV3/fZCvvy854unyiUXxDrlNb4cs97qmzCl6vtK+DPC+BxBvzdqnVFVw+AMdYDQDGAZM4U70uf1W3850q7lgYeAkFMcP3PbGt+e0nKJPAT32oB5BFRpV4y6O0BPAC+8uNv3zWsFcoviFc++bHxtI+XNK5WmZIGnb0A3TwAxpgVwBEAmUrjhQc9K2/+U8UMvZ4vEEQL8+dmrxra2zSNM1wKoB8RefR4tp4ewM/AUX6fjCN3vVmp5bRdgSBm+eWrlWN8MivnDPcAoNuLUk8DcC5v4I2v6g873SxBx2cLBFGD3cVsH/yvcY/KlJ/r9Ww9DcAspR/6ZHb006WNk3V8rkAQdfz9+4bJsoxSzrCiLgUDXQwAYywFgOJpLN9vcu4R9foCQXt8MozLtzt4R5KNZUyfrlZ6eQBTwNnamL+0MeBGngJBPPHpj028ZrUmAJP0eKZeBmCq0g9lmZUWlXiG6PRMgSCqKdjvGiYzxmsmytsl6BZ6GQDFzL8jlb79Oj1PIIh6GANV1Mm83oGKL9XuEnQDwBgzgOOurN7l0mUvUyCIFdbtcvL6AUxtPgUrqOjhAYwBJ/tv8WaHOJBDIFBhcYErnTOUhsD7aASMHgaAt1axbzvgztPheQJBzLCx2JUPfztxJYIeB9DDACiuVWoa5WKfrOkkVoEg7nB5maWhSeYlBUWFAVAUcss+V1SdmSYQhIvth9xVnKHINgDNnX8Uu/4s3uKwBfNZAkGssmSri9dDcDBjLKgnWgfbA+AVLcirdrjE/r9AEADLtjXlwd8pWInTgvmsYK/JFV0Ul5vta3AwEQCMEEwGwrghZkwb4T95bdVOFwr2uuHx8b5zglBS08AyPD4cNBkwQGF4GoAvg/WsYBsAxQBg8THvcQDCAISRjGQJU4dbMWOkBVOGWWBLaHX+rv+ZDU43w9YDbqzc7sSPW50oq/GFUVrBgVLPkaG9TQMUhoIaBwiaAWg+8GO00tiybQ5R/BNiJAnI723CzFFWzBhpxbA+JpBK+xermTA534LJ+RY8dFkqjlb6sHKHEysKndi01w2v8A5CysrtTgztbVIaGs8YSySipmA8J2gdgRhjZwJYrDR28XNlh0vKff2C9SyBMqlJEiYO9SvxrFFWZKYEJ8RT3yRj/W4X1u12YeV2FyrqhHegN/l9jPs/nZPDO4p8FhGtCMZzgrkEUHRNZIZyofz6MbinETNGWjEp34IJeRYYdNjYTUmUMHtcAmaPS4DMgN1HPFi3y4WVO5zYtt8NWTgHQaf4qHcgA2oIUMoMnAogOgzAsWrfPgAiBThIJJgJE4daMGOkFdNPsSAnLbSrK4mA4X1NGN7XhJvPsqG2UcbGPX7PYMV2J+qbdG1jHzcwBiqv9e3lnB8QtDhAUAxAc5GCYpeftTud7mA8I57pnWXAzJH+tfz4IWaYDGE/1f0EabY23oEM7D7qwcrt/tjBriMeMOEddJmNe9z28yYqds6bxhiTgnFoSLA8gFEAUpUGFm1xZQXpGXGDxUQYO8iMmaOsmDXKip4Z0RFDlaRW7+COnyejukHGmiK/Z7CmyAm7U1gDLSze7EjnGIB0APkAirr7jGAZAF6tsmPrfpfY/guA3lkGTM63YOZIKybnW2A2Rc5bvqtkJEs4b1ICzpuUAJ8MbD/oxopm72B/qTfc4kU863a7hgJwAzArDE9DBBkAxTVJnZ3t9njZ2CA9I6YwSMCogWbMOMWKycMsGN5XccsnZjBIwJhBZowZZMa9F6bgaKWveVfBibW7XXB7hHfQEZeHJTQ62Q6blZT6a04D8F53n6GrAdiy31UbpPvHBG2TcU4bbkWSNfrf8l2ld5YBl2Yl4tJpiXB5GLbs9ychLd3qRKlIQjrBzoPuyknDLEpDQQkEdtsAMMZ6AYopi1iyxRnIeegxi9ZknHjFYuInIW2O8xTlH7c5LRwDkMcY60FEvFbiAdHtryNj7AoAnykN/WxuaW2dXeZ1OIlJ0mwSJuRZmqP2FqQkhuIA5tjF4WbYWOwPJP60w4Xy2vjyDrJSpIr/vdAjmzN8CRH9uzv3D8YSQDEA6PKw/XV2eXAQ7h/RSATk9zFh8jC/0o8aaIYk3vJBI8FMmNG8BQoA+0u9WFHoxPrdLmzc44IvxtMOKuvlbI+PHTYZSCmZbhqAsBsAxbXIvuPeYwBi0gAkWggT8izNX0wLslOjY5suFhjUw4hBPWxxlYR0qMxbMqSXiWcAukW3DABjLAH+JqAnsWybMybfgwlmwqXTkjBrlBVjBpl1Sb0VBEaaTcIZYxKQkWxAmk3CFz/Z4XDHXrxg5XanPKQXtzDISkTOrt67W0rKGDsdwFKlsctfKD94oNQ7oDv3j3TCnZYbr8TLm7+F4X1Nez95JJvXUGc6Ea3q6r27uwTgFQBVHij19u/mvSMeh5v5E1u2+w1wKApz4pF4L0DadcQzWKUwaBqAyDIApTW+vQDiLgV433Ev9h1vxLxFjWI3oJs0uRg27fG/4eO9BJkxUGWdb292avALg7psABhjBE4B0LpdTl5f87ihtlHG4gIHFhc4RD5AgIgmJHw2FLubfqFcFzCVMUZE1KU/Vnc8gBEAMpQGFm12ZnbjvhGNJAGyxiWnLANFJR4UlXjw128bVNtzxRPBbkPWlc8mWlhc4EjjGIAsAEMB8I4WV6U7BoDneri27IvdE4AumpKIW85KPvGm6spedHWDjK/XN+Hr9U1xVxPQrgZglwtub9ff8i05GC2e1ec/2fHv1UHplBVxrN3VaWFQZBiAhiZ5t8vLFHsDxgq9swy4elYSrp6VhDq7jA3F/oj08kInGhzarIFPBrbsc2PLPjfe/AronWnA5GH+tNipI6xItET3WsHtYSjY78b63f6/z4FuVgG23XmZOcqCrJTWnZfo/kup4/KwBLuL7Uyy0AiF4WkAPujKfYNuALYdcPPON49JUpPaN8Qo7GbJ69EqH75c1YQvVzWd6AswKd+C00dbMSA3Ok5WO1btw9oifw/B1TudaHJ1by3fYhRnjrRiynBLRDVECSVFh90VE/KCWxjUpW8UYywXnCy/JVudiV0VJtqRVEpe1xS5NBe1uDwM65qbcb75VX3EdgYKdicgSQJGx9GyKFB+LHBaOAZgKGMsm4gqtN6zq68UnsVhK7c7YzL9tyu0LXltW9SyvNCJqnrt0aqjlT7MX2bH/GX2dq7wtFMsyA1xElJNo4xNe7q+9OlISqKESfli21SNHwudgx65UrHxFsF/YtBXWu/ZVQOgWADk9rGD1Q3ywC7eM6ZpW9Ty6FX+xJbuvDHVkpBOHWKGMcjeQcdknK373d3u99fWo9FD5lijotaX45NRYpAUz9+cihAaAOUCoGPeowCEAeiEtp117/h58ok1c3ci422TkNqeD9AxUKaFlgDnut0urCh0obK+e9t0bXc8oimmEUkcLPMeHtzTqGQAuhQH0PwJMMYsAMYpjf20Q3R97Aq9Mgy4dJp/qdB2b3zJFmeX6t/r7K1JSC8ubF+uPHqgWTUJqW25bTCScdJsEqaPEF2QgsWqnS7f4J6KajuRMWYhIk1JeF0xwZMAKEYilhQ4enfhfoI2dDyiq0Uhu+p2y6w1CWneokak2ySc2pyiPHOUBUYDnYhNrNrhQlkQGm60LEdEf4Tgs2izo+eNZyo22rIAGA9gjZb7dcUAKLoaDKjee9wr3P8g07b+vW2b7a5ur9W0SVFuWXN39y3fto35GaOtyE0XVZF6savEPZgx1BEptuGfhhAYAMUAYHmtby9jmNSF+wkCpG2b7ZYEm+400uyO4rdNZ46FhKVoQWaQqup9e7JSDRMUhqcBeEXL/TQZgOYCoClKY+t2OR1a7iXoHmaVRpp6tMrqmHYrCprCx8Y9nsZzJyh6WdO1FgZp9QDyASg2KFxc4Iqr5p+RBi89eVmhE41d3KO3mgmThorWZ5HG4oKmtHMnWJWGsgAMAbAn0HtpNQC8rQb3xj3iBKBIgZeeHEguftu028nDLDAbxWs+0li3250HwAtl/Z2GUBuAhia52OVhIzXeSxACOqYnf7vBgSc/qlGc+9yN6eCUnAoiiCaXnNTkYkWJFhquMDwNwLxA76U131LRAOw47KnUeB9BmEi38T/yjGSRfhst7Dzs5uX9a0oICvgTZ4xlAVB083/c0iReG1GCWh6BOMo7elhW6OJVSA1jjCk26lFCi8mfCk7J9YodbrH/HyWo6bgwANHDjwWOQZyhlsKggNBiABRdC48PhypqfTka7iMIJypaLvQ/eiir9eX6ZHaUMxzwMqDbBuBgmbdEwz0EYUZVyYULEFUcKvMd4gwF1wA0FwCdqjS2crszRtswxiaqMYDQiSEIAquLnLw93YmMMaXegScRqAdwKgDFzIMlBY5eAd5DEAGIGEDssKjA2YMzlABOxW5HAjUAygVADHXFRz28YIRAINCRnYfcQxhDPWc4oGVAoAZAsQCost5XLDPNuQSCMCKWALGDzCBVN8i8rL+gGgDFAqCNxW57gNcLIgSRBxBbbN7nbuAMBccAMMbyACiuNRZtdogCoBhCGIDo44fNDsUuoQByGWOdNugNxAPgWRLPumJRABRtCCWPLdYWuYbCXxikRKdeQJcNgN3Fip1uFrdnAEQrYhcgtmhyyUkOF9vLGQ6KAVAMAO486BYFQFGICALGHkUl7nLOkKLutkXVADDG0gEMUxpbutWp2BhUENkwFTUXHkB0snwbtzDolM4KgzrzAKby5izf4RzQuWiCiEPVAxAWIBpZvNXBK8YjAJPVru3MACiuIXwySkqrfbwsJEEEo/qWF/oflZRW+3rIMo5xhlXjAF0yAAfLvIcDEUwgEISGwxXeLhUGcQ0AY8wEQKn1MFbtdHX/9AhBWBC7ALHJ6p1OD2doslphkJoHMB6A4jbfki0O4f5HKWIXIDZZVODk9eRIADCGd52aAVDcQmAMDTsPu8UR4FGK8ABik+2H3HmMQXNasJoBULyoql4ulmWIBvHRivAAYhJZhqHarr0wSLMHsGkvt/hAEAWodwQKlRQCPSjY6+aVBk/nXaNoABhjgwD0VBpbVMAtPhBEASIGELssKnCkcIZ6MMYUcwV4HgDPZfCu3+UcqlkyQcQgyoFjlzU7nEMB8HboFHWaZwAU3f8mF9tjdzHFw8kF0YFIBY5d7C5mc7q5hUGKOq3JA9hVwj2NRBAtiFTgmGbXEXcZZygwD4AxlgJghNLkpducvKIDgUAQASzd5uKd9zmSMXZS/E7JA5gKKG/zLdvm6t8N2QQRgNgFiG2WbnEM4AxJUGjtp2QAOAVA7NixKq9oAR7liF2A2OZola+XLOM4Z/gk3Q7YAJRU+A52Qy5BhCAyAWOfI5Xeg5whdQPAGDMCmKh05aqd3FNIBFGE8ABin1VFqoVB7WIEHT2AMQBsSlcu5hcbCKIJkQcQ8ywpcGZzhpLQoTCoowHgnQBk33HIPSQIsgnCjAgCxj7bDrjzGAPvzI52Oh6QAai2y7t9MnjbC4IoQiwBYh+fDGOtXS7mDKsaAMVsIZUiA0GUITIB44Mt+9x1nKF2hUEnDABjrD+APkpXqBQZCASCCGRRgSOZM9SrWdcBtPcAeAVAvrVFLrH+jxHUlwDCBYgVflIvDDrh6UtKP2yL0832Njpk4QHECmIXIC6wO1myy832cYZPvOw79QCKj3p5xQVxSWmND25v9GpKrCYCub0MpTWiV21bio96SzlD7Q0AYywZwCilmUu3OkT0vw1rily4+Hfl+HJVE+QoVJhoVnIlGAMWFzhw+QvlWFPkCrc4EcWybU5e675RLYVBLR7AFHAKgH7c6hQFQB0oq/HhhQW1uOmVCmza6w63OJqIJQ+g8KAbt71WiTkf1OBopXj7d2TJFgdPdw0AJgE4sbev6P7LMis7UuntrYNsMcHOwx7c8XolJudb8OBlqRjcM/KdpVjIAzhU7sXbXzdgyRZH1BmtUFJS6e0jyzguSYrt/aYBWNTiASgGAI9U+vbrJl0MsW63C9e8VI4XFtSiukEOtzhdJtKVqc4u482v6nH1ixVYXCCUPxCOVakXBhkZYyfcgY6s4RcVCDrgk4EvVzXh+40O3HCmDTfNtsFionCLdRLRqDQeH8MXPzXhnW8a0OiIXgMbDlYXOT1XZiuW90xhjBklACMBKHb6/XGrM0tP4WKRJhfDX79twCUtgcII+75GU1PQlgDfZc+V4+XP64Tyd4ElW7g6bAMwygh+z3DvtkOeQfqIFfuU1foDhQuWN+I3F6Vg2inWcIsUVWwoduG1f9djV4lwQrtDsw77oBzkn2YEx/33+HDE7WYDdJQtLth33Iv73q3G5HwLfntJCvJ6h7etYqTXArQE+BYXOMItSkzgdjOrx8dKTAbqqzA80QhgtNKFThcTJwAFkXW7Xbj2DxX4xcRE3HdRCjJTOjuZXR8iNRW4tlHGe/9rwGcr7PAJTz+ouD2wm5QzAk4xAlCyDJAZN49Y0EVkBny9vglLtjhw1awk3HZOMhItkRMoDIcH4HQzLFhuxwc/NMDujAAXJAZhAG8d1c8IIE1pxGiEaAGuEw43w7xFjfhmvQN3/DwZF5+WCClEDkEkuPmA3xj+uMWB1/5dj+PV4l2jJyYJvABUihGcAEGCmXhthQRBoqLOHyicv6wR912Ughkj9Q8URkIm4Prd/gDf7iMiwBcKzGbi7QTIRgB1AE5SdomQnW6Tqmoa5UxdpRNgf6kX9//VHyi8/5IUDNUxUBjOTMADpV68+60I8IWS3FRjGQG5nOFaCcBBziCdMTaBd964QAfW7Xbhuj9U4OmPa1FZr49bHI48gNpGGa98UYcrXywXyh9izppg5ZUEA8B+CcAW3uiVMxJFK/AQ0xIovOjZcrz5VX1IA2PBNgDO5ljHhc+WYf4ye8QlRcUDl5yWqDZcKAFYwRsd0tM0NjlB4vUWE+hIW+VZsDx4W2OhWOfLDPhmvSMsRkzQSnoyVQ/INY5XmbJEAvBfAIqF1ESwPXRZaoEu0gkCorZRxsuf1+HK30eH+9yyjHnq4xrdljGCwJh7Rdo2gLsD0ATgB4mI6gB8wbvJeZMSxmelSuV6CCgInINlXsz5oAa/equqW9FzvXYB9pd68Zt3q3H3W1UoPiqi++EmN91QOntcguIpX80sIKL6lt3nl8H5bhAh5cMHsvbxxgWhZf1uF67/YwXmfFCDY13YP2cqWt6VD7i8uebhqhfL8dMOZxfuIAg2RGAfPph9FP6TgJTwAfgz0NwRiIi2APiQd8MeGcbTHroshRsrEIQWuTnM9WUAABcOSURBVLlK7ooX/GtsLVVy6h5A4CagJZnpsucjs+oxnnni6tQV2anSqSpT3ieiHUD7pqCPANxjhXHN6baps0YmiHhABNEaKCwPPFDYzTyA1gBfGd78qh5NLuEYRhJnjU/cfPHUJF6FLwCUAJjT8o8TBoCIKgDcAH4vcdMrd6T17ZNlKAmKpIKgUWf3BwqveKHzQKHqS74TXfZ3PvIH+KrqxSs/0uifbTzy4i1pA8Hp7wnAC+B6Iqpt+UG7DHQiWgJgLu8BElHWwkdzmqxmagqGwILgcqjcHyi85c+V2HpAuVlpV4KARSUe3PlGFe5+qwp7j4kAXySSZCH7/LnZDgLSVaY9QETtlvInlaAQ0SsA5vHuYDVT/sePZIulQASz7YAbt73a3C23qr1DpyUVuKWpyY2vVGDjHtFyO1IhAvvkkextFjPlqUz7mIje7PhDXg3arwBs5N1pUK5x2mNXpy/TJqYglLRtp/XKF3Vo0BAobHIx/O27yG1rJmjPczekL++XYzxNZUoBgDuVBrjF6IyxfvAbAV5VoO+JD6sLvtvonBCwpIKwkZIo4abZNjQ4ZMxb1Kg459azbeiZYcQ739RHdXfjeOLsUxM2vXhz+ljw1/1lACYQ0RGlQdVuFIyx6QCWADArjgM1lz9X3nCw3NtPg8yCMGKQwN0tUBsTRB6De5oOLnw0O51Iuakv/I1AziKi5bx7qLahIKKf4N8eVB4H0j+dk+1MtEj2gCQWhB01BRfKHz0kWcj+8cPZXhXlB4D71JQf6MQAAAARvQ7gfd64xUxDFzyaXUgkMgUFglBABPZ/c7ILLSYMUZn2IRG929m9Am1E9WsA63mDvTMNU56+Nl3V0ggEguDw0i0Zy/tmG6eoTFkLTtCvIwEZACJyArgYwDHenAumJMw8b1LihkDuJxAIusZFpyWunz3OOlNlSimAy4kooH3bgFtREtFxAFcA4B2HKz17fVrewB7Gg4HeUyAQBM6QnsYDT16TNgx8vfUAuJKIjgZ6T029aIloNYD7+eNI+3Rujpxkleq13FcgEKiTZKHGjx7OlomQojLtHiJaqeW+mptRE9E7AP7OGzcbMOizR7OLiCBiygJBEJAI8mdPZBdZTDRYZdrbRMTVS+69uyjTPQC4lqZHhmHyCzeli/JhgSAIvHx7xooeaUa15h6rAfy2K/fukgEgIg+AKwFw1xrnnJow85KpCau7cn+BQODnkmlJ604fZZ2lMuU4gCuIiBebU6XL59EQUSmAy8HpJwhAevzq9NH5fUxqbYkFAgGHvN6m/Y9flToC/IxdJ4CLiYi7O9cZ3TqQiojWAriDPw7bvAeyJNFZWCDQRmqiofbjh7MNREhWmfZrIuLm5wRCt0+kI6KPALzNGzebaODnj+fslSRx2KhAEAgSQV74WNYekwH9Vaa9TkTcDN2An9XdGzRzPwBuJmBWqnTqS7eka9qeEAjilVfvyFiZnWpQC/qp1uhoISgGoDkoeBX8/cYUOXNswqyrZyWtCcbzBIJY5YoZSWunj1TN9DsM4NKuBv06ErRDqYmoDMBF8B84oDjloctSRw/va9wbrGcKBLHEyAHm4rlXpo6CetDvsub+nUEhqKfSExG384h/HEkfPpRjSU+WqoL5XIEg2klNkmreuz/TCn4vfwD4FRFxO3V1haAaAAAgok8AvM4bN0jou3BuziERFBQI/EgSfJ89mr3PZCC1xjqvENG8oD872Dds5iEAS3mDmSnS+FfvyBBBQYEAwF9+lflTVqpBrbXeEgCP6vFsXQwAEXnhTxLaz5sz/RTrrOvOsIlMQUFcc/Ps5FWThlnUMv0OAbi6WaeCjl4eAIioGsClAHjtwuiBS1PGjR1kLtJLBoEgkhk9wLz73ouSx6lMccAf8a/USwbVpqDBgDF2GYB/8p7lk9nRcx4vs9Y0ypl6yyKIHCYOteDs8Qkn/v3Wf+tRZ4+fAtL0ZKn6f8/3sBsk9OVMYQCuIaKFesqhmwfQAhF9AeAV3rhBot4LH805bJCgi4sjiEwG9zTi0mmJJ/5LtOj+LooYDBK8/3ws57CK8gPAS3orPxACA9DMXADf8QYzU6Rxb96d+VOIZBEIwsq792auTrdJY1WmLALwZChkCYkBICIZwHUAuElAk/Mtp9/xi2RhBAQxzS1n21aNH2JRy/Q7AL/rH5Jt8lB5ACCiGgAXAuC2C7vz58kTJuSZd4ZKJoEglIweaN716wtSxqtMaQRwIRGFLFEuZAYAAIioCMDN4B9Sa33n11mpmSmSblFPgSAcZKVIFe/fn5UKIIEzhQG4lYi2h1Cs0BoAACCifwF4kTcuSej9xeM5x03G4BQ7CAThxmiQPAsfyzkmSeipMu15IvpnyIRqJuQGoJknAXzNG0xOlEa9fU+GqBwUxATv3Z+5Ji1JGqMy5X8Ang2VPG0xhuOhRCQzxq6F/wSTEUpzxg+xzLrrvOSV737TMCO00kUGA3sY0TfLiMwUCY1OhmNVXuw87AELwgFsvTIMGNjThHSbBAMBtXYZx6t92HMsOPcf3NOI/jlGpNkkVDfIqKjzoajEE5fHjN92bvJPowaY1IJ+xfBn+oWlNiYsBgAAiKiBMXYpgHWA8gGHt5+bPHHjHveOjcWuU0Irnb6YDIS1r7V6gxv3uHDnG1UwGQhXzUrCJVMTMSD35I+mrMaHT5fZMX9Zo+aDPA0ScMnUJFw+PRF5vU2KcyrqfFi02YkPfmhATaN2bT331ATcdm4yBvU4WfbaRhmLChz4+/cNqKqPD0swKd+y/e7zktUaezTAn+lXGyqZOhL27AvG2IUA/gXOckRmKDv/6TJWVuPrEVrJ9EPJADz49xq8cVcGxgxSPIm9HTsOuXHvO9UBZ871yjDgz3dkcBW/I3Ynw+8X1OL7TY6A5ptNhBdvTsfpo62dzq1ukHHPX6owfogZD1/eavfPf7oMx6tjp0A0O81Q/u2zubIkgfe9ZfB38/0ilHJ1JOwGAAAYY88AeJo33tAkbz/n8bI8l5dZQieVfnQ0AJv2uOBwM0w/xa9AdifD0m0OlFT4YLMSxgwyY/TA9oZh9xEPbn+9Enanus/eN9uIv96Xidw0w4mfeXwMq3e6sPeYBz4ZGJhrxIyRVljNrV8HmQF/+KwOn/+kfvK70UB441cZmJzf/qPZX+rFul0u1DTK6JFuwMxRFmSl+GU4WunDf9c34a5ftPa7jCUDYDRInh9eyClKTZJGq0x7ioieC5lQHCLFABCAz+CvIFRk52HP0hterjgjdFLpR0cD4HSzE8r33UYHXlxYe5JiTxxqwQs3pSMzpdVR+veaJjz3Kd97NBsJ8x7MQn6f1jf/+t0uPPNJLcpq2ytbapKEx65KxexxrbtUPhn45WuV2HaAvyFz2znJuPv8VkV2uBleWliHr9e3bwxlNBDu+kUybjnbBgBocrF26b+xZAA+fjh75Yh+JrXY1X/gd/3DvhYK1y5AO4iIAbgVwA7enBH9TGfce0FKTJ421KL832904MmPahTf6huKXbjv3So43a1jF5+WiFOH8JcMN55pa6f8m/a48Jt3q09SfgCos8uY+4+adoprkICnr0uDxHlNZKca8MtzbCf+LcvAnPerT1J+APD6GN76bz3mLWoEgJjN/f/tpanLO1H+XQBuigTlByLEAAD+oCD85cPcV9rNZ9tOmznSujV0UoWO6gYZv19YqxqF31XiwbvfNrT72bVn2BTnmgyEK2e2dpdyeRie+rgWbi//AYwBL8yvw6Hy1rqsAblGnDZCeW1/weQEmE2tivz5T3as2ql+KvXbX9dj9xGP6pxo5bRh1sLrz0g6TWVKPfxv/og5JyNiDAAAEFEx/N2Feb6g6U93ZPTqmW48HkKxQsKC5fZO1/MAMH+ZHZX1rX+emSOtSLOd/DFOHmZpt1z4Zr0DpTWdu9huL8Pfv2tvZM6fpJy8ds6prT9nDJi3uLHT+/tk4J1vGjqdF23kphrL3vhVeg4AnksmA7i2ORs2YogoAwAARPQDVAKCEiF74ePZlWYjBRaijhJ+3BrYr+P1MXy/sXWuJAGjB5z8neu4mxDo/f1znWhytRqjjgFIwO/CD+rRurzYediNsgAMDACs2ulEdUNEeMBBwWwm5z+fzK6UJMpVmfYEEX0TMqECJOIMQDO/hz8oqEiShUZ98nD2phDKoysON8OhssDbIWzZ3z4od0r/k7f3hvdt/7NdJYG73S4Paze/R7oB6R28jCG9TJDa/KjocOD3l2Wg8GDsZHp/cH/WxiQLqeWq/AvAS6GSRwsRaQCag4K3ASjkzRncyzj9wUtTuKcRRRPHqnyQNWTgHShtbywyUwwnzWmrsHYn05zYc6CsvUJnJLf/qnQ0CEeqtEXwO/4O0cqcK1KWD+9rmq4ypQjAzc3f6YgjIg0AABBRI/zlw9zKwGvPsE2dNTphS+ik0ge7U5tyNjjaz09JPPljTE5sawC0u9sNTe2/r8kdnmFLaB/Fb+rm7xCNTBth3XblTJta0K8GwAVExC2BDzcRawAAgIgOArgGakHB29P79csxcI8kiwa05sh3TAM2KHyKbbfuupLf7+vgkhg67AUStf+3Fg/Gf3/tMkUSvTMNx167K6M31IN+1xHRvhCKpZmINgAAQESLATzGHQcy5s/JabKaiXckWcSTaNW2J56c0P5jq2s6WZvavmG13l/pGQ0dntHRq0i0aPsqJSdEbx6AxUzO+XNz6iSCWiPbOUTEbYMXKUS8AQAAIvojgPm8cauZ8j9+JLsghCIFlbZpuoHQO7P9/BqFiHrbOgGbVYItQdtH3T+nfUFPxxhCxzqEnDRt9++dGbY6tG4z74GsjUlWGq4y5VMi4jbCjSSiwgA0cxsAbuR/UK5x2qNXpkZlUDA1SUKOBiMwsn97r7NIIcLfNtmGCMjvHbjCGSRgeL/WXYSWkt627D3mbbe0yOsVWKFRC0o7F9HAk9emLxvaWzXotxXA7aGSp7tEjQEgIgeAywBwT0a9fEbS9HMnWIN6eGKomHFK4HVOZ3dIwFHK1S880N4ozBzVeaVeC9NGWNsFFpW27OqbZJRUtkbyxw0xB+xljOhnQt/s6PMAzhyTsPni0xLUlL8a/ky/qFmORo0BAAAiOgR/ujBv09nw/E0Zg/vlGA+HUKygcMWMpHb76jxOH23F4J6tyrNprwvlCrn9q4ucaGwTBzh/UmJACkoE3HpO+/TiHzhlwT9ucZ74f7ORcOnUxE7vD/gLiKKNvlnGIy/dljYA/B4aXgCXExH3OLxIJKoMAAAQ0U8AHuGOA+kL5uQ4Ei2Seh1rhJHX29SpYuSmGTD3yva9UxYsV/41m1wM/1nb+iJKs0n47SUpoE5ibzfNtmFUm8zCijoflrRR9LZ8tbapXfT/l+cmtzNOSlw4JTGgvgGRhMVE9gWPZjdIRBkq0x4iIu6BuJFK1BkAACCi1wB8wBu3mJG/4NHsQiJu9+GIwtFc4XfXL5Lxm4tT2hXYtJDfx4R37s1EdmprrGDdLheWbVNWTgB47/vGdt7Bxacl4rkb0xXzBhLMhAcvTcW9F6a0+/krn9fD41P+Mx4q9+LLVa0GKMlKePfeLEwdcfJyhgi4elYSHr86td3vHOkQgc2fm73NalYN+n1CRK+HTKggErV7MYwxK4AVALgtl/6z1r7sd/9Xd3rIhAoQpY5AVfXyieKamkYZK7c7cazahyQLYUQ/E8YNsbTb269plHHjyxU41kkN/YQ8C968OwNmY+vFDjfDmiIXDpT6+/T1zTFi2gjLSVt/X65qwgsL1LtVpSRK+OSR7JN2JnaVeLB5rxt1TTKyUyVMHWFFrwz/nNIaH/6zpgl3RkFDkN9dn77svMkJp6tMKQAwPZrW/W2JWgMAAIyxXgA2Atx2y/JTn9Rt+madXa0vW8hRMgAPv1eD9+7P6tSFBvxbcHe9WYXio4Hl30/Ot+CV2zM01eAvWG7Hn76oCyjBp0e6Ae/emxlQYK++Sca971RjZH9TxLcEO2t8wqaXbkkfC4C3RVMGYCIRRW0iWlQuAVogomPwdxHiVZZIz16Xmjewh/FQCMXqEvVNMn75WiW+3eCAl+NyMwYs3erE1S9VBKz8ALButwuXP1+Obzc4Os3A23HIg7verMLLnwem/ID/jX7dHyvw2Qo7V/aWe9/0SiW2R0EhUL9s48EXb0kfCL7yewBcFc3KD0S5B9ACY+weAG/xxt0+7J8993i23ckiIvzM6wrcQmqShJkjreiTZUBWigF2l4wjlT6sKHQGVNOvRnKChNOGWzCwhxHpNgkmA6GqwYfj1T6s2+XqdEnRGalJEs4YbUX/XCNSEiTU2mWU1vjvfbgiOgqAkixkX/T7HsctZhqiMu0eIno7ZELpREwYAABgjP0NKgkYx6u86y54tnwSY+H/nTszAILwQQT27ydz1vbJNqoV+XxERDeFTCgdieolQAfuAbCSN9gz0zj5+RszloVOHEE08uJN6cs7Uf61AO4IlTx6EzMGgIg8AK4EcJQ359wJ1lkXTUlYHTqpBNHEhVMS1591aoLaKT6l8PfyV298GEXEjAEAACIqhT8oyPuApCevTR+d38cU0SWagtAzpKfxwFPXpg0DXyc8AK4koiMhFEt3YsoAAAARrQVwJ38ctnkPZEnJCVLEdGYVhJckCzV+9HC2TIQUlWm/JiLuEjNaiTkDAABE9CGAd3njZhMNXPhodpFE3EYjgjhBIsj/fCJnp8VEg1WmvUtEfwuZUCEkJg1AM/cB4JYH56Ybprx0a0ZMHjQiCJw/3pa+IjfNMEllyhoA94dKnlAT9i0xPWGM5cKfKdiHN+Xlz+vXLljeqBb1DToSARe3qZyrqPOn/gpCy8VTE9Y9eU36JPD14DiACc0JZzFJTBsAAGCMjQOwCoDi6RaMwX7Dy+XHi0q8akkfghgjr7dp//w52dlE4CWHOQHMIqL1oZQr1MTyEgAAQEQFUA8KJv3jwWxjcqJUHUKxBGEkNdFQ+/HD2QYV5Qf8Qb+YVn4gDgwAABDRxwDe4I2bDDTgi8dzDkqSCArGOhJBnv9o5h6TAf1Vpr1JRO+HTKgwEhcGoJkHAXAbNmSmSOP/dHumCArGOK/embEiN82oVh26CsBDoZIn3MSNASAiL/wHj3IrA2eOtJx+zSybyBSMUa45w7Zm+inWWSpTDsPf0y/yyxWDRNwYAAAgogoAFwPgNW+ghy5PGTd9hHlbCMUShIBJ+ZbtD12aMgb8wLcT/p5+5SEUK+zElQEAACLaAvVijoTX7srqN/0U69ZQySTQl9NHJRS8fU9mPwBqXUtvJ6INoZIpUoj5bUAejLFX4I8L8HD+/fuGDe9+0zAjVDIJggsR2L0XpKy86SzbZABqfddfJaIHQiVXJBHPBsAA4HsAs9XmlVZ719/zdnXuwTKvWtRYEGEM7mE88JdfZ1Zmpxo6awe3BMC5zTGiuCNuDQAAMMYyAawHMKiTqe6iEu/aVz6vzd6y363WHVYQZiYNtWx/4LKU2rxepskAOjt+6CD8Pf24J1DHOnFtAACAMTYawGoASYHM9/jY4aJD7oMb9rip8KAnuaZBTqh3+AI7EUMQNAwS+dKSJEdOumQf1sfcNCHPQsP6mAZJEnoHeIsmANOaY0JxS9wbAABgjF0I4AvwT30RxBYtp/j8J9yChJu42wVQgoi+AvBL+L8YgtjGC+BWofx+hAfQBsbY+QA+BVRzxAXRSx2Aa4jou3ALEikID6ANRPQ1gDFQaS4qiFqWAhgjlL89wgB0gIgOAJgFf9pwUZjFEXSfQgCXEdHPmk+XFrRBLAFUYIwRgNMBXA3g5wD6hlUgQaAcAPAdgPnNp0kLOAgDoAHGWA8AIwBkAUgLsziCVrzwr+/LABQRkThlJUD+H1mjVjgV9mfjAAAAAElFTkSuQmCC;" parent="sJfHZRyvvE6cVOoVh98q-51" vertex="1">
          <mxGeometry x="117.66192141434749" y="100" width="84.03807858565249" height="81.74267812909802" as="geometry" />
        </mxCell>
        <mxCell id="sJfHZRyvvE6cVOoVh98q-55" value="" style="shape=image;verticalLabelPosition=bottom;labelBackgroundColor=default;verticalAlign=top;aspect=fixed;imageAspect=0;image=data:image/png,iVBORw0KGgoAAAANSUhEUgAAAQAAAAD5CAYAAADImOsDAAAABmJLR0QA/wD/AP+gvaeTAAAgAElEQVR4nO2dd3Qc1fXHv3e2Slr15t5l2cYdN1whmJLQe++hBAIhNJsOAQIJJNQASYCY8sM2AZIQWrCNG+5FtmVbttwtF/W+2j7v98dKVvG80Y60s/V9zuEcrPdm5kq798599917H0EQFzDGcgGcD2A6gLEAegLIBVAPwAHgIICdAJYC+IGIysIjqUAgCBqMsTMZY18xxnwscDyMsS8YY2eGW36BQKARxhgxxi5gjK3RoPQ8ChhjNzLGDOH+vQQCgQqMMalZ8TcFQfE7sr3ZEBjD/XsKBII2MMbMzcq5WwfF78gBxthvGGMJ4f69BYK4hjGW1KyMJSFQ/I6UMcaeYYylhvvvIOg6FG4BBNphjKUD+DWA3wDI1HYtGuodbH9FrdfucsMHAFYLGXJSpVRbgtSfCDaN4lQCeAPAW0RUo/FaQZgRBiCKYP6tvAcA/ApAcqDX+WRWvnKHq+iTJY05W/e7h8lM+XM3SPBOyLPsvmG2rXJyvnmURJShQbwGAG8DeFVsIUYPwgBEAYyx/gAeBnArgIDX3i4P2//eD43HP1pkn+T1ySYtz7QYyXXbOckbbjzL1tdkQH8NlzoAfADgZSI6pOWZgtAjDEAEwxgbDOA+AHcCsAR6ndPNit9f1Fgx74eGKbKMbm3fSQT5/MmJmx66LNWWZKXhGi71AFgA4EUiKuqODAL9EAYgAmGMjQbwEIBrgcAVuKFJLvzzv+qd/13XNIFx3PzuMHtcwuYnrk0zJ1tppIbLZADfAniOiNYHWyZB9xAGIIJgjE0HMAfAedDw2TQ0yYW/m1/n/XGLY5xuwrVh6nBr4ePXpjp7pBkmarx0FYBniGixHnIJtCMMQATQRvHP13CZXFrr2/T0RzVJG/e4R+gkmiqjB5h3P3FtWuXgnsYp0OCpwG8I/gDgayJi+kgnCARhAMIEY0yC/03/BIBJGi717DvuXf/Eh9U9i496B+kjnTaG9TEffvr6tGNDexsnANCSKbgNwJ8A/B8R+fSRTqCGMAAhhjFmAnANgLkAtATVXPuOezfO+aC6z4FSr5aofMjom2U88sS1qfsn5FkmQsNuBYB9AP4I4B9E5NFHOoESwgCECMaYGcDV8L/x8wK/DvZNe12bnvqoNr+s1perm4BBJDNFqnz48tQds8cmjCNCioZLDwF4FcDfiMihk3iCNggDoDOMMRuA2+Dfx+8d8HVA9eICR+GLC+tG19nldN0E1JHUJKnhkStSt51zasIIArT8DuUA3gHwGhHV6iSeAMIA6AZjLBPAvc3/BZxRJzNULtni2PH8/NrxjQ4WcLZfJJNkIfs9FyRvumJGUr4kkRYvph5+Q/AyEVXpJF5cIwxAkGGM5QC4G8D9AAIulPHJOPL5ysb9r/+nYaLLE5uVdiYjuW+Ybdtwx7nJfTRmF9oBvA+/ITiik3hxiTAAQYIxNgDAbwHcDk3putj73g8NZR/+0DDZJ2uKoEctRgPJ159h23jHL2xZFhNp2clwA1gI4HkiKtZJvLhCGIBuwhg7Bf49/GugYQvM6Wa731/UWBmMdN1o5USa8eWpiUkWOkXDpS3ZhU8T0WadxIsLhAHoIoyxsfBX5nU1XXciEykwJ+hidiED8A38HsE6nUSLaYQB0EhX03WrGuXNT31Ua15b5NSSRx93tDEEE6Dt+7kKwB+I6L86iRaTCAMQIIyx2QCeBTBVw2Vyaa1v05Pzamyb97m1JP3EPSMHmIufujatogtpxpsBvATgc5Fm3DnCAKjQJl33KQATNFzq2Xfcu/7xD2t67jnqiYh03Wilf66h5LGr0g5MyLNMhoaSaACFAF4B8CkRefWRLvoRBkCBNum6jwIYpuFS146DnvVz59UMPlbl7aWPdPFJn0zDsSevS9s7Ic8yAUCihkv3w9+y7K9E5NRHuuhFGIA2MMYsAG6CP123b+DXoXHTXtfmpz6syy+r80ZFum60kpEsVT1yRer22WMTxhIFnmcBoBTAawDeJKImncSLOoQBAMAYS4a/3dYc+I/MCgiZseolW5yFLy6oH1PX5EvTTUDBSSRZqPGeC5I3XzHTNkwi5Gi4tBLAXwC8LpqYxrkBYIxlwd9d9z5oyFWXGSq+Xmff+Yd/1k90upkWd1QQZBItkv3XF9g2XTHDlidJgRtv+JuY/gPAS0R0XCfxIp64NADN3XV/C3+efsAK7JNR8vnKxgOvfdUwye1mVt0EFGimJc349nNtvc0GGqDhUheAD+HPJSjRRbgIJq4MAGNsIPw5+ncACFiBXW62971FjXGVrhuttGQXPnJ5anKChbQEcFuamL5ARLt1Ei/iiAsDwBgbBX85rtZ03V1vftVQs3BF4xQ9mmwK9IMI7ILJiRsfuCQlMTlR6kqa8bNEtFEn8SKGmP5SM8bGwb+Vdzk0Ntn887/qnV+tbdLa9FIQgXSjieliAE8R0Ro95IoEYtIAdLHJJiut9W189pO6hPW7RbpuLDJ6oHnX09el1Q/INU6ESDMGEEMGgDFG8Cv8YwCmaLhULq31bXpiXo2tQKTrxgXD+xr3PntDRtngnsbJ0NbEdAv8Lctipolp1BuANum6zwAYr+FS977j3g2P/aO6197j3oG6CCeIaPrlGEoevzrtwIQ8yyRoCAoD2AF/E9OoTzOOWgPQpsnm4wCGarjUvnGPa9MzH9flHa/xatk3FsQoWSlSxeNXpRXPGGUdR6Qpzfgg/NmFUdvENOoMAGMsCcAv4T86q0/g1/nTdZ/4qHZYRa1PS+aYIE5IT6bqOVekFc4elzCGAC2ZnWUA3oX/ZOQ6ncTThagxAG3SdecC6BHodTJD1ZItju2/X1A/tr7JpyV3XBCn2Kxkv/v8LjUxrQLwFoA3iKhaJ/GCSsQbAMZYNoB7APwGGqyyT2bHPl9p3/vGVw0TRLquoCtYjOS69RxbwS1nJ/czSNBS3dkI/xHpfyCiYzqJFxQi1gAwxvoBeBB+dz9gBfb4WMmXP9kPvP6fhskuD9NSPy4QKGI0SJ4bz0paf/u5yT3NBmjp7+AC8BmA3xHRXp3E6xYRZwAYY4Pgf9vfCQ0NIFxutue9RY3l8dxkU6AvbZqYJiVZSMuBrC1pxi8SUZFO4nWJiDEAjLHR8Af2NDXZbHSywj99Uef877qmCSJdVxAqpg63Fj5zfZo3M0XSciR7S5rx74hog06iaSLsCsMYmwZ/YE9Tk02RriuIBLrZxPRpIlqik2gBETYDwBibBH/zxjM0XCaXVvvWPf1JXfLGPSJdVxA5jBts3vPUdWn1/bKN4wBIGi79EcCccBUehdwANO/j/wn+ktxAn+89UOpZ88RHtb12lXgG6yedQNA9hvY2lTx7Q/rRob2NExB4mjED8DaAh0OdUBRSA9Bcj/8NgEBz7l07D3tWPflRzcCDZSJdVxA99M0xHn32uvSDYwaZTkXgacbbAZxHRId1FK0dITMAjLERAJYggCQexph9Q7F7/TP/Vzu8rMYXcNKPQBBp5KQZKh+7OrV4+gjrGCIkBXDJUQA/C9XZhyExAIyx3gDWoPNOu03LCp0bnp9fO6qmQQ74SG2BINJJTZJqnroubdvpo6wT0XleywEA00LRq1B3A8AYMwJYCmC62rzSau+GW1+t6ldW6xNttQUxS490Q9kHD2Qdzu28OclSALOJSNZTHi3Ryq7yMNSV3/fZCvvy854unyiUXxDrlNb4cs97qmzCl6vtK+DPC+BxBvzdqnVFVw+AMdYDQDGAZM4U70uf1W3850q7lgYeAkFMcP3PbGt+e0nKJPAT32oB5BFRpV4y6O0BPAC+8uNv3zWsFcoviFc++bHxtI+XNK5WmZIGnb0A3TwAxpgVwBEAmUrjhQc9K2/+U8UMvZ4vEEQL8+dmrxra2zSNM1wKoB8RefR4tp4ewM/AUX6fjCN3vVmp5bRdgSBm+eWrlWN8MivnDPcAoNuLUk8DcC5v4I2v6g873SxBx2cLBFGD3cVsH/yvcY/KlJ/r9Ww9DcAspR/6ZHb006WNk3V8rkAQdfz9+4bJsoxSzrCiLgUDXQwAYywFgOJpLN9vcu4R9foCQXt8MozLtzt4R5KNZUyfrlZ6eQBTwNnamL+0MeBGngJBPPHpj028ZrUmAJP0eKZeBmCq0g9lmZUWlXiG6PRMgSCqKdjvGiYzxmsmytsl6BZ6GQDFzL8jlb79Oj1PIIh6GANV1Mm83oGKL9XuEnQDwBgzgOOurN7l0mUvUyCIFdbtcvL6AUxtPgUrqOjhAYwBJ/tv8WaHOJBDIFBhcYErnTOUhsD7aASMHgaAt1axbzvgztPheQJBzLCx2JUPfztxJYIeB9DDACiuVWoa5WKfrOkkVoEg7nB5maWhSeYlBUWFAVAUcss+V1SdmSYQhIvth9xVnKHINgDNnX8Uu/4s3uKwBfNZAkGssmSri9dDcDBjLKgnWgfbA+AVLcirdrjE/r9AEADLtjXlwd8pWInTgvmsYK/JFV0Ul5vta3AwEQCMEEwGwrghZkwb4T95bdVOFwr2uuHx8b5zglBS08AyPD4cNBkwQGF4GoAvg/WsYBsAxQBg8THvcQDCAISRjGQJU4dbMWOkBVOGWWBLaHX+rv+ZDU43w9YDbqzc7sSPW50oq/GFUVrBgVLPkaG9TQMUhoIaBwiaAWg+8GO00tiybQ5R/BNiJAnI723CzFFWzBhpxbA+JpBK+xermTA534LJ+RY8dFkqjlb6sHKHEysKndi01w2v8A5CysrtTgztbVIaGs8YSySipmA8J2gdgRhjZwJYrDR28XNlh0vKff2C9SyBMqlJEiYO9SvxrFFWZKYEJ8RT3yRj/W4X1u12YeV2FyrqhHegN/l9jPs/nZPDO4p8FhGtCMZzgrkEUHRNZIZyofz6MbinETNGWjEp34IJeRYYdNjYTUmUMHtcAmaPS4DMgN1HPFi3y4WVO5zYtt8NWTgHQaf4qHcgA2oIUMoMnAogOgzAsWrfPgAiBThIJJgJE4daMGOkFdNPsSAnLbSrK4mA4X1NGN7XhJvPsqG2UcbGPX7PYMV2J+qbdG1jHzcwBiqv9e3lnB8QtDhAUAxAc5GCYpeftTud7mA8I57pnWXAzJH+tfz4IWaYDGE/1f0EabY23oEM7D7qwcrt/tjBriMeMOEddJmNe9z28yYqds6bxhiTgnFoSLA8gFEAUpUGFm1xZQXpGXGDxUQYO8iMmaOsmDXKip4Z0RFDlaRW7+COnyejukHGmiK/Z7CmyAm7U1gDLSze7EjnGIB0APkAirr7jGAZAF6tsmPrfpfY/guA3lkGTM63YOZIKybnW2A2Rc5bvqtkJEs4b1ICzpuUAJ8MbD/oxopm72B/qTfc4kU863a7hgJwAzArDE9DBBkAxTVJnZ3t9njZ2CA9I6YwSMCogWbMOMWKycMsGN5XccsnZjBIwJhBZowZZMa9F6bgaKWveVfBibW7XXB7hHfQEZeHJTQ62Q6blZT6a04D8F53n6GrAdiy31UbpPvHBG2TcU4bbkWSNfrf8l2ld5YBl2Yl4tJpiXB5GLbs9ychLd3qRKlIQjrBzoPuyknDLEpDQQkEdtsAMMZ6AYopi1iyxRnIeegxi9ZknHjFYuInIW2O8xTlH7c5LRwDkMcY60FEvFbiAdHtryNj7AoAnykN/WxuaW2dXeZ1OIlJ0mwSJuRZmqP2FqQkhuIA5tjF4WbYWOwPJP60w4Xy2vjyDrJSpIr/vdAjmzN8CRH9uzv3D8YSQDEA6PKw/XV2eXAQ7h/RSATk9zFh8jC/0o8aaIYk3vJBI8FMmNG8BQoA+0u9WFHoxPrdLmzc44IvxtMOKuvlbI+PHTYZSCmZbhqAsBsAxbXIvuPeYwBi0gAkWggT8izNX0wLslOjY5suFhjUw4hBPWxxlYR0qMxbMqSXiWcAukW3DABjLAH+JqAnsWybMybfgwlmwqXTkjBrlBVjBpl1Sb0VBEaaTcIZYxKQkWxAmk3CFz/Z4XDHXrxg5XanPKQXtzDISkTOrt67W0rKGDsdwFKlsctfKD94oNQ7oDv3j3TCnZYbr8TLm7+F4X1Nez95JJvXUGc6Ea3q6r27uwTgFQBVHij19u/mvSMeh5v5E1u2+w1wKApz4pF4L0DadcQzWKUwaBqAyDIApTW+vQDiLgV433Ev9h1vxLxFjWI3oJs0uRg27fG/4eO9BJkxUGWdb292avALg7psABhjBE4B0LpdTl5f87ihtlHG4gIHFhc4RD5AgIgmJHw2FLubfqFcFzCVMUZE1KU/Vnc8gBEAMpQGFm12ZnbjvhGNJAGyxiWnLANFJR4UlXjw128bVNtzxRPBbkPWlc8mWlhc4EjjGIAsAEMB8I4WV6U7BoDneri27IvdE4AumpKIW85KPvGm6spedHWDjK/XN+Hr9U1xVxPQrgZglwtub9ff8i05GC2e1ec/2fHv1UHplBVxrN3VaWFQZBiAhiZ5t8vLFHsDxgq9swy4elYSrp6VhDq7jA3F/oj08kInGhzarIFPBrbsc2PLPjfe/AronWnA5GH+tNipI6xItET3WsHtYSjY78b63f6/z4FuVgG23XmZOcqCrJTWnZfo/kup4/KwBLuL7Uyy0AiF4WkAPujKfYNuALYdcPPON49JUpPaN8Qo7GbJ69EqH75c1YQvVzWd6AswKd+C00dbMSA3Ok5WO1btw9oifw/B1TudaHJ1by3fYhRnjrRiynBLRDVECSVFh90VE/KCWxjUpW8UYywXnCy/JVudiV0VJtqRVEpe1xS5NBe1uDwM65qbcb75VX3EdgYKdicgSQJGx9GyKFB+LHBaOAZgKGMsm4gqtN6zq68UnsVhK7c7YzL9tyu0LXltW9SyvNCJqnrt0aqjlT7MX2bH/GX2dq7wtFMsyA1xElJNo4xNe7q+9OlISqKESfli21SNHwudgx65UrHxFsF/YtBXWu/ZVQOgWADk9rGD1Q3ywC7eM6ZpW9Ty6FX+xJbuvDHVkpBOHWKGMcjeQcdknK373d3u99fWo9FD5lijotaX45NRYpAUz9+cihAaAOUCoGPeowCEAeiEtp117/h58ok1c3ci422TkNqeD9AxUKaFlgDnut0urCh0obK+e9t0bXc8oimmEUkcLPMeHtzTqGQAuhQH0PwJMMYsAMYpjf20Q3R97Aq9Mgy4dJp/qdB2b3zJFmeX6t/r7K1JSC8ubF+uPHqgWTUJqW25bTCScdJsEqaPEF2QgsWqnS7f4J6KajuRMWYhIk1JeF0xwZMAKEYilhQ4enfhfoI2dDyiq0Uhu+p2y6w1CWneokak2ySc2pyiPHOUBUYDnYhNrNrhQlkQGm60LEdEf4Tgs2izo+eNZyo22rIAGA9gjZb7dcUAKLoaDKjee9wr3P8g07b+vW2b7a5ur9W0SVFuWXN39y3fto35GaOtyE0XVZF6savEPZgx1BEptuGfhhAYAMUAYHmtby9jmNSF+wkCpG2b7ZYEm+400uyO4rdNZ46FhKVoQWaQqup9e7JSDRMUhqcBeEXL/TQZgOYCoClKY+t2OR1a7iXoHmaVRpp6tMrqmHYrCprCx8Y9nsZzJyh6WdO1FgZp9QDyASg2KFxc4Iqr5p+RBi89eVmhE41d3KO3mgmThorWZ5HG4oKmtHMnWJWGsgAMAbAn0HtpNQC8rQb3xj3iBKBIgZeeHEguftu028nDLDAbxWs+0li3250HwAtl/Z2GUBuAhia52OVhIzXeSxACOqYnf7vBgSc/qlGc+9yN6eCUnAoiiCaXnNTkYkWJFhquMDwNwLxA76U131LRAOw47KnUeB9BmEi38T/yjGSRfhst7Dzs5uX9a0oICvgTZ4xlAVB083/c0iReG1GCWh6BOMo7elhW6OJVSA1jjCk26lFCi8mfCk7J9YodbrH/HyWo6bgwANHDjwWOQZyhlsKggNBiABRdC48PhypqfTka7iMIJypaLvQ/eiir9eX6ZHaUMxzwMqDbBuBgmbdEwz0EYUZVyYULEFUcKvMd4gwF1wA0FwCdqjS2crszRtswxiaqMYDQiSEIAquLnLw93YmMMaXegScRqAdwKgDFzIMlBY5eAd5DEAGIGEDssKjA2YMzlABOxW5HAjUAygVADHXFRz28YIRAINCRnYfcQxhDPWc4oGVAoAZAsQCost5XLDPNuQSCMCKWALGDzCBVN8i8rL+gGgDFAqCNxW57gNcLIgSRBxBbbN7nbuAMBccAMMbyACiuNRZtdogCoBhCGIDo44fNDsUuoQByGWOdNugNxAPgWRLPumJRABRtCCWPLdYWuYbCXxikRKdeQJcNgN3Fip1uFrdnAEQrYhcgtmhyyUkOF9vLGQ6KAVAMAO486BYFQFGICALGHkUl7nLOkKLutkXVADDG0gEMUxpbutWp2BhUENkwFTUXHkB0snwbtzDolM4KgzrzAKby5izf4RzQuWiCiEPVAxAWIBpZvNXBK8YjAJPVru3MACiuIXwySkqrfbwsJEEEo/qWF/oflZRW+3rIMo5xhlXjAF0yAAfLvIcDEUwgEISGwxXeLhUGcQ0AY8wEQKn1MFbtdHX/9AhBWBC7ALHJ6p1OD2doslphkJoHMB6A4jbfki0O4f5HKWIXIDZZVODk9eRIADCGd52aAVDcQmAMDTsPu8UR4FGK8ABik+2H3HmMQXNasJoBULyoql4ulmWIBvHRivAAYhJZhqHarr0wSLMHsGkvt/hAEAWodwQKlRQCPSjY6+aVBk/nXaNoABhjgwD0VBpbVMAtPhBEASIGELssKnCkcIZ6MMYUcwV4HgDPZfCu3+UcqlkyQcQgyoFjlzU7nEMB8HboFHWaZwAU3f8mF9tjdzHFw8kF0YFIBY5d7C5mc7q5hUGKOq3JA9hVwj2NRBAtiFTgmGbXEXcZZygwD4AxlgJghNLkpducvKIDgUAQASzd5uKd9zmSMXZS/E7JA5gKKG/zLdvm6t8N2QQRgNgFiG2WbnEM4AxJUGjtp2QAOAVA7NixKq9oAR7liF2A2OZola+XLOM4Z/gk3Q7YAJRU+A52Qy5BhCAyAWOfI5Xeg5whdQPAGDMCmKh05aqd3FNIBFGE8ABin1VFqoVB7WIEHT2AMQBsSlcu5hcbCKIJkQcQ8ywpcGZzhpLQoTCoowHgnQBk33HIPSQIsgnCjAgCxj7bDrjzGAPvzI52Oh6QAai2y7t9MnjbC4IoQiwBYh+fDGOtXS7mDKsaAMVsIZUiA0GUITIB44Mt+9x1nKF2hUEnDABjrD+APkpXqBQZCASCCGRRgSOZM9SrWdcBtPcAeAVAvrVFLrH+jxHUlwDCBYgVflIvDDrh6UtKP2yL0832Njpk4QHECmIXIC6wO1myy832cYZPvOw79QCKj3p5xQVxSWmND25v9GpKrCYCub0MpTWiV21bio96SzlD7Q0AYywZwCilmUu3OkT0vw1rily4+Hfl+HJVE+QoVJhoVnIlGAMWFzhw+QvlWFPkCrc4EcWybU5e675RLYVBLR7AFHAKgH7c6hQFQB0oq/HhhQW1uOmVCmza6w63OJqIJQ+g8KAbt71WiTkf1OBopXj7d2TJFgdPdw0AJgE4sbev6P7LMis7UuntrYNsMcHOwx7c8XolJudb8OBlqRjcM/KdpVjIAzhU7sXbXzdgyRZH1BmtUFJS6e0jyzguSYrt/aYBWNTiASgGAI9U+vbrJl0MsW63C9e8VI4XFtSiukEOtzhdJtKVqc4u482v6nH1ixVYXCCUPxCOVakXBhkZYyfcgY6s4RcVCDrgk4EvVzXh+40O3HCmDTfNtsFionCLdRLRqDQeH8MXPzXhnW8a0OiIXgMbDlYXOT1XZiuW90xhjBklACMBKHb6/XGrM0tP4WKRJhfDX79twCUtgcII+75GU1PQlgDfZc+V4+XP64Tyd4ElW7g6bAMwygh+z3DvtkOeQfqIFfuU1foDhQuWN+I3F6Vg2inWcIsUVWwoduG1f9djV4lwQrtDsw77oBzkn2YEx/33+HDE7WYDdJQtLth33Iv73q3G5HwLfntJCvJ6h7etYqTXArQE+BYXOMItSkzgdjOrx8dKTAbqqzA80QhgtNKFThcTJwAFkXW7Xbj2DxX4xcRE3HdRCjJTOjuZXR8iNRW4tlHGe/9rwGcr7PAJTz+ouD2wm5QzAk4xAlCyDJAZN49Y0EVkBny9vglLtjhw1awk3HZOMhItkRMoDIcH4HQzLFhuxwc/NMDujAAXJAZhAG8d1c8IIE1pxGiEaAGuEw43w7xFjfhmvQN3/DwZF5+WCClEDkEkuPmA3xj+uMWB1/5dj+PV4l2jJyYJvABUihGcAEGCmXhthQRBoqLOHyicv6wR912Ughkj9Q8URkIm4Prd/gDf7iMiwBcKzGbi7QTIRgB1AE5SdomQnW6Tqmoa5UxdpRNgf6kX9//VHyi8/5IUDNUxUBjOTMADpV68+60I8IWS3FRjGQG5nOFaCcBBziCdMTaBd964QAfW7Xbhuj9U4OmPa1FZr49bHI48gNpGGa98UYcrXywXyh9izppg5ZUEA8B+CcAW3uiVMxJFK/AQ0xIovOjZcrz5VX1IA2PBNgDO5ljHhc+WYf4ye8QlRcUDl5yWqDZcKAFYwRsd0tM0NjlB4vUWE+hIW+VZsDx4W2OhWOfLDPhmvSMsRkzQSnoyVQ/INY5XmbJEAvBfAIqF1ESwPXRZaoEu0gkCorZRxsuf1+HK30eH+9yyjHnq4xrdljGCwJh7Rdo2gLsD0ATgB4mI6gB8wbvJeZMSxmelSuV6CCgInINlXsz5oAa/equqW9FzvXYB9pd68Zt3q3H3W1UoPiqi++EmN91QOntcguIpX80sIKL6lt3nl8H5bhAh5cMHsvbxxgWhZf1uF67/YwXmfFCDY13YP2cqWt6VD7i8uebhqhfL8dMOZxfuIAg2RGAfPph9FP6TgJTwAfgz0NwRiIi2APiQd8MeGcbTHroshRsrEIQWuTnM9WUAABcOSURBVLlK7ooX/GtsLVVy6h5A4CagJZnpsucjs+oxnnni6tQV2anSqSpT3ieiHUD7pqCPANxjhXHN6baps0YmiHhABNEaKCwPPFDYzTyA1gBfGd78qh5NLuEYRhJnjU/cfPHUJF6FLwCUAJjT8o8TBoCIKgDcAH4vcdMrd6T17ZNlKAmKpIKgUWf3BwqveKHzQKHqS74TXfZ3PvIH+KrqxSs/0uifbTzy4i1pA8Hp7wnAC+B6Iqpt+UG7DHQiWgJgLu8BElHWwkdzmqxmagqGwILgcqjcHyi85c+V2HpAuVlpV4KARSUe3PlGFe5+qwp7j4kAXySSZCH7/LnZDgLSVaY9QETtlvInlaAQ0SsA5vHuYDVT/sePZIulQASz7YAbt73a3C23qr1DpyUVuKWpyY2vVGDjHtFyO1IhAvvkkextFjPlqUz7mIje7PhDXg3arwBs5N1pUK5x2mNXpy/TJqYglLRtp/XKF3Vo0BAobHIx/O27yG1rJmjPczekL++XYzxNZUoBgDuVBrjF6IyxfvAbAV5VoO+JD6sLvtvonBCwpIKwkZIo4abZNjQ4ZMxb1Kg459azbeiZYcQ739RHdXfjeOLsUxM2vXhz+ljw1/1lACYQ0RGlQdVuFIyx6QCWADArjgM1lz9X3nCw3NtPg8yCMGKQwN0tUBsTRB6De5oOLnw0O51Iuakv/I1AziKi5bx7qLahIKKf4N8eVB4H0j+dk+1MtEj2gCQWhB01BRfKHz0kWcj+8cPZXhXlB4D71JQf6MQAAAARvQ7gfd64xUxDFzyaXUgkMgUFglBABPZ/c7ILLSYMUZn2IRG929m9Am1E9WsA63mDvTMNU56+Nl3V0ggEguDw0i0Zy/tmG6eoTFkLTtCvIwEZACJyArgYwDHenAumJMw8b1LihkDuJxAIusZFpyWunz3OOlNlSimAy4kooH3bgFtREtFxAFcA4B2HKz17fVrewB7Gg4HeUyAQBM6QnsYDT16TNgx8vfUAuJKIjgZ6T029aIloNYD7+eNI+3Rujpxkleq13FcgEKiTZKHGjx7OlomQojLtHiJaqeW+mptRE9E7AP7OGzcbMOizR7OLiCBiygJBEJAI8mdPZBdZTDRYZdrbRMTVS+69uyjTPQC4lqZHhmHyCzeli/JhgSAIvHx7xooeaUa15h6rAfy2K/fukgEgIg+AKwFw1xrnnJow85KpCau7cn+BQODnkmlJ604fZZ2lMuU4gCuIiBebU6XL59EQUSmAy8HpJwhAevzq9NH5fUxqbYkFAgGHvN6m/Y9flToC/IxdJ4CLiYi7O9cZ3TqQiojWAriDPw7bvAeyJNFZWCDQRmqiofbjh7MNREhWmfZrIuLm5wRCt0+kI6KPALzNGzebaODnj+fslSRx2KhAEAgSQV74WNYekwH9Vaa9TkTcDN2An9XdGzRzPwBuJmBWqnTqS7eka9qeEAjilVfvyFiZnWpQC/qp1uhoISgGoDkoeBX8/cYUOXNswqyrZyWtCcbzBIJY5YoZSWunj1TN9DsM4NKuBv06ErRDqYmoDMBF8B84oDjloctSRw/va9wbrGcKBLHEyAHm4rlXpo6CetDvsub+nUEhqKfSExG384h/HEkfPpRjSU+WqoL5XIEg2klNkmreuz/TCn4vfwD4FRFxO3V1haAaAAAgok8AvM4bN0jou3BuziERFBQI/EgSfJ89mr3PZCC1xjqvENG8oD872Dds5iEAS3mDmSnS+FfvyBBBQYEAwF9+lflTVqpBrbXeEgCP6vFsXQwAEXnhTxLaz5sz/RTrrOvOsIlMQUFcc/Ps5FWThlnUMv0OAbi6WaeCjl4eAIioGsClAHjtwuiBS1PGjR1kLtJLBoEgkhk9wLz73ouSx6lMccAf8a/USwbVpqDBgDF2GYB/8p7lk9nRcx4vs9Y0ypl6yyKIHCYOteDs8Qkn/v3Wf+tRZ4+fAtL0ZKn6f8/3sBsk9OVMYQCuIaKFesqhmwfQAhF9AeAV3rhBot4LH805bJCgi4sjiEwG9zTi0mmJJ/5LtOj+LooYDBK8/3ws57CK8gPAS3orPxACA9DMXADf8QYzU6Rxb96d+VOIZBEIwsq792auTrdJY1WmLALwZChkCYkBICIZwHUAuElAk/Mtp9/xi2RhBAQxzS1n21aNH2JRy/Q7AL/rH5Jt8lB5ACCiGgAXAuC2C7vz58kTJuSZd4ZKJoEglIweaN716wtSxqtMaQRwIRGFLFEuZAYAAIioCMDN4B9Sa33n11mpmSmSblFPgSAcZKVIFe/fn5UKIIEzhQG4lYi2h1Cs0BoAACCifwF4kTcuSej9xeM5x03G4BQ7CAThxmiQPAsfyzkmSeipMu15IvpnyIRqJuQGoJknAXzNG0xOlEa9fU+GqBwUxATv3Z+5Ji1JGqMy5X8Ang2VPG0xhuOhRCQzxq6F/wSTEUpzxg+xzLrrvOSV737TMCO00kUGA3sY0TfLiMwUCY1OhmNVXuw87AELwgFsvTIMGNjThHSbBAMBtXYZx6t92HMsOPcf3NOI/jlGpNkkVDfIqKjzoajEE5fHjN92bvJPowaY1IJ+xfBn+oWlNiYsBgAAiKiBMXYpgHWA8gGHt5+bPHHjHveOjcWuU0Irnb6YDIS1r7V6gxv3uHDnG1UwGQhXzUrCJVMTMSD35I+mrMaHT5fZMX9Zo+aDPA0ScMnUJFw+PRF5vU2KcyrqfFi02YkPfmhATaN2bT331ATcdm4yBvU4WfbaRhmLChz4+/cNqKqPD0swKd+y/e7zktUaezTAn+lXGyqZOhL27AvG2IUA/gXOckRmKDv/6TJWVuPrEVrJ9EPJADz49xq8cVcGxgxSPIm9HTsOuXHvO9UBZ871yjDgz3dkcBW/I3Ynw+8X1OL7TY6A5ptNhBdvTsfpo62dzq1ukHHPX6owfogZD1/eavfPf7oMx6tjp0A0O81Q/u2zubIkgfe9ZfB38/0ilHJ1JOwGAAAYY88AeJo33tAkbz/n8bI8l5dZQieVfnQ0AJv2uOBwM0w/xa9AdifD0m0OlFT4YLMSxgwyY/TA9oZh9xEPbn+9Enanus/eN9uIv96Xidw0w4mfeXwMq3e6sPeYBz4ZGJhrxIyRVljNrV8HmQF/+KwOn/+kfvK70UB441cZmJzf/qPZX+rFul0u1DTK6JFuwMxRFmSl+GU4WunDf9c34a5ftPa7jCUDYDRInh9eyClKTZJGq0x7ioieC5lQHCLFABCAz+CvIFRk52HP0hterjgjdFLpR0cD4HSzE8r33UYHXlxYe5JiTxxqwQs3pSMzpdVR+veaJjz3Kd97NBsJ8x7MQn6f1jf/+t0uPPNJLcpq2ytbapKEx65KxexxrbtUPhn45WuV2HaAvyFz2znJuPv8VkV2uBleWliHr9e3bwxlNBDu+kUybjnbBgBocrF26b+xZAA+fjh75Yh+JrXY1X/gd/3DvhYK1y5AO4iIAbgVwA7enBH9TGfce0FKTJ421KL832904MmPahTf6huKXbjv3So43a1jF5+WiFOH8JcMN55pa6f8m/a48Jt3q09SfgCos8uY+4+adoprkICnr0uDxHlNZKca8MtzbCf+LcvAnPerT1J+APD6GN76bz3mLWoEgJjN/f/tpanLO1H+XQBuigTlByLEAAD+oCD85cPcV9rNZ9tOmznSujV0UoWO6gYZv19YqxqF31XiwbvfNrT72bVn2BTnmgyEK2e2dpdyeRie+rgWbi//AYwBL8yvw6Hy1rqsAblGnDZCeW1/weQEmE2tivz5T3as2ql+KvXbX9dj9xGP6pxo5bRh1sLrz0g6TWVKPfxv/og5JyNiDAAAEFEx/N2Feb6g6U93ZPTqmW48HkKxQsKC5fZO1/MAMH+ZHZX1rX+emSOtSLOd/DFOHmZpt1z4Zr0DpTWdu9huL8Pfv2tvZM6fpJy8ds6prT9nDJi3uLHT+/tk4J1vGjqdF23kphrL3vhVeg4AnksmA7i2ORs2YogoAwAARPQDVAKCEiF74ePZlWYjBRaijhJ+3BrYr+P1MXy/sXWuJAGjB5z8neu4mxDo/f1znWhytRqjjgFIwO/CD+rRurzYediNsgAMDACs2ulEdUNEeMBBwWwm5z+fzK6UJMpVmfYEEX0TMqECJOIMQDO/hz8oqEiShUZ98nD2phDKoysON8OhssDbIWzZ3z4od0r/k7f3hvdt/7NdJYG73S4Paze/R7oB6R28jCG9TJDa/KjocOD3l2Wg8GDsZHp/cH/WxiQLqeWq/AvAS6GSRwsRaQCag4K3ASjkzRncyzj9wUtTuKcRRRPHqnyQNWTgHShtbywyUwwnzWmrsHYn05zYc6CsvUJnJLf/qnQ0CEeqtEXwO/4O0cqcK1KWD+9rmq4ypQjAzc3f6YgjIg0AABBRI/zlw9zKwGvPsE2dNTphS+ik0ge7U5tyNjjaz09JPPljTE5sawC0u9sNTe2/r8kdnmFLaB/Fb+rm7xCNTBth3XblTJta0K8GwAVExC2BDzcRawAAgIgOArgGakHB29P79csxcI8kiwa05sh3TAM2KHyKbbfuupLf7+vgkhg67AUStf+3Fg/Gf3/tMkUSvTMNx167K6M31IN+1xHRvhCKpZmINgAAQESLATzGHQcy5s/JabKaiXckWcSTaNW2J56c0P5jq2s6WZvavmG13l/pGQ0dntHRq0i0aPsqJSdEbx6AxUzO+XNz6iSCWiPbOUTEbYMXKUS8AQAAIvojgPm8cauZ8j9+JLsghCIFlbZpuoHQO7P9/BqFiHrbOgGbVYItQdtH3T+nfUFPxxhCxzqEnDRt9++dGbY6tG4z74GsjUlWGq4y5VMi4jbCjSSiwgA0cxsAbuR/UK5x2qNXpkZlUDA1SUKOBiMwsn97r7NIIcLfNtmGCMjvHbjCGSRgeL/WXYSWkt627D3mbbe0yOsVWKFRC0o7F9HAk9emLxvaWzXotxXA7aGSp7tEjQEgIgeAywBwT0a9fEbS9HMnWIN6eGKomHFK4HVOZ3dIwFHK1S880N4ozBzVeaVeC9NGWNsFFpW27OqbZJRUtkbyxw0xB+xljOhnQt/s6PMAzhyTsPni0xLUlL8a/ky/qFmORo0BAAAiOgR/ujBv09nw/E0Zg/vlGA+HUKygcMWMpHb76jxOH23F4J6tyrNprwvlCrn9q4ucaGwTBzh/UmJACkoE3HpO+/TiHzhlwT9ucZ74f7ORcOnUxE7vD/gLiKKNvlnGIy/dljYA/B4aXgCXExH3OLxIJKoMAAAQ0U8AHuGOA+kL5uQ4Ei2Seh1rhJHX29SpYuSmGTD3yva9UxYsV/41m1wM/1nb+iJKs0n47SUpoE5ibzfNtmFUm8zCijoflrRR9LZ8tbapXfT/l+cmtzNOSlw4JTGgvgGRhMVE9gWPZjdIRBkq0x4iIu6BuJFK1BkAACCi1wB8wBu3mJG/4NHsQiJu9+GIwtFc4XfXL5Lxm4tT2hXYtJDfx4R37s1EdmprrGDdLheWbVNWTgB47/vGdt7Bxacl4rkb0xXzBhLMhAcvTcW9F6a0+/krn9fD41P+Mx4q9+LLVa0GKMlKePfeLEwdcfJyhgi4elYSHr86td3vHOkQgc2fm73NalYN+n1CRK+HTKggErV7MYwxK4AVALgtl/6z1r7sd/9Xd3rIhAoQpY5AVfXyieKamkYZK7c7cazahyQLYUQ/E8YNsbTb269plHHjyxU41kkN/YQ8C968OwNmY+vFDjfDmiIXDpT6+/T1zTFi2gjLSVt/X65qwgsL1LtVpSRK+OSR7JN2JnaVeLB5rxt1TTKyUyVMHWFFrwz/nNIaH/6zpgl3RkFDkN9dn77svMkJp6tMKQAwPZrW/W2JWgMAAIyxXgA2Atx2y/JTn9Rt+madXa0vW8hRMgAPv1eD9+7P6tSFBvxbcHe9WYXio4Hl30/Ot+CV2zM01eAvWG7Hn76oCyjBp0e6Ae/emxlQYK++Sca971RjZH9TxLcEO2t8wqaXbkkfC4C3RVMGYCIRRW0iWlQuAVogomPwdxHiVZZIz16Xmjewh/FQCMXqEvVNMn75WiW+3eCAl+NyMwYs3erE1S9VBKz8ALButwuXP1+Obzc4Os3A23HIg7verMLLnwem/ID/jX7dHyvw2Qo7V/aWe9/0SiW2R0EhUL9s48EXb0kfCL7yewBcFc3KD0S5B9ACY+weAG/xxt0+7J8993i23ckiIvzM6wrcQmqShJkjreiTZUBWigF2l4wjlT6sKHQGVNOvRnKChNOGWzCwhxHpNgkmA6GqwYfj1T6s2+XqdEnRGalJEs4YbUX/XCNSEiTU2mWU1vjvfbgiOgqAkixkX/T7HsctZhqiMu0eIno7ZELpREwYAABgjP0NKgkYx6u86y54tnwSY+H/nTszAILwQQT27ydz1vbJNqoV+XxERDeFTCgdieolQAfuAbCSN9gz0zj5+RszloVOHEE08uJN6cs7Uf61AO4IlTx6EzMGgIg8AK4EcJQ359wJ1lkXTUlYHTqpBNHEhVMS1591aoLaKT6l8PfyV298GEXEjAEAACIqhT8oyPuApCevTR+d38cU0SWagtAzpKfxwFPXpg0DXyc8AK4koiMhFEt3YsoAAAARrQVwJ38ctnkPZEnJCVLEdGYVhJckCzV+9HC2TIQUlWm/JiLuEjNaiTkDAABE9CGAd3njZhMNXPhodpFE3EYjgjhBIsj/fCJnp8VEg1WmvUtEfwuZUCEkJg1AM/cB4JYH56Ybprx0a0ZMHjQiCJw/3pa+IjfNMEllyhoA94dKnlAT9i0xPWGM5cKfKdiHN+Xlz+vXLljeqBb1DToSARe3qZyrqPOn/gpCy8VTE9Y9eU36JPD14DiACc0JZzFJTBsAAGCMjQOwCoDi6RaMwX7Dy+XHi0q8akkfghgjr7dp//w52dlE4CWHOQHMIqL1oZQr1MTyEgAAQEQFUA8KJv3jwWxjcqJUHUKxBGEkNdFQ+/HD2QYV5Qf8Qb+YVn4gDgwAABDRxwDe4I2bDDTgi8dzDkqSCArGOhJBnv9o5h6TAf1Vpr1JRO+HTKgwEhcGoJkHAXAbNmSmSOP/dHumCArGOK/embEiN82oVh26CsBDoZIn3MSNASAiL/wHj3IrA2eOtJx+zSybyBSMUa45w7Zm+inWWSpTDsPf0y/yyxWDRNwYAAAgogoAFwPgNW+ghy5PGTd9hHlbCMUShIBJ+ZbtD12aMgb8wLcT/p5+5SEUK+zElQEAACLaAvVijoTX7srqN/0U69ZQySTQl9NHJRS8fU9mPwBqXUtvJ6INoZIpUoj5bUAejLFX4I8L8HD+/fuGDe9+0zAjVDIJggsR2L0XpKy86SzbZABqfddfJaIHQiVXJBHPBsAA4HsAs9XmlVZ719/zdnXuwTKvWtRYEGEM7mE88JdfZ1Zmpxo6awe3BMC5zTGiuCNuDQAAMMYyAawHMKiTqe6iEu/aVz6vzd6y363WHVYQZiYNtWx/4LKU2rxepskAOjt+6CD8Pf24J1DHOnFtAACAMTYawGoASYHM9/jY4aJD7oMb9rip8KAnuaZBTqh3+AI7EUMQNAwS+dKSJEdOumQf1sfcNCHPQsP6mAZJEnoHeIsmANOaY0JxS9wbAABgjF0I4AvwT30RxBYtp/j8J9yChJu42wVQgoi+AvBL+L8YgtjGC+BWofx+hAfQBsbY+QA+BVRzxAXRSx2Aa4jou3ALEikID6ANRPQ1gDFQaS4qiFqWAhgjlL89wgB0gIgOAJgFf9pwUZjFEXSfQgCXEdHPmk+XFrRBLAFUYIwRgNMBXA3g5wD6hlUgQaAcAPAdgPnNp0kLOAgDoAHGWA8AIwBkAUgLsziCVrzwr+/LABQRkThlJUD+H1mjVjgV9mfjAAAAAElFTkSuQmCC;" parent="sJfHZRyvvE6cVOoVh98q-51" vertex="1">
          <mxGeometry x="72.98418087328184" y="18.25999999999999" width="84.03807858565249" height="81.74267812909802" as="geometry" />
        </mxCell>
        <mxCell id="sJfHZRyvvE6cVOoVh98q-65" value="" style="edgeStyle=orthogonalEdgeStyle;html=1;endArrow=block;elbow=vertical;startArrow=block;startFill=1;endFill=1;strokeColor=#ff0000;rounded=0;strokeWidth=5;exitX=1;exitY=0.385;exitDx=0;exitDy=0;exitPerimeter=0;" parent="sJfHZRyvvE6cVOoVh98q-50" source="sJfHZRyvvE6cVOoVh98q-64" edge="1">
          <mxGeometry width="100" relative="1" as="geometry">
            <mxPoint x="530" y="-20" as="sourcePoint" />
            <mxPoint x="710" y="70" as="targetPoint" />
          </mxGeometry>
        </mxCell>
        <mxCell id="sJfHZRyvvE6cVOoVh98q-78" value="" style="group" parent="sJfHZRyvvE6cVOoVh98q-50" vertex="1" connectable="0">
          <mxGeometry x="1040" y="350" width="230" height="220" as="geometry" />
        </mxCell>
        <mxCell id="sJfHZRyvvE6cVOoVh98q-57" value="" style="rhombus;whiteSpace=wrap;html=1;labelBackgroundColor=none;fontColor=#333333;fillColor=#f5f5f5;strokeColor=none;" parent="sJfHZRyvvE6cVOoVh98q-78" vertex="1">
          <mxGeometry width="230" height="220" as="geometry" />
        </mxCell>
        <mxCell id="sJfHZRyvvE6cVOoVh98q-58" value="" style="shape=image;verticalLabelPosition=bottom;labelBackgroundColor=default;verticalAlign=top;aspect=fixed;imageAspect=0;image=data:image/png,iVBORw0KGgoAAAANSUhEUgAAAQAAAAD5CAYAAADImOsDAAAABmJLR0QA/wD/AP+gvaeTAAAgAElEQVR4nO2dd3Qc1fXHv3e2Slr15t5l2cYdN1whmJLQe++hBAIhNJsOAQIJJNQASYCY8sM2AZIQWrCNG+5FtmVbttwtF/W+2j7v98dKVvG80Y60s/V9zuEcrPdm5kq798599917H0EQFzDGcgGcD2A6gLEAegLIBVAPwAHgIICdAJYC+IGIysIjqUAgCBqMsTMZY18xxnwscDyMsS8YY2eGW36BQKARxhgxxi5gjK3RoPQ8ChhjNzLGDOH+vQQCgQqMMalZ8TcFQfE7sr3ZEBjD/XsKBII2MMbMzcq5WwfF78gBxthvGGMJ4f69BYK4hjGW1KyMJSFQ/I6UMcaeYYylhvvvIOg6FG4BBNphjKUD+DWA3wDI1HYtGuodbH9FrdfucsMHAFYLGXJSpVRbgtSfCDaN4lQCeAPAW0RUo/FaQZgRBiCKYP6tvAcA/ApAcqDX+WRWvnKHq+iTJY05W/e7h8lM+XM3SPBOyLPsvmG2rXJyvnmURJShQbwGAG8DeFVsIUYPwgBEAYyx/gAeBnArgIDX3i4P2//eD43HP1pkn+T1ySYtz7QYyXXbOckbbjzL1tdkQH8NlzoAfADgZSI6pOWZgtAjDEAEwxgbDOA+AHcCsAR6ndPNit9f1Fgx74eGKbKMbm3fSQT5/MmJmx66LNWWZKXhGi71AFgA4EUiKuqODAL9EAYgAmGMjQbwEIBrgcAVuKFJLvzzv+qd/13XNIFx3PzuMHtcwuYnrk0zJ1tppIbLZADfAniOiNYHWyZB9xAGIIJgjE0HMAfAedDw2TQ0yYW/m1/n/XGLY5xuwrVh6nBr4ePXpjp7pBkmarx0FYBniGixHnIJtCMMQATQRvHP13CZXFrr2/T0RzVJG/e4R+gkmiqjB5h3P3FtWuXgnsYp0OCpwG8I/gDgayJi+kgnCARhAMIEY0yC/03/BIBJGi717DvuXf/Eh9U9i496B+kjnTaG9TEffvr6tGNDexsnANCSKbgNwJ8A/B8R+fSRTqCGMAAhhjFmAnANgLkAtATVXPuOezfO+aC6z4FSr5aofMjom2U88sS1qfsn5FkmQsNuBYB9AP4I4B9E5NFHOoESwgCECMaYGcDV8L/x8wK/DvZNe12bnvqoNr+s1perm4BBJDNFqnz48tQds8cmjCNCioZLDwF4FcDfiMihk3iCNggDoDOMMRuA2+Dfx+8d8HVA9eICR+GLC+tG19nldN0E1JHUJKnhkStSt51zasIIArT8DuUA3gHwGhHV6iSeAMIA6AZjLBPAvc3/BZxRJzNULtni2PH8/NrxjQ4WcLZfJJNkIfs9FyRvumJGUr4kkRYvph5+Q/AyEVXpJF5cIwxAkGGM5QC4G8D9AAIulPHJOPL5ysb9r/+nYaLLE5uVdiYjuW+Ybdtwx7nJfTRmF9oBvA+/ITiik3hxiTAAQYIxNgDAbwHcDk3putj73g8NZR/+0DDZJ2uKoEctRgPJ159h23jHL2xZFhNp2clwA1gI4HkiKtZJvLhCGIBuwhg7Bf49/GugYQvM6Wa731/UWBmMdN1o5USa8eWpiUkWOkXDpS3ZhU8T0WadxIsLhAHoIoyxsfBX5nU1XXciEykwJ+hidiED8A38HsE6nUSLaYQB0EhX03WrGuXNT31Ua15b5NSSRx93tDEEE6Dt+7kKwB+I6L86iRaTCAMQIIyx2QCeBTBVw2Vyaa1v05Pzamyb97m1JP3EPSMHmIufujatogtpxpsBvATgc5Fm3DnCAKjQJl33KQATNFzq2Xfcu/7xD2t67jnqiYh03Wilf66h5LGr0g5MyLNMhoaSaACFAF4B8CkRefWRLvoRBkCBNum6jwIYpuFS146DnvVz59UMPlbl7aWPdPFJn0zDsSevS9s7Ic8yAUCihkv3w9+y7K9E5NRHuuhFGIA2MMYsAG6CP123b+DXoXHTXtfmpz6syy+r80ZFum60kpEsVT1yRer22WMTxhIFnmcBoBTAawDeJKImncSLOoQBAMAYS4a/3dYc+I/MCgiZseolW5yFLy6oH1PX5EvTTUDBSSRZqPGeC5I3XzHTNkwi5Gi4tBLAXwC8LpqYxrkBYIxlwd9d9z5oyFWXGSq+Xmff+Yd/1k90upkWd1QQZBItkv3XF9g2XTHDlidJgRtv+JuY/gPAS0R0XCfxIp64NADN3XV/C3+efsAK7JNR8vnKxgOvfdUwye1mVt0EFGimJc349nNtvc0GGqDhUheAD+HPJSjRRbgIJq4MAGNsIPw5+ncACFiBXW62971FjXGVrhuttGQXPnJ5anKChbQEcFuamL5ARLt1Ei/iiAsDwBgbBX85rtZ03V1vftVQs3BF4xQ9mmwK9IMI7ILJiRsfuCQlMTlR6kqa8bNEtFEn8SKGmP5SM8bGwb+Vdzk0Ntn887/qnV+tbdLa9FIQgXSjieliAE8R0Ro95IoEYtIAdLHJJiut9W189pO6hPW7RbpuLDJ6oHnX09el1Q/INU6ESDMGEEMGgDFG8Cv8YwCmaLhULq31bXpiXo2tQKTrxgXD+xr3PntDRtngnsbJ0NbEdAv8Lctipolp1BuANum6zwAYr+FS977j3g2P/aO6197j3oG6CCeIaPrlGEoevzrtwIQ8yyRoCAoD2AF/E9OoTzOOWgPQpsnm4wCGarjUvnGPa9MzH9flHa/xatk3FsQoWSlSxeNXpRXPGGUdR6Qpzfgg/NmFUdvENOoMAGMsCcAv4T86q0/g1/nTdZ/4qHZYRa1PS+aYIE5IT6bqOVekFc4elzCGAC2ZnWUA3oX/ZOQ6ncTThagxAG3SdecC6BHodTJD1ZItju2/X1A/tr7JpyV3XBCn2Kxkv/v8LjUxrQLwFoA3iKhaJ/GCSsQbAMZYNoB7APwGGqyyT2bHPl9p3/vGVw0TRLquoCtYjOS69RxbwS1nJ/czSNBS3dkI/xHpfyCiYzqJFxQi1gAwxvoBeBB+dz9gBfb4WMmXP9kPvP6fhskuD9NSPy4QKGI0SJ4bz0paf/u5yT3NBmjp7+AC8BmA3xHRXp3E6xYRZwAYY4Pgf9vfCQ0NIFxutue9RY3l8dxkU6AvbZqYJiVZSMuBrC1pxi8SUZFO4nWJiDEAjLHR8Af2NDXZbHSywj99Uef877qmCSJdVxAqpg63Fj5zfZo3M0XSciR7S5rx74hog06iaSLsCsMYmwZ/YE9Tk02RriuIBLrZxPRpIlqik2gBETYDwBibBH/zxjM0XCaXVvvWPf1JXfLGPSJdVxA5jBts3vPUdWn1/bKN4wBIGi79EcCccBUehdwANO/j/wn+ktxAn+89UOpZ88RHtb12lXgG6yedQNA9hvY2lTx7Q/rRob2NExB4mjED8DaAh0OdUBRSA9Bcj/8NgEBz7l07D3tWPflRzcCDZSJdVxA99M0xHn32uvSDYwaZTkXgacbbAZxHRId1FK0dITMAjLERAJYggCQexph9Q7F7/TP/Vzu8rMYXcNKPQBBp5KQZKh+7OrV4+gjrGCIkBXDJUQA/C9XZhyExAIyx3gDWoPNOu03LCp0bnp9fO6qmQQ74SG2BINJJTZJqnroubdvpo6wT0XleywEA00LRq1B3A8AYMwJYCmC62rzSau+GW1+t6ldW6xNttQUxS490Q9kHD2Qdzu28OclSALOJSNZTHi3Ryq7yMNSV3/fZCvvy854unyiUXxDrlNb4cs97qmzCl6vtK+DPC+BxBvzdqnVFVw+AMdYDQDGAZM4U70uf1W3850q7lgYeAkFMcP3PbGt+e0nKJPAT32oB5BFRpV4y6O0BPAC+8uNv3zWsFcoviFc++bHxtI+XNK5WmZIGnb0A3TwAxpgVwBEAmUrjhQc9K2/+U8UMvZ4vEEQL8+dmrxra2zSNM1wKoB8RefR4tp4ewM/AUX6fjCN3vVmp5bRdgSBm+eWrlWN8MivnDPcAoNuLUk8DcC5v4I2v6g873SxBx2cLBFGD3cVsH/yvcY/KlJ/r9Ww9DcAspR/6ZHb006WNk3V8rkAQdfz9+4bJsoxSzrCiLgUDXQwAYywFgOJpLN9vcu4R9foCQXt8MozLtzt4R5KNZUyfrlZ6eQBTwNnamL+0MeBGngJBPPHpj028ZrUmAJP0eKZeBmCq0g9lmZUWlXiG6PRMgSCqKdjvGiYzxmsmytsl6BZ6GQDFzL8jlb79Oj1PIIh6GANV1Mm83oGKL9XuEnQDwBgzgOOurN7l0mUvUyCIFdbtcvL6AUxtPgUrqOjhAYwBJ/tv8WaHOJBDIFBhcYErnTOUhsD7aASMHgaAt1axbzvgztPheQJBzLCx2JUPfztxJYIeB9DDACiuVWoa5WKfrOkkVoEg7nB5maWhSeYlBUWFAVAUcss+V1SdmSYQhIvth9xVnKHINgDNnX8Uu/4s3uKwBfNZAkGssmSri9dDcDBjLKgnWgfbA+AVLcirdrjE/r9AEADLtjXlwd8pWInTgvmsYK/JFV0Ul5vta3AwEQCMEEwGwrghZkwb4T95bdVOFwr2uuHx8b5zglBS08AyPD4cNBkwQGF4GoAvg/WsYBsAxQBg8THvcQDCAISRjGQJU4dbMWOkBVOGWWBLaHX+rv+ZDU43w9YDbqzc7sSPW50oq/GFUVrBgVLPkaG9TQMUhoIaBwiaAWg+8GO00tiybQ5R/BNiJAnI723CzFFWzBhpxbA+JpBK+xermTA534LJ+RY8dFkqjlb6sHKHEysKndi01w2v8A5CysrtTgztbVIaGs8YSySipmA8J2gdgRhjZwJYrDR28XNlh0vKff2C9SyBMqlJEiYO9SvxrFFWZKYEJ8RT3yRj/W4X1u12YeV2FyrqhHegN/l9jPs/nZPDO4p8FhGtCMZzgrkEUHRNZIZyofz6MbinETNGWjEp34IJeRYYdNjYTUmUMHtcAmaPS4DMgN1HPFi3y4WVO5zYtt8NWTgHQaf4qHcgA2oIUMoMnAogOgzAsWrfPgAiBThIJJgJE4daMGOkFdNPsSAnLbSrK4mA4X1NGN7XhJvPsqG2UcbGPX7PYMV2J+qbdG1jHzcwBiqv9e3lnB8QtDhAUAxAc5GCYpeftTud7mA8I57pnWXAzJH+tfz4IWaYDGE/1f0EabY23oEM7D7qwcrt/tjBriMeMOEddJmNe9z28yYqds6bxhiTgnFoSLA8gFEAUpUGFm1xZQXpGXGDxUQYO8iMmaOsmDXKip4Z0RFDlaRW7+COnyejukHGmiK/Z7CmyAm7U1gDLSze7EjnGIB0APkAirr7jGAZAF6tsmPrfpfY/guA3lkGTM63YOZIKybnW2A2Rc5bvqtkJEs4b1ICzpuUAJ8MbD/oxopm72B/qTfc4kU863a7hgJwAzArDE9DBBkAxTVJnZ3t9njZ2CA9I6YwSMCogWbMOMWKycMsGN5XccsnZjBIwJhBZowZZMa9F6bgaKWveVfBibW7XXB7hHfQEZeHJTQ62Q6blZT6a04D8F53n6GrAdiy31UbpPvHBG2TcU4bbkWSNfrf8l2ld5YBl2Yl4tJpiXB5GLbs9ychLd3qRKlIQjrBzoPuyknDLEpDQQkEdtsAMMZ6AYopi1iyxRnIeegxi9ZknHjFYuInIW2O8xTlH7c5LRwDkMcY60FEvFbiAdHtryNj7AoAnykN/WxuaW2dXeZ1OIlJ0mwSJuRZmqP2FqQkhuIA5tjF4WbYWOwPJP60w4Xy2vjyDrJSpIr/vdAjmzN8CRH9uzv3D8YSQDEA6PKw/XV2eXAQ7h/RSATk9zFh8jC/0o8aaIYk3vJBI8FMmNG8BQoA+0u9WFHoxPrdLmzc44IvxtMOKuvlbI+PHTYZSCmZbhqAsBsAxbXIvuPeYwBi0gAkWggT8izNX0wLslOjY5suFhjUw4hBPWxxlYR0qMxbMqSXiWcAukW3DABjLAH+JqAnsWybMybfgwlmwqXTkjBrlBVjBpl1Sb0VBEaaTcIZYxKQkWxAmk3CFz/Z4XDHXrxg5XanPKQXtzDISkTOrt67W0rKGDsdwFKlsctfKD94oNQ7oDv3j3TCnZYbr8TLm7+F4X1Nez95JJvXUGc6Ea3q6r27uwTgFQBVHij19u/mvSMeh5v5E1u2+w1wKApz4pF4L0DadcQzWKUwaBqAyDIApTW+vQDiLgV433Ev9h1vxLxFjWI3oJs0uRg27fG/4eO9BJkxUGWdb292avALg7psABhjBE4B0LpdTl5f87ihtlHG4gIHFhc4RD5AgIgmJHw2FLubfqFcFzCVMUZE1KU/Vnc8gBEAMpQGFm12ZnbjvhGNJAGyxiWnLANFJR4UlXjw128bVNtzxRPBbkPWlc8mWlhc4EjjGIAsAEMB8I4WV6U7BoDneri27IvdE4AumpKIW85KPvGm6spedHWDjK/XN+Hr9U1xVxPQrgZglwtub9ff8i05GC2e1ec/2fHv1UHplBVxrN3VaWFQZBiAhiZ5t8vLFHsDxgq9swy4elYSrp6VhDq7jA3F/oj08kInGhzarIFPBrbsc2PLPjfe/AronWnA5GH+tNipI6xItET3WsHtYSjY78b63f6/z4FuVgG23XmZOcqCrJTWnZfo/kup4/KwBLuL7Uyy0AiF4WkAPujKfYNuALYdcPPON49JUpPaN8Qo7GbJ69EqH75c1YQvVzWd6AswKd+C00dbMSA3Ok5WO1btw9oifw/B1TudaHJ1by3fYhRnjrRiynBLRDVECSVFh90VE/KCWxjUpW8UYywXnCy/JVudiV0VJtqRVEpe1xS5NBe1uDwM65qbcb75VX3EdgYKdicgSQJGx9GyKFB+LHBaOAZgKGMsm4gqtN6zq68UnsVhK7c7YzL9tyu0LXltW9SyvNCJqnrt0aqjlT7MX2bH/GX2dq7wtFMsyA1xElJNo4xNe7q+9OlISqKESfli21SNHwudgx65UrHxFsF/YtBXWu/ZVQOgWADk9rGD1Q3ywC7eM6ZpW9Ty6FX+xJbuvDHVkpBOHWKGMcjeQcdknK373d3u99fWo9FD5lijotaX45NRYpAUz9+cihAaAOUCoGPeowCEAeiEtp117/h58ok1c3ci422TkNqeD9AxUKaFlgDnut0urCh0obK+e9t0bXc8oimmEUkcLPMeHtzTqGQAuhQH0PwJMMYsAMYpjf20Q3R97Aq9Mgy4dJp/qdB2b3zJFmeX6t/r7K1JSC8ubF+uPHqgWTUJqW25bTCScdJsEqaPEF2QgsWqnS7f4J6KajuRMWYhIk1JeF0xwZMAKEYilhQ4enfhfoI2dDyiq0Uhu+p2y6w1CWneokak2ySc2pyiPHOUBUYDnYhNrNrhQlkQGm60LEdEf4Tgs2izo+eNZyo22rIAGA9gjZb7dcUAKLoaDKjee9wr3P8g07b+vW2b7a5ur9W0SVFuWXN39y3fto35GaOtyE0XVZF6savEPZgx1BEptuGfhhAYAMUAYHmtby9jmNSF+wkCpG2b7ZYEm+400uyO4rdNZ46FhKVoQWaQqup9e7JSDRMUhqcBeEXL/TQZgOYCoClKY+t2OR1a7iXoHmaVRpp6tMrqmHYrCprCx8Y9nsZzJyh6WdO1FgZp9QDyASg2KFxc4Iqr5p+RBi89eVmhE41d3KO3mgmThorWZ5HG4oKmtHMnWJWGsgAMAbAn0HtpNQC8rQb3xj3iBKBIgZeeHEguftu028nDLDAbxWs+0li3250HwAtl/Z2GUBuAhia52OVhIzXeSxACOqYnf7vBgSc/qlGc+9yN6eCUnAoiiCaXnNTkYkWJFhquMDwNwLxA76U131LRAOw47KnUeB9BmEi38T/yjGSRfhst7Dzs5uX9a0oICvgTZ4xlAVB083/c0iReG1GCWh6BOMo7elhW6OJVSA1jjCk26lFCi8mfCk7J9YodbrH/HyWo6bgwANHDjwWOQZyhlsKggNBiABRdC48PhypqfTka7iMIJypaLvQ/eiir9eX6ZHaUMxzwMqDbBuBgmbdEwz0EYUZVyYULEFUcKvMd4gwF1wA0FwCdqjS2crszRtswxiaqMYDQiSEIAquLnLw93YmMMaXegScRqAdwKgDFzIMlBY5eAd5DEAGIGEDssKjA2YMzlABOxW5HAjUAygVADHXFRz28YIRAINCRnYfcQxhDPWc4oGVAoAZAsQCost5XLDPNuQSCMCKWALGDzCBVN8i8rL+gGgDFAqCNxW57gNcLIgSRBxBbbN7nbuAMBccAMMbyACiuNRZtdogCoBhCGIDo44fNDsUuoQByGWOdNugNxAPgWRLPumJRABRtCCWPLdYWuYbCXxikRKdeQJcNgN3Fip1uFrdnAEQrYhcgtmhyyUkOF9vLGQ6KAVAMAO486BYFQFGICALGHkUl7nLOkKLutkXVADDG0gEMUxpbutWp2BhUENkwFTUXHkB0snwbtzDolM4KgzrzAKby5izf4RzQuWiCiEPVAxAWIBpZvNXBK8YjAJPVru3MACiuIXwySkqrfbwsJEEEo/qWF/oflZRW+3rIMo5xhlXjAF0yAAfLvIcDEUwgEISGwxXeLhUGcQ0AY8wEQKn1MFbtdHX/9AhBWBC7ALHJ6p1OD2doslphkJoHMB6A4jbfki0O4f5HKWIXIDZZVODk9eRIADCGd52aAVDcQmAMDTsPu8UR4FGK8ABik+2H3HmMQXNasJoBULyoql4ulmWIBvHRivAAYhJZhqHarr0wSLMHsGkvt/hAEAWodwQKlRQCPSjY6+aVBk/nXaNoABhjgwD0VBpbVMAtPhBEASIGELssKnCkcIZ6MMYUcwV4HgDPZfCu3+UcqlkyQcQgyoFjlzU7nEMB8HboFHWaZwAU3f8mF9tjdzHFw8kF0YFIBY5d7C5mc7q5hUGKOq3JA9hVwj2NRBAtiFTgmGbXEXcZZygwD4AxlgJghNLkpducvKIDgUAQASzd5uKd9zmSMXZS/E7JA5gKKG/zLdvm6t8N2QQRgNgFiG2WbnEM4AxJUGjtp2QAOAVA7NixKq9oAR7liF2A2OZola+XLOM4Z/gk3Q7YAJRU+A52Qy5BhCAyAWOfI5Xeg5whdQPAGDMCmKh05aqd3FNIBFGE8ABin1VFqoVB7WIEHT2AMQBsSlcu5hcbCKIJkQcQ8ywpcGZzhpLQoTCoowHgnQBk33HIPSQIsgnCjAgCxj7bDrjzGAPvzI52Oh6QAai2y7t9MnjbC4IoQiwBYh+fDGOtXS7mDKsaAMVsIZUiA0GUITIB44Mt+9x1nKF2hUEnDABjrD+APkpXqBQZCASCCGRRgSOZM9SrWdcBtPcAeAVAvrVFLrH+jxHUlwDCBYgVflIvDDrh6UtKP2yL0832Njpk4QHECmIXIC6wO1myy832cYZPvOw79QCKj3p5xQVxSWmND25v9GpKrCYCub0MpTWiV21bio96SzlD7Q0AYywZwCilmUu3OkT0vw1rily4+Hfl+HJVE+QoVJhoVnIlGAMWFzhw+QvlWFPkCrc4EcWybU5e675RLYVBLR7AFHAKgH7c6hQFQB0oq/HhhQW1uOmVCmza6w63OJqIJQ+g8KAbt71WiTkf1OBopXj7d2TJFgdPdw0AJgE4sbev6P7LMis7UuntrYNsMcHOwx7c8XolJudb8OBlqRjcM/KdpVjIAzhU7sXbXzdgyRZH1BmtUFJS6e0jyzguSYrt/aYBWNTiASgGAI9U+vbrJl0MsW63C9e8VI4XFtSiukEOtzhdJtKVqc4u482v6nH1ixVYXCCUPxCOVakXBhkZYyfcgY6s4RcVCDrgk4EvVzXh+40O3HCmDTfNtsFionCLdRLRqDQeH8MXPzXhnW8a0OiIXgMbDlYXOT1XZiuW90xhjBklACMBKHb6/XGrM0tP4WKRJhfDX79twCUtgcII+75GU1PQlgDfZc+V4+XP64Tyd4ElW7g6bAMwygh+z3DvtkOeQfqIFfuU1foDhQuWN+I3F6Vg2inWcIsUVWwoduG1f9djV4lwQrtDsw77oBzkn2YEx/33+HDE7WYDdJQtLth33Iv73q3G5HwLfntJCvJ6h7etYqTXArQE+BYXOMItSkzgdjOrx8dKTAbqqzA80QhgtNKFThcTJwAFkXW7Xbj2DxX4xcRE3HdRCjJTOjuZXR8iNRW4tlHGe/9rwGcr7PAJTz+ouD2wm5QzAk4xAlCyDJAZN49Y0EVkBny9vglLtjhw1awk3HZOMhItkRMoDIcH4HQzLFhuxwc/NMDujAAXJAZhAG8d1c8IIE1pxGiEaAGuEw43w7xFjfhmvQN3/DwZF5+WCClEDkEkuPmA3xj+uMWB1/5dj+PV4l2jJyYJvABUihGcAEGCmXhthQRBoqLOHyicv6wR912Ughkj9Q8URkIm4Prd/gDf7iMiwBcKzGbi7QTIRgB1AE5SdomQnW6Tqmoa5UxdpRNgf6kX9//VHyi8/5IUDNUxUBjOTMADpV68+60I8IWS3FRjGQG5nOFaCcBBziCdMTaBd964QAfW7Xbhuj9U4OmPa1FZr49bHI48gNpGGa98UYcrXywXyh9izppg5ZUEA8B+CcAW3uiVMxJFK/AQ0xIovOjZcrz5VX1IA2PBNgDO5ljHhc+WYf4ye8QlRcUDl5yWqDZcKAFYwRsd0tM0NjlB4vUWE+hIW+VZsDx4W2OhWOfLDPhmvSMsRkzQSnoyVQ/INY5XmbJEAvBfAIqF1ESwPXRZaoEu0gkCorZRxsuf1+HK30eH+9yyjHnq4xrdljGCwJh7Rdo2gLsD0ATgB4mI6gB8wbvJeZMSxmelSuV6CCgInINlXsz5oAa/equqW9FzvXYB9pd68Zt3q3H3W1UoPiqi++EmN91QOntcguIpX80sIKL6lt3nl8H5bhAh5cMHsvbxxgWhZf1uF67/YwXmfFCDY13YP2cqWt6VD7i8uebhqhfL8dMOZxfuIAg2RGAfPph9FP6TgJTwAfgz0NwRiIi2APiQd8MeGcbTHroshRsrEIQWuTnM9WUAABcOSURBVLlK7ooX/GtsLVVy6h5A4CagJZnpsucjs+oxnnni6tQV2anSqSpT3ieiHUD7pqCPANxjhXHN6baps0YmiHhABNEaKCwPPFDYzTyA1gBfGd78qh5NLuEYRhJnjU/cfPHUJF6FLwCUAJjT8o8TBoCIKgDcAH4vcdMrd6T17ZNlKAmKpIKgUWf3BwqveKHzQKHqS74TXfZ3PvIH+KrqxSs/0uifbTzy4i1pA8Hp7wnAC+B6Iqpt+UG7DHQiWgJgLu8BElHWwkdzmqxmagqGwILgcqjcHyi85c+V2HpAuVlpV4KARSUe3PlGFe5+qwp7j4kAXySSZCH7/LnZDgLSVaY9QETtlvInlaAQ0SsA5vHuYDVT/sePZIulQASz7YAbt73a3C23qr1DpyUVuKWpyY2vVGDjHtFyO1IhAvvkkextFjPlqUz7mIje7PhDXg3arwBs5N1pUK5x2mNXpy/TJqYglLRtp/XKF3Vo0BAobHIx/O27yG1rJmjPczekL++XYzxNZUoBgDuVBrjF6IyxfvAbAV5VoO+JD6sLvtvonBCwpIKwkZIo4abZNjQ4ZMxb1Kg459azbeiZYcQ739RHdXfjeOLsUxM2vXhz+ljw1/1lACYQ0RGlQdVuFIyx6QCWADArjgM1lz9X3nCw3NtPg8yCMGKQwN0tUBsTRB6De5oOLnw0O51Iuakv/I1AziKi5bx7qLahIKKf4N8eVB4H0j+dk+1MtEj2gCQWhB01BRfKHz0kWcj+8cPZXhXlB4D71JQf6MQAAAARvQ7gfd64xUxDFzyaXUgkMgUFglBABPZ/c7ILLSYMUZn2IRG929m9Am1E9WsA63mDvTMNU56+Nl3V0ggEguDw0i0Zy/tmG6eoTFkLTtCvIwEZACJyArgYwDHenAumJMw8b1LihkDuJxAIusZFpyWunz3OOlNlSimAy4kooH3bgFtREtFxAFcA4B2HKz17fVrewB7Gg4HeUyAQBM6QnsYDT16TNgx8vfUAuJKIjgZ6T029aIloNYD7+eNI+3Rujpxkleq13FcgEKiTZKHGjx7OlomQojLtHiJaqeW+mptRE9E7AP7OGzcbMOizR7OLiCBiygJBEJAI8mdPZBdZTDRYZdrbRMTVS+69uyjTPQC4lqZHhmHyCzeli/JhgSAIvHx7xooeaUa15h6rAfy2K/fukgEgIg+AKwFw1xrnnJow85KpCau7cn+BQODnkmlJ604fZZ2lMuU4gCuIiBebU6XL59EQUSmAy8HpJwhAevzq9NH5fUxqbYkFAgGHvN6m/Y9flToC/IxdJ4CLiYi7O9cZ3TqQiojWAriDPw7bvAeyJNFZWCDQRmqiofbjh7MNREhWmfZrIuLm5wRCt0+kI6KPALzNGzebaODnj+fslSRx2KhAEAgSQV74WNYekwH9Vaa9TkTcDN2An9XdGzRzPwBuJmBWqnTqS7eka9qeEAjilVfvyFiZnWpQC/qp1uhoISgGoDkoeBX8/cYUOXNswqyrZyWtCcbzBIJY5YoZSWunj1TN9DsM4NKuBv06ErRDqYmoDMBF8B84oDjloctSRw/va9wbrGcKBLHEyAHm4rlXpo6CetDvsub+nUEhqKfSExG384h/HEkfPpRjSU+WqoL5XIEg2klNkmreuz/TCn4vfwD4FRFxO3V1haAaAAAgok8AvM4bN0jou3BuziERFBQI/EgSfJ89mr3PZCC1xjqvENG8oD872Dds5iEAS3mDmSnS+FfvyBBBQYEAwF9+lflTVqpBrbXeEgCP6vFsXQwAEXnhTxLaz5sz/RTrrOvOsIlMQUFcc/Ps5FWThlnUMv0OAbi6WaeCjl4eAIioGsClAHjtwuiBS1PGjR1kLtJLBoEgkhk9wLz73ouSx6lMccAf8a/USwbVpqDBgDF2GYB/8p7lk9nRcx4vs9Y0ypl6yyKIHCYOteDs8Qkn/v3Wf+tRZ4+fAtL0ZKn6f8/3sBsk9OVMYQCuIaKFesqhmwfQAhF9AeAV3rhBot4LH805bJCgi4sjiEwG9zTi0mmJJ/5LtOj+LooYDBK8/3ws57CK8gPAS3orPxACA9DMXADf8QYzU6Rxb96d+VOIZBEIwsq792auTrdJY1WmLALwZChkCYkBICIZwHUAuElAk/Mtp9/xi2RhBAQxzS1n21aNH2JRy/Q7AL/rH5Jt8lB5ACCiGgAXAuC2C7vz58kTJuSZd4ZKJoEglIweaN716wtSxqtMaQRwIRGFLFEuZAYAAIioCMDN4B9Sa33n11mpmSmSblFPgSAcZKVIFe/fn5UKIIEzhQG4lYi2h1Cs0BoAACCifwF4kTcuSej9xeM5x03G4BQ7CAThxmiQPAsfyzkmSeipMu15IvpnyIRqJuQGoJknAXzNG0xOlEa9fU+GqBwUxATv3Z+5Ji1JGqMy5X8Ang2VPG0xhuOhRCQzxq6F/wSTEUpzxg+xzLrrvOSV737TMCO00kUGA3sY0TfLiMwUCY1OhmNVXuw87AELwgFsvTIMGNjThHSbBAMBtXYZx6t92HMsOPcf3NOI/jlGpNkkVDfIqKjzoajEE5fHjN92bvJPowaY1IJ+xfBn+oWlNiYsBgAAiKiBMXYpgHWA8gGHt5+bPHHjHveOjcWuU0Irnb6YDIS1r7V6gxv3uHDnG1UwGQhXzUrCJVMTMSD35I+mrMaHT5fZMX9Zo+aDPA0ScMnUJFw+PRF5vU2KcyrqfFi02YkPfmhATaN2bT331ATcdm4yBvU4WfbaRhmLChz4+/cNqKqPD0swKd+y/e7zktUaezTAn+lXGyqZOhL27AvG2IUA/gXOckRmKDv/6TJWVuPrEVrJ9EPJADz49xq8cVcGxgxSPIm9HTsOuXHvO9UBZ871yjDgz3dkcBW/I3Ynw+8X1OL7TY6A5ptNhBdvTsfpo62dzq1ukHHPX6owfogZD1/eavfPf7oMx6tjp0A0O81Q/u2zubIkgfe9ZfB38/0ilHJ1JOwGAAAYY88AeJo33tAkbz/n8bI8l5dZQieVfnQ0AJv2uOBwM0w/xa9AdifD0m0OlFT4YLMSxgwyY/TA9oZh9xEPbn+9Enanus/eN9uIv96Xidw0w4mfeXwMq3e6sPeYBz4ZGJhrxIyRVljNrV8HmQF/+KwOn/+kfvK70UB441cZmJzf/qPZX+rFul0u1DTK6JFuwMxRFmSl+GU4WunDf9c34a5ftPa7jCUDYDRInh9eyClKTZJGq0x7ioieC5lQHCLFABCAz+CvIFRk52HP0hterjgjdFLpR0cD4HSzE8r33UYHXlxYe5JiTxxqwQs3pSMzpdVR+veaJjz3Kd97NBsJ8x7MQn6f1jf/+t0uPPNJLcpq2ytbapKEx65KxexxrbtUPhn45WuV2HaAvyFz2znJuPv8VkV2uBleWliHr9e3bwxlNBDu+kUybjnbBgBocrF26b+xZAA+fjh75Yh+JrXY1X/gd/3DvhYK1y5AO4iIAbgVwA7enBH9TGfce0FKTJ421KL832904MmPahTf6huKXbjv3So43a1jF5+WiFOH8JcMN55pa6f8m/a48Jt3q09SfgCos8uY+4+adoprkICnr0uDxHlNZKca8MtzbCf+LcvAnPerT1J+APD6GN76bz3mLWoEgJjN/f/tpanLO1H+XQBuigTlByLEAAD+oCD85cPcV9rNZ9tOmznSujV0UoWO6gYZv19YqxqF31XiwbvfNrT72bVn2BTnmgyEK2e2dpdyeRie+rgWbi//AYwBL8yvw6Hy1rqsAblGnDZCeW1/weQEmE2tivz5T3as2ql+KvXbX9dj9xGP6pxo5bRh1sLrz0g6TWVKPfxv/og5JyNiDAAAEFEx/N2Feb6g6U93ZPTqmW48HkKxQsKC5fZO1/MAMH+ZHZX1rX+emSOtSLOd/DFOHmZpt1z4Zr0DpTWdu9huL8Pfv2tvZM6fpJy8ds6prT9nDJi3uLHT+/tk4J1vGjqdF23kphrL3vhVeg4AnksmA7i2ORs2YogoAwAARPQDVAKCEiF74ePZlWYjBRaijhJ+3BrYr+P1MXy/sXWuJAGjB5z8neu4mxDo/f1znWhytRqjjgFIwO/CD+rRurzYediNsgAMDACs2ulEdUNEeMBBwWwm5z+fzK6UJMpVmfYEEX0TMqECJOIMQDO/hz8oqEiShUZ98nD2phDKoysON8OhssDbIWzZ3z4od0r/k7f3hvdt/7NdJYG73S4Paze/R7oB6R28jCG9TJDa/KjocOD3l2Wg8GDsZHp/cH/WxiQLqeWq/AvAS6GSRwsRaQCag4K3ASjkzRncyzj9wUtTuKcRRRPHqnyQNWTgHShtbywyUwwnzWmrsHYn05zYc6CsvUJnJLf/qnQ0CEeqtEXwO/4O0cqcK1KWD+9rmq4ypQjAzc3f6YgjIg0AABBRI/zlw9zKwGvPsE2dNTphS+ik0ge7U5tyNjjaz09JPPljTE5sawC0u9sNTe2/r8kdnmFLaB/Fb+rm7xCNTBth3XblTJta0K8GwAVExC2BDzcRawAAgIgOArgGakHB29P79csxcI8kiwa05sh3TAM2KHyKbbfuupLf7+vgkhg67AUStf+3Fg/Gf3/tMkUSvTMNx167K6M31IN+1xHRvhCKpZmINgAAQESLATzGHQcy5s/JabKaiXckWcSTaNW2J56c0P5jq2s6WZvavmG13l/pGQ0dntHRq0i0aPsqJSdEbx6AxUzO+XNz6iSCWiPbOUTEbYMXKUS8AQAAIvojgPm8cauZ8j9+JLsghCIFlbZpuoHQO7P9/BqFiHrbOgGbVYItQdtH3T+nfUFPxxhCxzqEnDRt9++dGbY6tG4z74GsjUlWGq4y5VMi4jbCjSSiwgA0cxsAbuR/UK5x2qNXpkZlUDA1SUKOBiMwsn97r7NIIcLfNtmGCMjvHbjCGSRgeL/WXYSWkt627D3mbbe0yOsVWKFRC0o7F9HAk9emLxvaWzXotxXA7aGSp7tEjQEgIgeAywBwT0a9fEbS9HMnWIN6eGKomHFK4HVOZ3dIwFHK1S880N4ozBzVeaVeC9NGWNsFFpW27OqbZJRUtkbyxw0xB+xljOhnQt/s6PMAzhyTsPni0xLUlL8a/ky/qFmORo0BAAAiOgR/ujBv09nw/E0Zg/vlGA+HUKygcMWMpHb76jxOH23F4J6tyrNprwvlCrn9q4ucaGwTBzh/UmJACkoE3HpO+/TiHzhlwT9ucZ74f7ORcOnUxE7vD/gLiKKNvlnGIy/dljYA/B4aXgCXExH3OLxIJKoMAAAQ0U8AHuGOA+kL5uQ4Ei2Seh1rhJHX29SpYuSmGTD3yva9UxYsV/41m1wM/1nb+iJKs0n47SUpoE5ibzfNtmFUm8zCijoflrRR9LZ8tbapXfT/l+cmtzNOSlw4JTGgvgGRhMVE9gWPZjdIRBkq0x4iIu6BuJFK1BkAACCi1wB8wBu3mJG/4NHsQiJu9+GIwtFc4XfXL5Lxm4tT2hXYtJDfx4R37s1EdmprrGDdLheWbVNWTgB47/vGdt7Bxacl4rkb0xXzBhLMhAcvTcW9F6a0+/krn9fD41P+Mx4q9+LLVa0GKMlKePfeLEwdcfJyhgi4elYSHr86td3vHOkQgc2fm73NalYN+n1CRK+HTKggErV7MYwxK4AVALgtl/6z1r7sd/9Xd3rIhAoQpY5AVfXyieKamkYZK7c7cazahyQLYUQ/E8YNsbTb269plHHjyxU41kkN/YQ8C968OwNmY+vFDjfDmiIXDpT6+/T1zTFi2gjLSVt/X65qwgsL1LtVpSRK+OSR7JN2JnaVeLB5rxt1TTKyUyVMHWFFrwz/nNIaH/6zpgl3RkFDkN9dn77svMkJp6tMKQAwPZrW/W2JWgMAAIyxXgA2Atx2y/JTn9Rt+madXa0vW8hRMgAPv1eD9+7P6tSFBvxbcHe9WYXio4Hl30/Ot+CV2zM01eAvWG7Hn76oCyjBp0e6Ae/emxlQYK++Sca971RjZH9TxLcEO2t8wqaXbkkfC4C3RVMGYCIRRW0iWlQuAVogomPwdxHiVZZIz16Xmjewh/FQCMXqEvVNMn75WiW+3eCAl+NyMwYs3erE1S9VBKz8ALButwuXP1+Obzc4Os3A23HIg7verMLLnwem/ID/jX7dHyvw2Qo7V/aWe9/0SiW2R0EhUL9s48EXb0kfCL7yewBcFc3KD0S5B9ACY+weAG/xxt0+7J8993i23ckiIvzM6wrcQmqShJkjreiTZUBWigF2l4wjlT6sKHQGVNOvRnKChNOGWzCwhxHpNgkmA6GqwYfj1T6s2+XqdEnRGalJEs4YbUX/XCNSEiTU2mWU1vjvfbgiOgqAkixkX/T7HsctZhqiMu0eIno7ZELpREwYAABgjP0NKgkYx6u86y54tnwSY+H/nTszAILwQQT27ydz1vbJNqoV+XxERDeFTCgdieolQAfuAbCSN9gz0zj5+RszloVOHEE08uJN6cs7Uf61AO4IlTx6EzMGgIg8AK4EcJQ359wJ1lkXTUlYHTqpBNHEhVMS1591aoLaKT6l8PfyV298GEXEjAEAACIqhT8oyPuApCevTR+d38cU0SWagtAzpKfxwFPXpg0DXyc8AK4koiMhFEt3YsoAAAARrQVwJ38ctnkPZEnJCVLEdGYVhJckCzV+9HC2TIQUlWm/JiLuEjNaiTkDAABE9CGAd3njZhMNXPhodpFE3EYjgjhBIsj/fCJnp8VEg1WmvUtEfwuZUCEkJg1AM/cB4JYH56Ybprx0a0ZMHjQiCJw/3pa+IjfNMEllyhoA94dKnlAT9i0xPWGM5cKfKdiHN+Xlz+vXLljeqBb1DToSARe3qZyrqPOn/gpCy8VTE9Y9eU36JPD14DiACc0JZzFJTBsAAGCMjQOwCoDi6RaMwX7Dy+XHi0q8akkfghgjr7dp//w52dlE4CWHOQHMIqL1oZQr1MTyEgAAQEQFUA8KJv3jwWxjcqJUHUKxBGEkNdFQ+/HD2QYV5Qf8Qb+YVn4gDgwAABDRxwDe4I2bDDTgi8dzDkqSCArGOhJBnv9o5h6TAf1Vpr1JRO+HTKgwEhcGoJkHAXAbNmSmSOP/dHumCArGOK/embEiN82oVh26CsBDoZIn3MSNASAiL/wHj3IrA2eOtJx+zSybyBSMUa45w7Zm+inWWSpTDsPf0y/yyxWDRNwYAAAgogoAFwPgNW+ghy5PGTd9hHlbCMUShIBJ+ZbtD12aMgb8wLcT/p5+5SEUK+zElQEAACLaAvVijoTX7srqN/0U69ZQySTQl9NHJRS8fU9mPwBqXUtvJ6INoZIpUoj5bUAejLFX4I8L8HD+/fuGDe9+0zAjVDIJggsR2L0XpKy86SzbZABqfddfJaIHQiVXJBHPBsAA4HsAs9XmlVZ719/zdnXuwTKvWtRYEGEM7mE88JdfZ1Zmpxo6awe3BMC5zTGiuCNuDQAAMMYyAawHMKiTqe6iEu/aVz6vzd6y363WHVYQZiYNtWx/4LKU2rxepskAOjt+6CD8Pf24J1DHOnFtAACAMTYawGoASYHM9/jY4aJD7oMb9rip8KAnuaZBTqh3+AI7EUMQNAwS+dKSJEdOumQf1sfcNCHPQsP6mAZJEnoHeIsmANOaY0JxS9wbAABgjF0I4AvwT30RxBYtp/j8J9yChJu42wVQgoi+AvBL+L8YgtjGC+BWofx+hAfQBsbY+QA+BVRzxAXRSx2Aa4jou3ALEikID6ANRPQ1gDFQaS4qiFqWAhgjlL89wgB0gIgOAJgFf9pwUZjFEXSfQgCXEdHPmk+XFrRBLAFUYIwRgNMBXA3g5wD6hlUgQaAcAPAdgPnNp0kLOAgDoAHGWA8AIwBkAUgLsziCVrzwr+/LABQRkThlJUD+H1mjVjgV9mfjAAAAAElFTkSuQmCC;" parent="sJfHZRyvvE6cVOoVh98q-78" vertex="1">
          <mxGeometry x="31.700000000000045" y="100" width="84.03807858565249" height="81.74267812909802" as="geometry" />
        </mxCell>
        <mxCell id="sJfHZRyvvE6cVOoVh98q-59" value="" style="shape=image;verticalLabelPosition=bottom;labelBackgroundColor=default;verticalAlign=top;aspect=fixed;imageAspect=0;image=data:image/png,iVBORw0KGgoAAAANSUhEUgAAAQAAAAD5CAYAAADImOsDAAAABmJLR0QA/wD/AP+gvaeTAAAgAElEQVR4nO2dd3Qc1fXHv3e2Slr15t5l2cYdN1whmJLQe++hBAIhNJsOAQIJJNQASYCY8sM2AZIQWrCNG+5FtmVbttwtF/W+2j7v98dKVvG80Y60s/V9zuEcrPdm5kq798599917H0EQFzDGcgGcD2A6gLEAegLIBVAPwAHgIICdAJYC+IGIysIjqUAgCBqMsTMZY18xxnwscDyMsS8YY2eGW36BQKARxhgxxi5gjK3RoPQ8ChhjNzLGDOH+vQQCgQqMMalZ8TcFQfE7sr3ZEBjD/XsKBII2MMbMzcq5WwfF78gBxthvGGMJ4f69BYK4hjGW1KyMJSFQ/I6UMcaeYYylhvvvIOg6FG4BBNphjKUD+DWA3wDI1HYtGuodbH9FrdfucsMHAFYLGXJSpVRbgtSfCDaN4lQCeAPAW0RUo/FaQZgRBiCKYP6tvAcA/ApAcqDX+WRWvnKHq+iTJY05W/e7h8lM+XM3SPBOyLPsvmG2rXJyvnmURJShQbwGAG8DeFVsIUYPwgBEAYyx/gAeBnArgIDX3i4P2//eD43HP1pkn+T1ySYtz7QYyXXbOckbbjzL1tdkQH8NlzoAfADgZSI6pOWZgtAjDEAEwxgbDOA+AHcCsAR6ndPNit9f1Fgx74eGKbKMbm3fSQT5/MmJmx66LNWWZKXhGi71AFgA4EUiKuqODAL9EAYgAmGMjQbwEIBrgcAVuKFJLvzzv+qd/13XNIFx3PzuMHtcwuYnrk0zJ1tppIbLZADfAniOiNYHWyZB9xAGIIJgjE0HMAfAedDw2TQ0yYW/m1/n/XGLY5xuwrVh6nBr4ePXpjp7pBkmarx0FYBniGixHnIJtCMMQATQRvHP13CZXFrr2/T0RzVJG/e4R+gkmiqjB5h3P3FtWuXgnsYp0OCpwG8I/gDgayJi+kgnCARhAMIEY0yC/03/BIBJGi717DvuXf/Eh9U9i496B+kjnTaG9TEffvr6tGNDexsnANCSKbgNwJ8A/B8R+fSRTqCGMAAhhjFmAnANgLkAtATVXPuOezfO+aC6z4FSr5aofMjom2U88sS1qfsn5FkmQsNuBYB9AP4I4B9E5NFHOoESwgCECMaYGcDV8L/x8wK/DvZNe12bnvqoNr+s1perm4BBJDNFqnz48tQds8cmjCNCioZLDwF4FcDfiMihk3iCNggDoDOMMRuA2+Dfx+8d8HVA9eICR+GLC+tG19nldN0E1JHUJKnhkStSt51zasIIArT8DuUA3gHwGhHV6iSeAMIA6AZjLBPAvc3/BZxRJzNULtni2PH8/NrxjQ4WcLZfJJNkIfs9FyRvumJGUr4kkRYvph5+Q/AyEVXpJF5cIwxAkGGM5QC4G8D9AAIulPHJOPL5ysb9r/+nYaLLE5uVdiYjuW+Ybdtwx7nJfTRmF9oBvA+/ITiik3hxiTAAQYIxNgDAbwHcDk3putj73g8NZR/+0DDZJ2uKoEctRgPJ159h23jHL2xZFhNp2clwA1gI4HkiKtZJvLhCGIBuwhg7Bf49/GugYQvM6Wa731/UWBmMdN1o5USa8eWpiUkWOkXDpS3ZhU8T0WadxIsLhAHoIoyxsfBX5nU1XXciEykwJ+hidiED8A38HsE6nUSLaYQB0EhX03WrGuXNT31Ua15b5NSSRx93tDEEE6Dt+7kKwB+I6L86iRaTCAMQIIyx2QCeBTBVw2Vyaa1v05Pzamyb97m1JP3EPSMHmIufujatogtpxpsBvATgc5Fm3DnCAKjQJl33KQATNFzq2Xfcu/7xD2t67jnqiYh03Wilf66h5LGr0g5MyLNMhoaSaACFAF4B8CkRefWRLvoRBkCBNum6jwIYpuFS146DnvVz59UMPlbl7aWPdPFJn0zDsSevS9s7Ic8yAUCihkv3w9+y7K9E5NRHuuhFGIA2MMYsAG6CP123b+DXoXHTXtfmpz6syy+r80ZFum60kpEsVT1yRer22WMTxhIFnmcBoBTAawDeJKImncSLOoQBAMAYS4a/3dYc+I/MCgiZseolW5yFLy6oH1PX5EvTTUDBSSRZqPGeC5I3XzHTNkwi5Gi4tBLAXwC8LpqYxrkBYIxlwd9d9z5oyFWXGSq+Xmff+Yd/1k90upkWd1QQZBItkv3XF9g2XTHDlidJgRtv+JuY/gPAS0R0XCfxIp64NADN3XV/C3+efsAK7JNR8vnKxgOvfdUwye1mVt0EFGimJc349nNtvc0GGqDhUheAD+HPJSjRRbgIJq4MAGNsIPw5+ncACFiBXW62971FjXGVrhuttGQXPnJ5anKChbQEcFuamL5ARLt1Ei/iiAsDwBgbBX85rtZ03V1vftVQs3BF4xQ9mmwK9IMI7ILJiRsfuCQlMTlR6kqa8bNEtFEn8SKGmP5SM8bGwb+Vdzk0Ntn887/qnV+tbdLa9FIQgXSjieliAE8R0Ro95IoEYtIAdLHJJiut9W189pO6hPW7RbpuLDJ6oHnX09el1Q/INU6ESDMGEEMGgDFG8Cv8YwCmaLhULq31bXpiXo2tQKTrxgXD+xr3PntDRtngnsbJ0NbEdAv8Lctipolp1BuANum6zwAYr+FS977j3g2P/aO6197j3oG6CCeIaPrlGEoevzrtwIQ8yyRoCAoD2AF/E9OoTzOOWgPQpsnm4wCGarjUvnGPa9MzH9flHa/xatk3FsQoWSlSxeNXpRXPGGUdR6Qpzfgg/NmFUdvENOoMAGMsCcAv4T86q0/g1/nTdZ/4qHZYRa1PS+aYIE5IT6bqOVekFc4elzCGAC2ZnWUA3oX/ZOQ6ncTThagxAG3SdecC6BHodTJD1ZItju2/X1A/tr7JpyV3XBCn2Kxkv/v8LjUxrQLwFoA3iKhaJ/GCSsQbAMZYNoB7APwGGqyyT2bHPl9p3/vGVw0TRLquoCtYjOS69RxbwS1nJ/czSNBS3dkI/xHpfyCiYzqJFxQi1gAwxvoBeBB+dz9gBfb4WMmXP9kPvP6fhskuD9NSPy4QKGI0SJ4bz0paf/u5yT3NBmjp7+AC8BmA3xHRXp3E6xYRZwAYY4Pgf9vfCQ0NIFxutue9RY3l8dxkU6AvbZqYJiVZSMuBrC1pxi8SUZFO4nWJiDEAjLHR8Af2NDXZbHSywj99Uef877qmCSJdVxAqpg63Fj5zfZo3M0XSciR7S5rx74hog06iaSLsCsMYmwZ/YE9Tk02RriuIBLrZxPRpIlqik2gBETYDwBibBH/zxjM0XCaXVvvWPf1JXfLGPSJdVxA5jBts3vPUdWn1/bKN4wBIGi79EcCccBUehdwANO/j/wn+ktxAn+89UOpZ88RHtb12lXgG6yedQNA9hvY2lTx7Q/rRob2NExB4mjED8DaAh0OdUBRSA9Bcj/8NgEBz7l07D3tWPflRzcCDZSJdVxA99M0xHn32uvSDYwaZTkXgacbbAZxHRId1FK0dITMAjLERAJYggCQexph9Q7F7/TP/Vzu8rMYXcNKPQBBp5KQZKh+7OrV4+gjrGCIkBXDJUQA/C9XZhyExAIyx3gDWoPNOu03LCp0bnp9fO6qmQQ74SG2BINJJTZJqnroubdvpo6wT0XleywEA00LRq1B3A8AYMwJYCmC62rzSau+GW1+t6ldW6xNttQUxS490Q9kHD2Qdzu28OclSALOJSNZTHi3Ryq7yMNSV3/fZCvvy854unyiUXxDrlNb4cs97qmzCl6vtK+DPC+BxBvzdqnVFVw+AMdYDQDGAZM4U70uf1W3850q7lgYeAkFMcP3PbGt+e0nKJPAT32oB5BFRpV4y6O0BPAC+8uNv3zWsFcoviFc++bHxtI+XNK5WmZIGnb0A3TwAxpgVwBEAmUrjhQc9K2/+U8UMvZ4vEEQL8+dmrxra2zSNM1wKoB8RefR4tp4ewM/AUX6fjCN3vVmp5bRdgSBm+eWrlWN8MivnDPcAoNuLUk8DcC5v4I2v6g873SxBx2cLBFGD3cVsH/yvcY/KlJ/r9Ww9DcAspR/6ZHb006WNk3V8rkAQdfz9+4bJsoxSzrCiLgUDXQwAYywFgOJpLN9vcu4R9foCQXt8MozLtzt4R5KNZUyfrlZ6eQBTwNnamL+0MeBGngJBPPHpj028ZrUmAJP0eKZeBmCq0g9lmZUWlXiG6PRMgSCqKdjvGiYzxmsmytsl6BZ6GQDFzL8jlb79Oj1PIIh6GANV1Mm83oGKL9XuEnQDwBgzgOOurN7l0mUvUyCIFdbtcvL6AUxtPgUrqOjhAYwBJ/tv8WaHOJBDIFBhcYErnTOUhsD7aASMHgaAt1axbzvgztPheQJBzLCx2JUPfztxJYIeB9DDACiuVWoa5WKfrOkkVoEg7nB5maWhSeYlBUWFAVAUcss+V1SdmSYQhIvth9xVnKHINgDNnX8Uu/4s3uKwBfNZAkGssmSri9dDcDBjLKgnWgfbA+AVLcirdrjE/r9AEADLtjXlwd8pWInTgvmsYK/JFV0Ul5vta3AwEQCMEEwGwrghZkwb4T95bdVOFwr2uuHx8b5zglBS08AyPD4cNBkwQGF4GoAvg/WsYBsAxQBg8THvcQDCAISRjGQJU4dbMWOkBVOGWWBLaHX+rv+ZDU43w9YDbqzc7sSPW50oq/GFUVrBgVLPkaG9TQMUhoIaBwiaAWg+8GO00tiybQ5R/BNiJAnI723CzFFWzBhpxbA+JpBK+xermTA534LJ+RY8dFkqjlb6sHKHEysKndi01w2v8A5CysrtTgztbVIaGs8YSySipmA8J2gdgRhjZwJYrDR28XNlh0vKff2C9SyBMqlJEiYO9SvxrFFWZKYEJ8RT3yRj/W4X1u12YeV2FyrqhHegN/l9jPs/nZPDO4p8FhGtCMZzgrkEUHRNZIZyofz6MbinETNGWjEp34IJeRYYdNjYTUmUMHtcAmaPS4DMgN1HPFi3y4WVO5zYtt8NWTgHQaf4qHcgA2oIUMoMnAogOgzAsWrfPgAiBThIJJgJE4daMGOkFdNPsSAnLbSrK4mA4X1NGN7XhJvPsqG2UcbGPX7PYMV2J+qbdG1jHzcwBiqv9e3lnB8QtDhAUAxAc5GCYpeftTud7mA8I57pnWXAzJH+tfz4IWaYDGE/1f0EabY23oEM7D7qwcrt/tjBriMeMOEddJmNe9z28yYqds6bxhiTgnFoSLA8gFEAUpUGFm1xZQXpGXGDxUQYO8iMmaOsmDXKip4Z0RFDlaRW7+COnyejukHGmiK/Z7CmyAm7U1gDLSze7EjnGIB0APkAirr7jGAZAF6tsmPrfpfY/guA3lkGTM63YOZIKybnW2A2Rc5bvqtkJEs4b1ICzpuUAJ8MbD/oxopm72B/qTfc4kU863a7hgJwAzArDE9DBBkAxTVJnZ3t9njZ2CA9I6YwSMCogWbMOMWKycMsGN5XccsnZjBIwJhBZowZZMa9F6bgaKWveVfBibW7XXB7hHfQEZeHJTQ62Q6blZT6a04D8F53n6GrAdiy31UbpPvHBG2TcU4bbkWSNfrf8l2ld5YBl2Yl4tJpiXB5GLbs9ychLd3qRKlIQjrBzoPuyknDLEpDQQkEdtsAMMZ6AYopi1iyxRnIeegxi9ZknHjFYuInIW2O8xTlH7c5LRwDkMcY60FEvFbiAdHtryNj7AoAnykN/WxuaW2dXeZ1OIlJ0mwSJuRZmqP2FqQkhuIA5tjF4WbYWOwPJP60w4Xy2vjyDrJSpIr/vdAjmzN8CRH9uzv3D8YSQDEA6PKw/XV2eXAQ7h/RSATk9zFh8jC/0o8aaIYk3vJBI8FMmNG8BQoA+0u9WFHoxPrdLmzc44IvxtMOKuvlbI+PHTYZSCmZbhqAsBsAxbXIvuPeYwBi0gAkWggT8izNX0wLslOjY5suFhjUw4hBPWxxlYR0qMxbMqSXiWcAukW3DABjLAH+JqAnsWybMybfgwlmwqXTkjBrlBVjBpl1Sb0VBEaaTcIZYxKQkWxAmk3CFz/Z4XDHXrxg5XanPKQXtzDISkTOrt67W0rKGDsdwFKlsctfKD94oNQ7oDv3j3TCnZYbr8TLm7+F4X1Nez95JJvXUGc6Ea3q6r27uwTgFQBVHij19u/mvSMeh5v5E1u2+w1wKApz4pF4L0DadcQzWKUwaBqAyDIApTW+vQDiLgV433Ev9h1vxLxFjWI3oJs0uRg27fG/4eO9BJkxUGWdb292avALg7psABhjBE4B0LpdTl5f87ihtlHG4gIHFhc4RD5AgIgmJHw2FLubfqFcFzCVMUZE1KU/Vnc8gBEAMpQGFm12ZnbjvhGNJAGyxiWnLANFJR4UlXjw128bVNtzxRPBbkPWlc8mWlhc4EjjGIAsAEMB8I4WV6U7BoDneri27IvdE4AumpKIW85KPvGm6spedHWDjK/XN+Hr9U1xVxPQrgZglwtub9ff8i05GC2e1ec/2fHv1UHplBVxrN3VaWFQZBiAhiZ5t8vLFHsDxgq9swy4elYSrp6VhDq7jA3F/oj08kInGhzarIFPBrbsc2PLPjfe/AronWnA5GH+tNipI6xItET3WsHtYSjY78b63f6/z4FuVgG23XmZOcqCrJTWnZfo/kup4/KwBLuL7Uyy0AiF4WkAPujKfYNuALYdcPPON49JUpPaN8Qo7GbJ69EqH75c1YQvVzWd6AswKd+C00dbMSA3Ok5WO1btw9oifw/B1TudaHJ1by3fYhRnjrRiynBLRDVECSVFh90VE/KCWxjUpW8UYywXnCy/JVudiV0VJtqRVEpe1xS5NBe1uDwM65qbcb75VX3EdgYKdicgSQJGx9GyKFB+LHBaOAZgKGMsm4gqtN6zq68UnsVhK7c7YzL9tyu0LXltW9SyvNCJqnrt0aqjlT7MX2bH/GX2dq7wtFMsyA1xElJNo4xNe7q+9OlISqKESfli21SNHwudgx65UrHxFsF/YtBXWu/ZVQOgWADk9rGD1Q3ywC7eM6ZpW9Ty6FX+xJbuvDHVkpBOHWKGMcjeQcdknK373d3u99fWo9FD5lijotaX45NRYpAUz9+cihAaAOUCoGPeowCEAeiEtp117/h58ok1c3ci422TkNqeD9AxUKaFlgDnut0urCh0obK+e9t0bXc8oimmEUkcLPMeHtzTqGQAuhQH0PwJMMYsAMYpjf20Q3R97Aq9Mgy4dJp/qdB2b3zJFmeX6t/r7K1JSC8ubF+uPHqgWTUJqW25bTCScdJsEqaPEF2QgsWqnS7f4J6KajuRMWYhIk1JeF0xwZMAKEYilhQ4enfhfoI2dDyiq0Uhu+p2y6w1CWneokak2ySc2pyiPHOUBUYDnYhNrNrhQlkQGm60LEdEf4Tgs2izo+eNZyo22rIAGA9gjZb7dcUAKLoaDKjee9wr3P8g07b+vW2b7a5ur9W0SVFuWXN39y3fto35GaOtyE0XVZF6savEPZgx1BEptuGfhhAYAMUAYHmtby9jmNSF+wkCpG2b7ZYEm+400uyO4rdNZ46FhKVoQWaQqup9e7JSDRMUhqcBeEXL/TQZgOYCoClKY+t2OR1a7iXoHmaVRpp6tMrqmHYrCprCx8Y9nsZzJyh6WdO1FgZp9QDyASg2KFxc4Iqr5p+RBi89eVmhE41d3KO3mgmThorWZ5HG4oKmtHMnWJWGsgAMAbAn0HtpNQC8rQb3xj3iBKBIgZeeHEguftu028nDLDAbxWs+0li3250HwAtl/Z2GUBuAhia52OVhIzXeSxACOqYnf7vBgSc/qlGc+9yN6eCUnAoiiCaXnNTkYkWJFhquMDwNwLxA76U131LRAOw47KnUeB9BmEi38T/yjGSRfhst7Dzs5uX9a0oICvgTZ4xlAVB083/c0iReG1GCWh6BOMo7elhW6OJVSA1jjCk26lFCi8mfCk7J9YodbrH/HyWo6bgwANHDjwWOQZyhlsKggNBiABRdC48PhypqfTka7iMIJypaLvQ/eiir9eX6ZHaUMxzwMqDbBuBgmbdEwz0EYUZVyYULEFUcKvMd4gwF1wA0FwCdqjS2crszRtswxiaqMYDQiSEIAquLnLw93YmMMaXegScRqAdwKgDFzIMlBY5eAd5DEAGIGEDssKjA2YMzlABOxW5HAjUAygVADHXFRz28YIRAINCRnYfcQxhDPWc4oGVAoAZAsQCost5XLDPNuQSCMCKWALGDzCBVN8i8rL+gGgDFAqCNxW57gNcLIgSRBxBbbN7nbuAMBccAMMbyACiuNRZtdogCoBhCGIDo44fNDsUuoQByGWOdNugNxAPgWRLPumJRABRtCCWPLdYWuYbCXxikRKdeQJcNgN3Fip1uFrdnAEQrYhcgtmhyyUkOF9vLGQ6KAVAMAO486BYFQFGICALGHkUl7nLOkKLutkXVADDG0gEMUxpbutWp2BhUENkwFTUXHkB0snwbtzDolM4KgzrzAKby5izf4RzQuWiCiEPVAxAWIBpZvNXBK8YjAJPVru3MACiuIXwySkqrfbwsJEEEo/qWF/oflZRW+3rIMo5xhlXjAF0yAAfLvIcDEUwgEISGwxXeLhUGcQ0AY8wEQKn1MFbtdHX/9AhBWBC7ALHJ6p1OD2doslphkJoHMB6A4jbfki0O4f5HKWIXIDZZVODk9eRIADCGd52aAVDcQmAMDTsPu8UR4FGK8ABik+2H3HmMQXNasJoBULyoql4ulmWIBvHRivAAYhJZhqHarr0wSLMHsGkvt/hAEAWodwQKlRQCPSjY6+aVBk/nXaNoABhjgwD0VBpbVMAtPhBEASIGELssKnCkcIZ6MMYUcwV4HgDPZfCu3+UcqlkyQcQgyoFjlzU7nEMB8HboFHWaZwAU3f8mF9tjdzHFw8kF0YFIBY5d7C5mc7q5hUGKOq3JA9hVwj2NRBAtiFTgmGbXEXcZZygwD4AxlgJghNLkpducvKIDgUAQASzd5uKd9zmSMXZS/E7JA5gKKG/zLdvm6t8N2QQRgNgFiG2WbnEM4AxJUGjtp2QAOAVA7NixKq9oAR7liF2A2OZola+XLOM4Z/gk3Q7YAJRU+A52Qy5BhCAyAWOfI5Xeg5whdQPAGDMCmKh05aqd3FNIBFGE8ABin1VFqoVB7WIEHT2AMQBsSlcu5hcbCKIJkQcQ8ywpcGZzhpLQoTCoowHgnQBk33HIPSQIsgnCjAgCxj7bDrjzGAPvzI52Oh6QAai2y7t9MnjbC4IoQiwBYh+fDGOtXS7mDKsaAMVsIZUiA0GUITIB44Mt+9x1nKF2hUEnDABjrD+APkpXqBQZCASCCGRRgSOZM9SrWdcBtPcAeAVAvrVFLrH+jxHUlwDCBYgVflIvDDrh6UtKP2yL0832Njpk4QHECmIXIC6wO1myy832cYZPvOw79QCKj3p5xQVxSWmND25v9GpKrCYCub0MpTWiV21bio96SzlD7Q0AYywZwCilmUu3OkT0vw1rily4+Hfl+HJVE+QoVJhoVnIlGAMWFzhw+QvlWFPkCrc4EcWybU5e675RLYVBLR7AFHAKgH7c6hQFQB0oq/HhhQW1uOmVCmza6w63OJqIJQ+g8KAbt71WiTkf1OBopXj7d2TJFgdPdw0AJgE4sbev6P7LMis7UuntrYNsMcHOwx7c8XolJudb8OBlqRjcM/KdpVjIAzhU7sXbXzdgyRZH1BmtUFJS6e0jyzguSYrt/aYBWNTiASgGAI9U+vbrJl0MsW63C9e8VI4XFtSiukEOtzhdJtKVqc4u482v6nH1ixVYXCCUPxCOVakXBhkZYyfcgY6s4RcVCDrgk4EvVzXh+40O3HCmDTfNtsFionCLdRLRqDQeH8MXPzXhnW8a0OiIXgMbDlYXOT1XZiuW90xhjBklACMBKHb6/XGrM0tP4WKRJhfDX79twCUtgcII+75GU1PQlgDfZc+V4+XP64Tyd4ElW7g6bAMwygh+z3DvtkOeQfqIFfuU1foDhQuWN+I3F6Vg2inWcIsUVWwoduG1f9djV4lwQrtDsw77oBzkn2YEx/33+HDE7WYDdJQtLth33Iv73q3G5HwLfntJCvJ6h7etYqTXArQE+BYXOMItSkzgdjOrx8dKTAbqqzA80QhgtNKFThcTJwAFkXW7Xbj2DxX4xcRE3HdRCjJTOjuZXR8iNRW4tlHGe/9rwGcr7PAJTz+ouD2wm5QzAk4xAlCyDJAZN49Y0EVkBny9vglLtjhw1awk3HZOMhItkRMoDIcH4HQzLFhuxwc/NMDujAAXJAZhAG8d1c8IIE1pxGiEaAGuEw43w7xFjfhmvQN3/DwZF5+WCClEDkEkuPmA3xj+uMWB1/5dj+PV4l2jJyYJvABUihGcAEGCmXhthQRBoqLOHyicv6wR912Ughkj9Q8URkIm4Prd/gDf7iMiwBcKzGbi7QTIRgB1AE5SdomQnW6Tqmoa5UxdpRNgf6kX9//VHyi8/5IUDNUxUBjOTMADpV68+60I8IWS3FRjGQG5nOFaCcBBziCdMTaBd964QAfW7Xbhuj9U4OmPa1FZr49bHI48gNpGGa98UYcrXywXyh9izppg5ZUEA8B+CcAW3uiVMxJFK/AQ0xIovOjZcrz5VX1IA2PBNgDO5ljHhc+WYf4ye8QlRcUDl5yWqDZcKAFYwRsd0tM0NjlB4vUWE+hIW+VZsDx4W2OhWOfLDPhmvSMsRkzQSnoyVQ/INY5XmbJEAvBfAIqF1ESwPXRZaoEu0gkCorZRxsuf1+HK30eH+9yyjHnq4xrdljGCwJh7Rdo2gLsD0ATgB4mI6gB8wbvJeZMSxmelSuV6CCgInINlXsz5oAa/equqW9FzvXYB9pd68Zt3q3H3W1UoPiqi++EmN91QOntcguIpX80sIKL6lt3nl8H5bhAh5cMHsvbxxgWhZf1uF67/YwXmfFCDY13YP2cqWt6VD7i8uebhqhfL8dMOZxfuIAg2RGAfPph9FP6TgJTwAfgz0NwRiIi2APiQd8MeGcbTHroshRsrEIQWuTnM9WUAABcOSURBVLlK7ooX/GtsLVVy6h5A4CagJZnpsucjs+oxnnni6tQV2anSqSpT3ieiHUD7pqCPANxjhXHN6baps0YmiHhABNEaKCwPPFDYzTyA1gBfGd78qh5NLuEYRhJnjU/cfPHUJF6FLwCUAJjT8o8TBoCIKgDcAH4vcdMrd6T17ZNlKAmKpIKgUWf3BwqveKHzQKHqS74TXfZ3PvIH+KrqxSs/0uifbTzy4i1pA8Hp7wnAC+B6Iqpt+UG7DHQiWgJgLu8BElHWwkdzmqxmagqGwILgcqjcHyi85c+V2HpAuVlpV4KARSUe3PlGFe5+qwp7j4kAXySSZCH7/LnZDgLSVaY9QETtlvInlaAQ0SsA5vHuYDVT/sePZIulQASz7YAbt73a3C23qr1DpyUVuKWpyY2vVGDjHtFyO1IhAvvkkextFjPlqUz7mIje7PhDXg3arwBs5N1pUK5x2mNXpy/TJqYglLRtp/XKF3Vo0BAobHIx/O27yG1rJmjPczekL++XYzxNZUoBgDuVBrjF6IyxfvAbAV5VoO+JD6sLvtvonBCwpIKwkZIo4abZNjQ4ZMxb1Kg459azbeiZYcQ739RHdXfjeOLsUxM2vXhz+ljw1/1lACYQ0RGlQdVuFIyx6QCWADArjgM1lz9X3nCw3NtPg8yCMGKQwN0tUBsTRB6De5oOLnw0O51Iuakv/I1AziKi5bx7qLahIKKf4N8eVB4H0j+dk+1MtEj2gCQWhB01BRfKHz0kWcj+8cPZXhXlB4D71JQf6MQAAAARvQ7gfd64xUxDFzyaXUgkMgUFglBABPZ/c7ILLSYMUZn2IRG929m9Am1E9WsA63mDvTMNU56+Nl3V0ggEguDw0i0Zy/tmG6eoTFkLTtCvIwEZACJyArgYwDHenAumJMw8b1LihkDuJxAIusZFpyWunz3OOlNlSimAy4kooH3bgFtREtFxAFcA4B2HKz17fVrewB7Gg4HeUyAQBM6QnsYDT16TNgx8vfUAuJKIjgZ6T029aIloNYD7+eNI+3Rujpxkleq13FcgEKiTZKHGjx7OlomQojLtHiJaqeW+mptRE9E7AP7OGzcbMOizR7OLiCBiygJBEJAI8mdPZBdZTDRYZdrbRMTVS+69uyjTPQC4lqZHhmHyCzeli/JhgSAIvHx7xooeaUa15h6rAfy2K/fukgEgIg+AKwFw1xrnnJow85KpCau7cn+BQODnkmlJ604fZZ2lMuU4gCuIiBebU6XL59EQUSmAy8HpJwhAevzq9NH5fUxqbYkFAgGHvN6m/Y9flToC/IxdJ4CLiYi7O9cZ3TqQiojWAriDPw7bvAeyJNFZWCDQRmqiofbjh7MNREhWmfZrIuLm5wRCt0+kI6KPALzNGzebaODnj+fslSRx2KhAEAgSQV74WNYekwH9Vaa9TkTcDN2An9XdGzRzPwBuJmBWqnTqS7eka9qeEAjilVfvyFiZnWpQC/qp1uhoISgGoDkoeBX8/cYUOXNswqyrZyWtCcbzBIJY5YoZSWunj1TN9DsM4NKuBv06ErRDqYmoDMBF8B84oDjloctSRw/va9wbrGcKBLHEyAHm4rlXpo6CetDvsub+nUEhqKfSExG384h/HEkfPpRjSU+WqoL5XIEg2klNkmreuz/TCn4vfwD4FRFxO3V1haAaAAAgok8AvM4bN0jou3BuziERFBQI/EgSfJ89mr3PZCC1xjqvENG8oD872Dds5iEAS3mDmSnS+FfvyBBBQYEAwF9+lflTVqpBrbXeEgCP6vFsXQwAEXnhTxLaz5sz/RTrrOvOsIlMQUFcc/Ps5FWThlnUMv0OAbi6WaeCjl4eAIioGsClAHjtwuiBS1PGjR1kLtJLBoEgkhk9wLz73ouSx6lMccAf8a/USwbVpqDBgDF2GYB/8p7lk9nRcx4vs9Y0ypl6yyKIHCYOteDs8Qkn/v3Wf+tRZ4+fAtL0ZKn6f8/3sBsk9OVMYQCuIaKFesqhmwfQAhF9AeAV3rhBot4LH805bJCgi4sjiEwG9zTi0mmJJ/5LtOj+LooYDBK8/3ws57CK8gPAS3orPxACA9DMXADf8QYzU6Rxb96d+VOIZBEIwsq792auTrdJY1WmLALwZChkCYkBICIZwHUAuElAk/Mtp9/xi2RhBAQxzS1n21aNH2JRy/Q7AL/rH5Jt8lB5ACCiGgAXAuC2C7vz58kTJuSZd4ZKJoEglIweaN716wtSxqtMaQRwIRGFLFEuZAYAAIioCMDN4B9Sa33n11mpmSmSblFPgSAcZKVIFe/fn5UKIIEzhQG4lYi2h1Cs0BoAACCifwF4kTcuSej9xeM5x03G4BQ7CAThxmiQPAsfyzkmSeipMu15IvpnyIRqJuQGoJknAXzNG0xOlEa9fU+GqBwUxATv3Z+5Ji1JGqMy5X8Ang2VPG0xhuOhRCQzxq6F/wSTEUpzxg+xzLrrvOSV737TMCO00kUGA3sY0TfLiMwUCY1OhmNVXuw87AELwgFsvTIMGNjThHSbBAMBtXYZx6t92HMsOPcf3NOI/jlGpNkkVDfIqKjzoajEE5fHjN92bvJPowaY1IJ+xfBn+oWlNiYsBgAAiKiBMXYpgHWA8gGHt5+bPHHjHveOjcWuU0Irnb6YDIS1r7V6gxv3uHDnG1UwGQhXzUrCJVMTMSD35I+mrMaHT5fZMX9Zo+aDPA0ScMnUJFw+PRF5vU2KcyrqfFi02YkPfmhATaN2bT331ATcdm4yBvU4WfbaRhmLChz4+/cNqKqPD0swKd+y/e7zktUaezTAn+lXGyqZOhL27AvG2IUA/gXOckRmKDv/6TJWVuPrEVrJ9EPJADz49xq8cVcGxgxSPIm9HTsOuXHvO9UBZ871yjDgz3dkcBW/I3Ynw+8X1OL7TY6A5ptNhBdvTsfpo62dzq1ukHHPX6owfogZD1/eavfPf7oMx6tjp0A0O81Q/u2zubIkgfe9ZfB38/0ilHJ1JOwGAAAYY88AeJo33tAkbz/n8bI8l5dZQieVfnQ0AJv2uOBwM0w/xa9AdifD0m0OlFT4YLMSxgwyY/TA9oZh9xEPbn+9Enanus/eN9uIv96Xidw0w4mfeXwMq3e6sPeYBz4ZGJhrxIyRVljNrV8HmQF/+KwOn/+kfvK70UB441cZmJzf/qPZX+rFul0u1DTK6JFuwMxRFmSl+GU4WunDf9c34a5ftPa7jCUDYDRInh9eyClKTZJGq0x7ioieC5lQHCLFABCAz+CvIFRk52HP0hterjgjdFLpR0cD4HSzE8r33UYHXlxYe5JiTxxqwQs3pSMzpdVR+veaJjz3Kd97NBsJ8x7MQn6f1jf/+t0uPPNJLcpq2ytbapKEx65KxexxrbtUPhn45WuV2HaAvyFz2znJuPv8VkV2uBleWliHr9e3bwxlNBDu+kUybjnbBgBocrF26b+xZAA+fjh75Yh+JrXY1X/gd/3DvhYK1y5AO4iIAbgVwA7enBH9TGfce0FKTJ421KL832904MmPahTf6huKXbjv3So43a1jF5+WiFOH8JcMN55pa6f8m/a48Jt3q09SfgCos8uY+4+adoprkICnr0uDxHlNZKca8MtzbCf+LcvAnPerT1J+APD6GN76bz3mLWoEgJjN/f/tpanLO1H+XQBuigTlByLEAAD+oCD85cPcV9rNZ9tOmznSujV0UoWO6gYZv19YqxqF31XiwbvfNrT72bVn2BTnmgyEK2e2dpdyeRie+rgWbi//AYwBL8yvw6Hy1rqsAblGnDZCeW1/weQEmE2tivz5T3as2ql+KvXbX9dj9xGP6pxo5bRh1sLrz0g6TWVKPfxv/og5JyNiDAAAEFEx/N2Feb6g6U93ZPTqmW48HkKxQsKC5fZO1/MAMH+ZHZX1rX+emSOtSLOd/DFOHmZpt1z4Zr0DpTWdu9huL8Pfv2tvZM6fpJy8ds6prT9nDJi3uLHT+/tk4J1vGjqdF23kphrL3vhVeg4AnksmA7i2ORs2YogoAwAARPQDVAKCEiF74ePZlWYjBRaijhJ+3BrYr+P1MXy/sXWuJAGjB5z8neu4mxDo/f1znWhytRqjjgFIwO/CD+rRurzYediNsgAMDACs2ulEdUNEeMBBwWwm5z+fzK6UJMpVmfYEEX0TMqECJOIMQDO/hz8oqEiShUZ98nD2phDKoysON8OhssDbIWzZ3z4od0r/k7f3hvdt/7NdJYG73S4Paze/R7oB6R28jCG9TJDa/KjocOD3l2Wg8GDsZHp/cH/WxiQLqeWq/AvAS6GSRwsRaQCag4K3ASjkzRncyzj9wUtTuKcRRRPHqnyQNWTgHShtbywyUwwnzWmrsHYn05zYc6CsvUJnJLf/qnQ0CEeqtEXwO/4O0cqcK1KWD+9rmq4ypQjAzc3f6YgjIg0AABBRI/zlw9zKwGvPsE2dNTphS+ik0ge7U5tyNjjaz09JPPljTE5sawC0u9sNTe2/r8kdnmFLaB/Fb+rm7xCNTBth3XblTJta0K8GwAVExC2BDzcRawAAgIgOArgGakHB29P79csxcI8kiwa05sh3TAM2KHyKbbfuupLf7+vgkhg67AUStf+3Fg/Gf3/tMkUSvTMNx167K6M31IN+1xHRvhCKpZmINgAAQESLATzGHQcy5s/JabKaiXckWcSTaNW2J56c0P5jq2s6WZvavmG13l/pGQ0dntHRq0i0aPsqJSdEbx6AxUzO+XNz6iSCWiPbOUTEbYMXKUS8AQAAIvojgPm8cauZ8j9+JLsghCIFlbZpuoHQO7P9/BqFiHrbOgGbVYItQdtH3T+nfUFPxxhCxzqEnDRt9++dGbY6tG4z74GsjUlWGq4y5VMi4jbCjSSiwgA0cxsAbuR/UK5x2qNXpkZlUDA1SUKOBiMwsn97r7NIIcLfNtmGCMjvHbjCGSRgeL/WXYSWkt627D3mbbe0yOsVWKFRC0o7F9HAk9emLxvaWzXotxXA7aGSp7tEjQEgIgeAywBwT0a9fEbS9HMnWIN6eGKomHFK4HVOZ3dIwFHK1S880N4ozBzVeaVeC9NGWNsFFpW27OqbZJRUtkbyxw0xB+xljOhnQt/s6PMAzhyTsPni0xLUlL8a/ky/qFmORo0BAAAiOgR/ujBv09nw/E0Zg/vlGA+HUKygcMWMpHb76jxOH23F4J6tyrNprwvlCrn9q4ucaGwTBzh/UmJACkoE3HpO+/TiHzhlwT9ucZ74f7ORcOnUxE7vD/gLiKKNvlnGIy/dljYA/B4aXgCXExH3OLxIJKoMAAAQ0U8AHuGOA+kL5uQ4Ei2Seh1rhJHX29SpYuSmGTD3yva9UxYsV/41m1wM/1nb+iJKs0n47SUpoE5ibzfNtmFUm8zCijoflrRR9LZ8tbapXfT/l+cmtzNOSlw4JTGgvgGRhMVE9gWPZjdIRBkq0x4iIu6BuJFK1BkAACCi1wB8wBu3mJG/4NHsQiJu9+GIwtFc4XfXL5Lxm4tT2hXYtJDfx4R37s1EdmprrGDdLheWbVNWTgB47/vGdt7Bxacl4rkb0xXzBhLMhAcvTcW9F6a0+/krn9fD41P+Mx4q9+LLVa0GKMlKePfeLEwdcfJyhgi4elYSHr86td3vHOkQgc2fm73NalYN+n1CRK+HTKggErV7MYwxK4AVALgtl/6z1r7sd/9Xd3rIhAoQpY5AVfXyieKamkYZK7c7cazahyQLYUQ/E8YNsbTb269plHHjyxU41kkN/YQ8C968OwNmY+vFDjfDmiIXDpT6+/T1zTFi2gjLSVt/X65qwgsL1LtVpSRK+OSR7JN2JnaVeLB5rxt1TTKyUyVMHWFFrwz/nNIaH/6zpgl3RkFDkN9dn77svMkJp6tMKQAwPZrW/W2JWgMAAIyxXgA2Atx2y/JTn9Rt+madXa0vW8hRMgAPv1eD9+7P6tSFBvxbcHe9WYXio4Hl30/Ot+CV2zM01eAvWG7Hn76oCyjBp0e6Ae/emxlQYK++Sca971RjZH9TxLcEO2t8wqaXbkkfC4C3RVMGYCIRRW0iWlQuAVogomPwdxHiVZZIz16Xmjewh/FQCMXqEvVNMn75WiW+3eCAl+NyMwYs3erE1S9VBKz8ALButwuXP1+Obzc4Os3A23HIg7verMLLnwem/ID/jX7dHyvw2Qo7V/aWe9/0SiW2R0EhUL9s48EXb0kfCL7yewBcFc3KD0S5B9ACY+weAG/xxt0+7J8993i23ckiIvzM6wrcQmqShJkjreiTZUBWigF2l4wjlT6sKHQGVNOvRnKChNOGWzCwhxHpNgkmA6GqwYfj1T6s2+XqdEnRGalJEs4YbUX/XCNSEiTU2mWU1vjvfbgiOgqAkixkX/T7HsctZhqiMu0eIno7ZELpREwYAABgjP0NKgkYx6u86y54tnwSY+H/nTszAILwQQT27ydz1vbJNqoV+XxERDeFTCgdieolQAfuAbCSN9gz0zj5+RszloVOHEE08uJN6cs7Uf61AO4IlTx6EzMGgIg8AK4EcJQ359wJ1lkXTUlYHTqpBNHEhVMS1591aoLaKT6l8PfyV298GEXEjAEAACIqhT8oyPuApCevTR+d38cU0SWagtAzpKfxwFPXpg0DXyc8AK4koiMhFEt3YsoAAAARrQVwJ38ctnkPZEnJCVLEdGYVhJckCzV+9HC2TIQUlWm/JiLuEjNaiTkDAABE9CGAd3njZhMNXPhodpFE3EYjgjhBIsj/fCJnp8VEg1WmvUtEfwuZUCEkJg1AM/cB4JYH56Ybprx0a0ZMHjQiCJw/3pa+IjfNMEllyhoA94dKnlAT9i0xPWGM5cKfKdiHN+Xlz+vXLljeqBb1DToSARe3qZyrqPOn/gpCy8VTE9Y9eU36JPD14DiACc0JZzFJTBsAAGCMjQOwCoDi6RaMwX7Dy+XHi0q8akkfghgjr7dp//w52dlE4CWHOQHMIqL1oZQr1MTyEgAAQEQFUA8KJv3jwWxjcqJUHUKxBGEkNdFQ+/HD2QYV5Qf8Qb+YVn4gDgwAABDRxwDe4I2bDDTgi8dzDkqSCArGOhJBnv9o5h6TAf1Vpr1JRO+HTKgwEhcGoJkHAXAbNmSmSOP/dHumCArGOK/embEiN82oVh26CsBDoZIn3MSNASAiL/wHj3IrA2eOtJx+zSybyBSMUa45w7Zm+inWWSpTDsPf0y/yyxWDRNwYAAAgogoAFwPgNW+ghy5PGTd9hHlbCMUShIBJ+ZbtD12aMgb8wLcT/p5+5SEUK+zElQEAACLaAvVijoTX7srqN/0U69ZQySTQl9NHJRS8fU9mPwBqXUtvJ6INoZIpUoj5bUAejLFX4I8L8HD+/fuGDe9+0zAjVDIJggsR2L0XpKy86SzbZABqfddfJaIHQiVXJBHPBsAA4HsAs9XmlVZ719/zdnXuwTKvWtRYEGEM7mE88JdfZ1Zmpxo6awe3BMC5zTGiuCNuDQAAMMYyAawHMKiTqe6iEu/aVz6vzd6y363WHVYQZiYNtWx/4LKU2rxepskAOjt+6CD8Pf24J1DHOnFtAACAMTYawGoASYHM9/jY4aJD7oMb9rip8KAnuaZBTqh3+AI7EUMQNAwS+dKSJEdOumQf1sfcNCHPQsP6mAZJEnoHeIsmANOaY0JxS9wbAABgjF0I4AvwT30RxBYtp/j8J9yChJu42wVQgoi+AvBL+L8YgtjGC+BWofx+hAfQBsbY+QA+BVRzxAXRSx2Aa4jou3ALEikID6ANRPQ1gDFQaS4qiFqWAhgjlL89wgB0gIgOAJgFf9pwUZjFEXSfQgCXEdHPmk+XFrRBLAFUYIwRgNMBXA3g5wD6hlUgQaAcAPAdgPnNp0kLOAgDoAHGWA8AIwBkAUgLsziCVrzwr+/LABQRkThlJUD+H1mjVjgV9mfjAAAAAElFTkSuQmCC;" parent="sJfHZRyvvE6cVOoVh98q-78" vertex="1">
          <mxGeometry x="117.66192141434749" y="100" width="84.03807858565249" height="81.74267812909802" as="geometry" />
        </mxCell>
        <mxCell id="sJfHZRyvvE6cVOoVh98q-60" value="" style="shape=image;verticalLabelPosition=bottom;labelBackgroundColor=default;verticalAlign=top;aspect=fixed;imageAspect=0;image=data:image/png,iVBORw0KGgoAAAANSUhEUgAAAQAAAAD5CAYAAADImOsDAAAABmJLR0QA/wD/AP+gvaeTAAAgAElEQVR4nO2dd3Qc1fXHv3e2Slr15t5l2cYdN1whmJLQe++hBAIhNJsOAQIJJNQASYCY8sM2AZIQWrCNG+5FtmVbttwtF/W+2j7v98dKVvG80Y60s/V9zuEcrPdm5kq798599917H0EQFzDGcgGcD2A6gLEAegLIBVAPwAHgIICdAJYC+IGIysIjqUAgCBqMsTMZY18xxnwscDyMsS8YY2eGW36BQKARxhgxxi5gjK3RoPQ8ChhjNzLGDOH+vQQCgQqMMalZ8TcFQfE7sr3ZEBjD/XsKBII2MMbMzcq5WwfF78gBxthvGGMJ4f69BYK4hjGW1KyMJSFQ/I6UMcaeYYylhvvvIOg6FG4BBNphjKUD+DWA3wDI1HYtGuodbH9FrdfucsMHAFYLGXJSpVRbgtSfCDaN4lQCeAPAW0RUo/FaQZgRBiCKYP6tvAcA/ApAcqDX+WRWvnKHq+iTJY05W/e7h8lM+XM3SPBOyLPsvmG2rXJyvnmURJShQbwGAG8DeFVsIUYPwgBEAYyx/gAeBnArgIDX3i4P2//eD43HP1pkn+T1ySYtz7QYyXXbOckbbjzL1tdkQH8NlzoAfADgZSI6pOWZgtAjDEAEwxgbDOA+AHcCsAR6ndPNit9f1Fgx74eGKbKMbm3fSQT5/MmJmx66LNWWZKXhGi71AFgA4EUiKuqODAL9EAYgAmGMjQbwEIBrgcAVuKFJLvzzv+qd/13XNIFx3PzuMHtcwuYnrk0zJ1tppIbLZADfAniOiNYHWyZB9xAGIIJgjE0HMAfAedDw2TQ0yYW/m1/n/XGLY5xuwrVh6nBr4ePXpjp7pBkmarx0FYBniGixHnIJtCMMQATQRvHP13CZXFrr2/T0RzVJG/e4R+gkmiqjB5h3P3FtWuXgnsYp0OCpwG8I/gDgayJi+kgnCARhAMIEY0yC/03/BIBJGi717DvuXf/Eh9U9i496B+kjnTaG9TEffvr6tGNDexsnANCSKbgNwJ8A/B8R+fSRTqCGMAAhhjFmAnANgLkAtATVXPuOezfO+aC6z4FSr5aofMjom2U88sS1qfsn5FkmQsNuBYB9AP4I4B9E5NFHOoESwgCECMaYGcDV8L/x8wK/DvZNe12bnvqoNr+s1perm4BBJDNFqnz48tQds8cmjCNCioZLDwF4FcDfiMihk3iCNggDoDOMMRuA2+Dfx+8d8HVA9eICR+GLC+tG19nldN0E1JHUJKnhkStSt51zasIIArT8DuUA3gHwGhHV6iSeAMIA6AZjLBPAvc3/BZxRJzNULtni2PH8/NrxjQ4WcLZfJJNkIfs9FyRvumJGUr4kkRYvph5+Q/AyEVXpJF5cIwxAkGGM5QC4G8D9AAIulPHJOPL5ysb9r/+nYaLLE5uVdiYjuW+Ybdtwx7nJfTRmF9oBvA+/ITiik3hxiTAAQYIxNgDAbwHcDk3putj73g8NZR/+0DDZJ2uKoEctRgPJ159h23jHL2xZFhNp2clwA1gI4HkiKtZJvLhCGIBuwhg7Bf49/GugYQvM6Wa731/UWBmMdN1o5USa8eWpiUkWOkXDpS3ZhU8T0WadxIsLhAHoIoyxsfBX5nU1XXciEykwJ+hidiED8A38HsE6nUSLaYQB0EhX03WrGuXNT31Ua15b5NSSRx93tDEEE6Dt+7kKwB+I6L86iRaTCAMQIIyx2QCeBTBVw2Vyaa1v05Pzamyb97m1JP3EPSMHmIufujatogtpxpsBvATgc5Fm3DnCAKjQJl33KQATNFzq2Xfcu/7xD2t67jnqiYh03Wilf66h5LGr0g5MyLNMhoaSaACFAF4B8CkRefWRLvoRBkCBNum6jwIYpuFS146DnvVz59UMPlbl7aWPdPFJn0zDsSevS9s7Ic8yAUCihkv3w9+y7K9E5NRHuuhFGIA2MMYsAG6CP123b+DXoXHTXtfmpz6syy+r80ZFum60kpEsVT1yRer22WMTxhIFnmcBoBTAawDeJKImncSLOoQBAMAYS4a/3dYc+I/MCgiZseolW5yFLy6oH1PX5EvTTUDBSSRZqPGeC5I3XzHTNkwi5Gi4tBLAXwC8LpqYxrkBYIxlwd9d9z5oyFWXGSq+Xmff+Yd/1k90upkWd1QQZBItkv3XF9g2XTHDlidJgRtv+JuY/gPAS0R0XCfxIp64NADN3XV/C3+efsAK7JNR8vnKxgOvfdUwye1mVt0EFGimJc349nNtvc0GGqDhUheAD+HPJSjRRbgIJq4MAGNsIPw5+ncACFiBXW62971FjXGVrhuttGQXPnJ5anKChbQEcFuamL5ARLt1Ei/iiAsDwBgbBX85rtZ03V1vftVQs3BF4xQ9mmwK9IMI7ILJiRsfuCQlMTlR6kqa8bNEtFEn8SKGmP5SM8bGwb+Vdzk0Ntn887/qnV+tbdLa9FIQgXSjieliAE8R0Ro95IoEYtIAdLHJJiut9W189pO6hPW7RbpuLDJ6oHnX09el1Q/INU6ESDMGEEMGgDFG8Cv8YwCmaLhULq31bXpiXo2tQKTrxgXD+xr3PntDRtngnsbJ0NbEdAv8Lctipolp1BuANum6zwAYr+FS977j3g2P/aO6197j3oG6CCeIaPrlGEoevzrtwIQ8yyRoCAoD2AF/E9OoTzOOWgPQpsnm4wCGarjUvnGPa9MzH9flHa/xatk3FsQoWSlSxeNXpRXPGGUdR6Qpzfgg/NmFUdvENOoMAGMsCcAv4T86q0/g1/nTdZ/4qHZYRa1PS+aYIE5IT6bqOVekFc4elzCGAC2ZnWUA3oX/ZOQ6ncTThagxAG3SdecC6BHodTJD1ZItju2/X1A/tr7JpyV3XBCn2Kxkv/v8LjUxrQLwFoA3iKhaJ/GCSsQbAMZYNoB7APwGGqyyT2bHPl9p3/vGVw0TRLquoCtYjOS69RxbwS1nJ/czSNBS3dkI/xHpfyCiYzqJFxQi1gAwxvoBeBB+dz9gBfb4WMmXP9kPvP6fhskuD9NSPy4QKGI0SJ4bz0paf/u5yT3NBmjp7+AC8BmA3xHRXp3E6xYRZwAYY4Pgf9vfCQ0NIFxutue9RY3l8dxkU6AvbZqYJiVZSMuBrC1pxi8SUZFO4nWJiDEAjLHR8Af2NDXZbHSywj99Uef877qmCSJdVxAqpg63Fj5zfZo3M0XSciR7S5rx74hog06iaSLsCsMYmwZ/YE9Tk02RriuIBLrZxPRpIlqik2gBETYDwBibBH/zxjM0XCaXVvvWPf1JXfLGPSJdVxA5jBts3vPUdWn1/bKN4wBIGi79EcCccBUehdwANO/j/wn+ktxAn+89UOpZ88RHtb12lXgG6yedQNA9hvY2lTx7Q/rRob2NExB4mjED8DaAh0OdUBRSA9Bcj/8NgEBz7l07D3tWPflRzcCDZSJdVxA99M0xHn32uvSDYwaZTkXgacbbAZxHRId1FK0dITMAjLERAJYggCQexph9Q7F7/TP/Vzu8rMYXcNKPQBBp5KQZKh+7OrV4+gjrGCIkBXDJUQA/C9XZhyExAIyx3gDWoPNOu03LCp0bnp9fO6qmQQ74SG2BINJJTZJqnroubdvpo6wT0XleywEA00LRq1B3A8AYMwJYCmC62rzSau+GW1+t6ldW6xNttQUxS490Q9kHD2Qdzu28OclSALOJSNZTHi3Ryq7yMNSV3/fZCvvy854unyiUXxDrlNb4cs97qmzCl6vtK+DPC+BxBvzdqnVFVw+AMdYDQDGAZM4U70uf1W3850q7lgYeAkFMcP3PbGt+e0nKJPAT32oB5BFRpV4y6O0BPAC+8uNv3zWsFcoviFc++bHxtI+XNK5WmZIGnb0A3TwAxpgVwBEAmUrjhQc9K2/+U8UMvZ4vEEQL8+dmrxra2zSNM1wKoB8RefR4tp4ewM/AUX6fjCN3vVmp5bRdgSBm+eWrlWN8MivnDPcAoNuLUk8DcC5v4I2v6g873SxBx2cLBFGD3cVsH/yvcY/KlJ/r9Ww9DcAspR/6ZHb006WNk3V8rkAQdfz9+4bJsoxSzrCiLgUDXQwAYywFgOJpLN9vcu4R9foCQXt8MozLtzt4R5KNZUyfrlZ6eQBTwNnamL+0MeBGngJBPPHpj028ZrUmAJP0eKZeBmCq0g9lmZUWlXiG6PRMgSCqKdjvGiYzxmsmytsl6BZ6GQDFzL8jlb79Oj1PIIh6GANV1Mm83oGKL9XuEnQDwBgzgOOurN7l0mUvUyCIFdbtcvL6AUxtPgUrqOjhAYwBJ/tv8WaHOJBDIFBhcYErnTOUhsD7aASMHgaAt1axbzvgztPheQJBzLCx2JUPfztxJYIeB9DDACiuVWoa5WKfrOkkVoEg7nB5maWhSeYlBUWFAVAUcss+V1SdmSYQhIvth9xVnKHINgDNnX8Uu/4s3uKwBfNZAkGssmSri9dDcDBjLKgnWgfbA+AVLcirdrjE/r9AEADLtjXlwd8pWInTgvmsYK/JFV0Ul5vta3AwEQCMEEwGwrghZkwb4T95bdVOFwr2uuHx8b5zglBS08AyPD4cNBkwQGF4GoAvg/WsYBsAxQBg8THvcQDCAISRjGQJU4dbMWOkBVOGWWBLaHX+rv+ZDU43w9YDbqzc7sSPW50oq/GFUVrBgVLPkaG9TQMUhoIaBwiaAWg+8GO00tiybQ5R/BNiJAnI723CzFFWzBhpxbA+JpBK+xermTA534LJ+RY8dFkqjlb6sHKHEysKndi01w2v8A5CysrtTgztbVIaGs8YSySipmA8J2gdgRhjZwJYrDR28XNlh0vKff2C9SyBMqlJEiYO9SvxrFFWZKYEJ8RT3yRj/W4X1u12YeV2FyrqhHegN/l9jPs/nZPDO4p8FhGtCMZzgrkEUHRNZIZyofz6MbinETNGWjEp34IJeRYYdNjYTUmUMHtcAmaPS4DMgN1HPFi3y4WVO5zYtt8NWTgHQaf4qHcgA2oIUMoMnAogOgzAsWrfPgAiBThIJJgJE4daMGOkFdNPsSAnLbSrK4mA4X1NGN7XhJvPsqG2UcbGPX7PYMV2J+qbdG1jHzcwBiqv9e3lnB8QtDhAUAxAc5GCYpeftTud7mA8I57pnWXAzJH+tfz4IWaYDGE/1f0EabY23oEM7D7qwcrt/tjBriMeMOEddJmNe9z28yYqds6bxhiTgnFoSLA8gFEAUpUGFm1xZQXpGXGDxUQYO8iMmaOsmDXKip4Z0RFDlaRW7+COnyejukHGmiK/Z7CmyAm7U1gDLSze7EjnGIB0APkAirr7jGAZAF6tsmPrfpfY/guA3lkGTM63YOZIKybnW2A2Rc5bvqtkJEs4b1ICzpuUAJ8MbD/oxopm72B/qTfc4kU863a7hgJwAzArDE9DBBkAxTVJnZ3t9njZ2CA9I6YwSMCogWbMOMWKycMsGN5XccsnZjBIwJhBZowZZMa9F6bgaKWveVfBibW7XXB7hHfQEZeHJTQ62Q6blZT6a04D8F53n6GrAdiy31UbpPvHBG2TcU4bbkWSNfrf8l2ld5YBl2Yl4tJpiXB5GLbs9ychLd3qRKlIQjrBzoPuyknDLEpDQQkEdtsAMMZ6AYopi1iyxRnIeegxi9ZknHjFYuInIW2O8xTlH7c5LRwDkMcY60FEvFbiAdHtryNj7AoAnykN/WxuaW2dXeZ1OIlJ0mwSJuRZmqP2FqQkhuIA5tjF4WbYWOwPJP60w4Xy2vjyDrJSpIr/vdAjmzN8CRH9uzv3D8YSQDEA6PKw/XV2eXAQ7h/RSATk9zFh8jC/0o8aaIYk3vJBI8FMmNG8BQoA+0u9WFHoxPrdLmzc44IvxtMOKuvlbI+PHTYZSCmZbhqAsBsAxbXIvuPeYwBi0gAkWggT8izNX0wLslOjY5suFhjUw4hBPWxxlYR0qMxbMqSXiWcAukW3DABjLAH+JqAnsWybMybfgwlmwqXTkjBrlBVjBpl1Sb0VBEaaTcIZYxKQkWxAmk3CFz/Z4XDHXrxg5XanPKQXtzDISkTOrt67W0rKGDsdwFKlsctfKD94oNQ7oDv3j3TCnZYbr8TLm7+F4X1Nez95JJvXUGc6Ea3q6r27uwTgFQBVHij19u/mvSMeh5v5E1u2+w1wKApz4pF4L0DadcQzWKUwaBqAyDIApTW+vQDiLgV433Ev9h1vxLxFjWI3oJs0uRg27fG/4eO9BJkxUGWdb292avALg7psABhjBE4B0LpdTl5f87ihtlHG4gIHFhc4RD5AgIgmJHw2FLubfqFcFzCVMUZE1KU/Vnc8gBEAMpQGFm12ZnbjvhGNJAGyxiWnLANFJR4UlXjw128bVNtzxRPBbkPWlc8mWlhc4EjjGIAsAEMB8I4WV6U7BoDneri27IvdE4AumpKIW85KPvGm6spedHWDjK/XN+Hr9U1xVxPQrgZglwtub9ff8i05GC2e1ec/2fHv1UHplBVxrN3VaWFQZBiAhiZ5t8vLFHsDxgq9swy4elYSrp6VhDq7jA3F/oj08kInGhzarIFPBrbsc2PLPjfe/AronWnA5GH+tNipI6xItET3WsHtYSjY78b63f6/z4FuVgG23XmZOcqCrJTWnZfo/kup4/KwBLuL7Uyy0AiF4WkAPujKfYNuALYdcPPON49JUpPaN8Qo7GbJ69EqH75c1YQvVzWd6AswKd+C00dbMSA3Ok5WO1btw9oifw/B1TudaHJ1by3fYhRnjrRiynBLRDVECSVFh90VE/KCWxjUpW8UYywXnCy/JVudiV0VJtqRVEpe1xS5NBe1uDwM65qbcb75VX3EdgYKdicgSQJGx9GyKFB+LHBaOAZgKGMsm4gqtN6zq68UnsVhK7c7YzL9tyu0LXltW9SyvNCJqnrt0aqjlT7MX2bH/GX2dq7wtFMsyA1xElJNo4xNe7q+9OlISqKESfli21SNHwudgx65UrHxFsF/YtBXWu/ZVQOgWADk9rGD1Q3ywC7eM6ZpW9Ty6FX+xJbuvDHVkpBOHWKGMcjeQcdknK373d3u99fWo9FD5lijotaX45NRYpAUz9+cihAaAOUCoGPeowCEAeiEtp117/h58ok1c3ci422TkNqeD9AxUKaFlgDnut0urCh0obK+e9t0bXc8oimmEUkcLPMeHtzTqGQAuhQH0PwJMMYsAMYpjf20Q3R97Aq9Mgy4dJp/qdB2b3zJFmeX6t/r7K1JSC8ubF+uPHqgWTUJqW25bTCScdJsEqaPEF2QgsWqnS7f4J6KajuRMWYhIk1JeF0xwZMAKEYilhQ4enfhfoI2dDyiq0Uhu+p2y6w1CWneokak2ySc2pyiPHOUBUYDnYhNrNrhQlkQGm60LEdEf4Tgs2izo+eNZyo22rIAGA9gjZb7dcUAKLoaDKjee9wr3P8g07b+vW2b7a5ur9W0SVFuWXN39y3fto35GaOtyE0XVZF6savEPZgx1BEptuGfhhAYAMUAYHmtby9jmNSF+wkCpG2b7ZYEm+400uyO4rdNZ46FhKVoQWaQqup9e7JSDRMUhqcBeEXL/TQZgOYCoClKY+t2OR1a7iXoHmaVRpp6tMrqmHYrCprCx8Y9nsZzJyh6WdO1FgZp9QDyASg2KFxc4Iqr5p+RBi89eVmhE41d3KO3mgmThorWZ5HG4oKmtHMnWJWGsgAMAbAn0HtpNQC8rQb3xj3iBKBIgZeeHEguftu028nDLDAbxWs+0li3250HwAtl/Z2GUBuAhia52OVhIzXeSxACOqYnf7vBgSc/qlGc+9yN6eCUnAoiiCaXnNTkYkWJFhquMDwNwLxA76U131LRAOw47KnUeB9BmEi38T/yjGSRfhst7Dzs5uX9a0oICvgTZ4xlAVB083/c0iReG1GCWh6BOMo7elhW6OJVSA1jjCk26lFCi8mfCk7J9YodbrH/HyWo6bgwANHDjwWOQZyhlsKggNBiABRdC48PhypqfTka7iMIJypaLvQ/eiir9eX6ZHaUMxzwMqDbBuBgmbdEwz0EYUZVyYULEFUcKvMd4gwF1wA0FwCdqjS2crszRtswxiaqMYDQiSEIAquLnLw93YmMMaXegScRqAdwKgDFzIMlBY5eAd5DEAGIGEDssKjA2YMzlABOxW5HAjUAygVADHXFRz28YIRAINCRnYfcQxhDPWc4oGVAoAZAsQCost5XLDPNuQSCMCKWALGDzCBVN8i8rL+gGgDFAqCNxW57gNcLIgSRBxBbbN7nbuAMBccAMMbyACiuNRZtdogCoBhCGIDo44fNDsUuoQByGWOdNugNxAPgWRLPumJRABRtCCWPLdYWuYbCXxikRKdeQJcNgN3Fip1uFrdnAEQrYhcgtmhyyUkOF9vLGQ6KAVAMAO486BYFQFGICALGHkUl7nLOkKLutkXVADDG0gEMUxpbutWp2BhUENkwFTUXHkB0snwbtzDolM4KgzrzAKby5izf4RzQuWiCiEPVAxAWIBpZvNXBK8YjAJPVru3MACiuIXwySkqrfbwsJEEEo/qWF/oflZRW+3rIMo5xhlXjAF0yAAfLvIcDEUwgEISGwxXeLhUGcQ0AY8wEQKn1MFbtdHX/9AhBWBC7ALHJ6p1OD2doslphkJoHMB6A4jbfki0O4f5HKWIXIDZZVODk9eRIADCGd52aAVDcQmAMDTsPu8UR4FGK8ABik+2H3HmMQXNasJoBULyoql4ulmWIBvHRivAAYhJZhqHarr0wSLMHsGkvt/hAEAWodwQKlRQCPSjY6+aVBk/nXaNoABhjgwD0VBpbVMAtPhBEASIGELssKnCkcIZ6MMYUcwV4HgDPZfCu3+UcqlkyQcQgyoFjlzU7nEMB8HboFHWaZwAU3f8mF9tjdzHFw8kF0YFIBY5d7C5mc7q5hUGKOq3JA9hVwj2NRBAtiFTgmGbXEXcZZygwD4AxlgJghNLkpducvKIDgUAQASzd5uKd9zmSMXZS/E7JA5gKKG/zLdvm6t8N2QQRgNgFiG2WbnEM4AxJUGjtp2QAOAVA7NixKq9oAR7liF2A2OZola+XLOM4Z/gk3Q7YAJRU+A52Qy5BhCAyAWOfI5Xeg5whdQPAGDMCmKh05aqd3FNIBFGE8ABin1VFqoVB7WIEHT2AMQBsSlcu5hcbCKIJkQcQ8ywpcGZzhpLQoTCoowHgnQBk33HIPSQIsgnCjAgCxj7bDrjzGAPvzI52Oh6QAai2y7t9MnjbC4IoQiwBYh+fDGOtXS7mDKsaAMVsIZUiA0GUITIB44Mt+9x1nKF2hUEnDABjrD+APkpXqBQZCASCCGRRgSOZM9SrWdcBtPcAeAVAvrVFLrH+jxHUlwDCBYgVflIvDDrh6UtKP2yL0832Njpk4QHECmIXIC6wO1myy832cYZPvOw79QCKj3p5xQVxSWmND25v9GpKrCYCub0MpTWiV21bio96SzlD7Q0AYywZwCilmUu3OkT0vw1rily4+Hfl+HJVE+QoVJhoVnIlGAMWFzhw+QvlWFPkCrc4EcWybU5e675RLYVBLR7AFHAKgH7c6hQFQB0oq/HhhQW1uOmVCmza6w63OJqIJQ+g8KAbt71WiTkf1OBopXj7d2TJFgdPdw0AJgE4sbev6P7LMis7UuntrYNsMcHOwx7c8XolJudb8OBlqRjcM/KdpVjIAzhU7sXbXzdgyRZH1BmtUFJS6e0jyzguSYrt/aYBWNTiASgGAI9U+vbrJl0MsW63C9e8VI4XFtSiukEOtzhdJtKVqc4u482v6nH1ixVYXCCUPxCOVakXBhkZYyfcgY6s4RcVCDrgk4EvVzXh+40O3HCmDTfNtsFionCLdRLRqDQeH8MXPzXhnW8a0OiIXgMbDlYXOT1XZiuW90xhjBklACMBKHb6/XGrM0tP4WKRJhfDX79twCUtgcII+75GU1PQlgDfZc+V4+XP64Tyd4ElW7g6bAMwygh+z3DvtkOeQfqIFfuU1foDhQuWN+I3F6Vg2inWcIsUVWwoduG1f9djV4lwQrtDsw77oBzkn2YEx/33+HDE7WYDdJQtLth33Iv73q3G5HwLfntJCvJ6h7etYqTXArQE+BYXOMItSkzgdjOrx8dKTAbqqzA80QhgtNKFThcTJwAFkXW7Xbj2DxX4xcRE3HdRCjJTOjuZXR8iNRW4tlHGe/9rwGcr7PAJTz+ouD2wm5QzAk4xAlCyDJAZN49Y0EVkBny9vglLtjhw1awk3HZOMhItkRMoDIcH4HQzLFhuxwc/NMDujAAXJAZhAG8d1c8IIE1pxGiEaAGuEw43w7xFjfhmvQN3/DwZF5+WCClEDkEkuPmA3xj+uMWB1/5dj+PV4l2jJyYJvABUihGcAEGCmXhthQRBoqLOHyicv6wR912Ughkj9Q8URkIm4Prd/gDf7iMiwBcKzGbi7QTIRgB1AE5SdomQnW6Tqmoa5UxdpRNgf6kX9//VHyi8/5IUDNUxUBjOTMADpV68+60I8IWS3FRjGQG5nOFaCcBBziCdMTaBd964QAfW7Xbhuj9U4OmPa1FZr49bHI48gNpGGa98UYcrXywXyh9izppg5ZUEA8B+CcAW3uiVMxJFK/AQ0xIovOjZcrz5VX1IA2PBNgDO5ljHhc+WYf4ye8QlRcUDl5yWqDZcKAFYwRsd0tM0NjlB4vUWE+hIW+VZsDx4W2OhWOfLDPhmvSMsRkzQSnoyVQ/INY5XmbJEAvBfAIqF1ESwPXRZaoEu0gkCorZRxsuf1+HK30eH+9yyjHnq4xrdljGCwJh7Rdo2gLsD0ATgB4mI6gB8wbvJeZMSxmelSuV6CCgInINlXsz5oAa/equqW9FzvXYB9pd68Zt3q3H3W1UoPiqi++EmN91QOntcguIpX80sIKL6lt3nl8H5bhAh5cMHsvbxxgWhZf1uF67/YwXmfFCDY13YP2cqWt6VD7i8uebhqhfL8dMOZxfuIAg2RGAfPph9FP6TgJTwAfgz0NwRiIi2APiQd8MeGcbTHroshRsrEIQWuTnM9WUAABcOSURBVLlK7ooX/GtsLVVy6h5A4CagJZnpsucjs+oxnnni6tQV2anSqSpT3ieiHUD7pqCPANxjhXHN6baps0YmiHhABNEaKCwPPFDYzTyA1gBfGd78qh5NLuEYRhJnjU/cfPHUJF6FLwCUAJjT8o8TBoCIKgDcAH4vcdMrd6T17ZNlKAmKpIKgUWf3BwqveKHzQKHqS74TXfZ3PvIH+KrqxSs/0uifbTzy4i1pA8Hp7wnAC+B6Iqpt+UG7DHQiWgJgLu8BElHWwkdzmqxmagqGwILgcqjcHyi85c+V2HpAuVlpV4KARSUe3PlGFe5+qwp7j4kAXySSZCH7/LnZDgLSVaY9QETtlvInlaAQ0SsA5vHuYDVT/sePZIulQASz7YAbt73a3C23qr1DpyUVuKWpyY2vVGDjHtFyO1IhAvvkkextFjPlqUz7mIje7PhDXg3arwBs5N1pUK5x2mNXpy/TJqYglLRtp/XKF3Vo0BAobHIx/O27yG1rJmjPczekL++XYzxNZUoBgDuVBrjF6IyxfvAbAV5VoO+JD6sLvtvonBCwpIKwkZIo4abZNjQ4ZMxb1Kg459azbeiZYcQ739RHdXfjeOLsUxM2vXhz+ljw1/1lACYQ0RGlQdVuFIyx6QCWADArjgM1lz9X3nCw3NtPg8yCMGKQwN0tUBsTRB6De5oOLnw0O51Iuakv/I1AziKi5bx7qLahIKKf4N8eVB4H0j+dk+1MtEj2gCQWhB01BRfKHz0kWcj+8cPZXhXlB4D71JQf6MQAAAARvQ7gfd64xUxDFzyaXUgkMgUFglBABPZ/c7ILLSYMUZn2IRG929m9Am1E9WsA63mDvTMNU56+Nl3V0ggEguDw0i0Zy/tmG6eoTFkLTtCvIwEZACJyArgYwDHenAumJMw8b1LihkDuJxAIusZFpyWunz3OOlNlSimAy4kooH3bgFtREtFxAFcA4B2HKz17fVrewB7Gg4HeUyAQBM6QnsYDT16TNgx8vfUAuJKIjgZ6T029aIloNYD7+eNI+3Rujpxkleq13FcgEKiTZKHGjx7OlomQojLtHiJaqeW+mptRE9E7AP7OGzcbMOizR7OLiCBiygJBEJAI8mdPZBdZTDRYZdrbRMTVS+69uyjTPQC4lqZHhmHyCzeli/JhgSAIvHx7xooeaUa15h6rAfy2K/fukgEgIg+AKwFw1xrnnJow85KpCau7cn+BQODnkmlJ604fZZ2lMuU4gCuIiBebU6XL59EQUSmAy8HpJwhAevzq9NH5fUxqbYkFAgGHvN6m/Y9flToC/IxdJ4CLiYi7O9cZ3TqQiojWAriDPw7bvAeyJNFZWCDQRmqiofbjh7MNREhWmfZrIuLm5wRCt0+kI6KPALzNGzebaODnj+fslSRx2KhAEAgSQV74WNYekwH9Vaa9TkTcDN2An9XdGzRzPwBuJmBWqnTqS7eka9qeEAjilVfvyFiZnWpQC/qp1uhoISgGoDkoeBX8/cYUOXNswqyrZyWtCcbzBIJY5YoZSWunj1TN9DsM4NKuBv06ErRDqYmoDMBF8B84oDjloctSRw/va9wbrGcKBLHEyAHm4rlXpo6CetDvsub+nUEhqKfSExG384h/HEkfPpRjSU+WqoL5XIEg2klNkmreuz/TCn4vfwD4FRFxO3V1haAaAAAgok8AvM4bN0jou3BuziERFBQI/EgSfJ89mr3PZCC1xjqvENG8oD872Dds5iEAS3mDmSnS+FfvyBBBQYEAwF9+lflTVqpBrbXeEgCP6vFsXQwAEXnhTxLaz5sz/RTrrOvOsIlMQUFcc/Ps5FWThlnUMv0OAbi6WaeCjl4eAIioGsClAHjtwuiBS1PGjR1kLtJLBoEgkhk9wLz73ouSx6lMccAf8a/USwbVpqDBgDF2GYB/8p7lk9nRcx4vs9Y0ypl6yyKIHCYOteDs8Qkn/v3Wf+tRZ4+fAtL0ZKn6f8/3sBsk9OVMYQCuIaKFesqhmwfQAhF9AeAV3rhBot4LH805bJCgi4sjiEwG9zTi0mmJJ/5LtOj+LooYDBK8/3ws57CK8gPAS3orPxACA9DMXADf8QYzU6Rxb96d+VOIZBEIwsq792auTrdJY1WmLALwZChkCYkBICIZwHUAuElAk/Mtp9/xi2RhBAQxzS1n21aNH2JRy/Q7AL/rH5Jt8lB5ACCiGgAXAuC2C7vz58kTJuSZd4ZKJoEglIweaN716wtSxqtMaQRwIRGFLFEuZAYAAIioCMDN4B9Sa33n11mpmSmSblFPgSAcZKVIFe/fn5UKIIEzhQG4lYi2h1Cs0BoAACCifwF4kTcuSej9xeM5x03G4BQ7CAThxmiQPAsfyzkmSeipMu15IvpnyIRqJuQGoJknAXzNG0xOlEa9fU+GqBwUxATv3Z+5Ji1JGqMy5X8Ang2VPG0xhuOhRCQzxq6F/wSTEUpzxg+xzLrrvOSV737TMCO00kUGA3sY0TfLiMwUCY1OhmNVXuw87AELwgFsvTIMGNjThHSbBAMBtXYZx6t92HMsOPcf3NOI/jlGpNkkVDfIqKjzoajEE5fHjN92bvJPowaY1IJ+xfBn+oWlNiYsBgAAiKiBMXYpgHWA8gGHt5+bPHHjHveOjcWuU0Irnb6YDIS1r7V6gxv3uHDnG1UwGQhXzUrCJVMTMSD35I+mrMaHT5fZMX9Zo+aDPA0ScMnUJFw+PRF5vU2KcyrqfFi02YkPfmhATaN2bT331ATcdm4yBvU4WfbaRhmLChz4+/cNqKqPD0swKd+y/e7zktUaezTAn+lXGyqZOhL27AvG2IUA/gXOckRmKDv/6TJWVuPrEVrJ9EPJADz49xq8cVcGxgxSPIm9HTsOuXHvO9UBZ871yjDgz3dkcBW/I3Ynw+8X1OL7TY6A5ptNhBdvTsfpo62dzq1ukHHPX6owfogZD1/eavfPf7oMx6tjp0A0O81Q/u2zubIkgfe9ZfB38/0ilHJ1JOwGAAAYY88AeJo33tAkbz/n8bI8l5dZQieVfnQ0AJv2uOBwM0w/xa9AdifD0m0OlFT4YLMSxgwyY/TA9oZh9xEPbn+9Enanus/eN9uIv96Xidw0w4mfeXwMq3e6sPeYBz4ZGJhrxIyRVljNrV8HmQF/+KwOn/+kfvK70UB441cZmJzf/qPZX+rFul0u1DTK6JFuwMxRFmSl+GU4WunDf9c34a5ftPa7jCUDYDRInh9eyClKTZJGq0x7ioieC5lQHCLFABCAz+CvIFRk52HP0hterjgjdFLpR0cD4HSzE8r33UYHXlxYe5JiTxxqwQs3pSMzpdVR+veaJjz3Kd97NBsJ8x7MQn6f1jf/+t0uPPNJLcpq2ytbapKEx65KxexxrbtUPhn45WuV2HaAvyFz2znJuPv8VkV2uBleWliHr9e3bwxlNBDu+kUybjnbBgBocrF26b+xZAA+fjh75Yh+JrXY1X/gd/3DvhYK1y5AO4iIAbgVwA7enBH9TGfce0FKTJ421KL832904MmPahTf6huKXbjv3So43a1jF5+WiFOH8JcMN55pa6f8m/a48Jt3q09SfgCos8uY+4+adoprkICnr0uDxHlNZKca8MtzbCf+LcvAnPerT1J+APD6GN76bz3mLWoEgJjN/f/tpanLO1H+XQBuigTlByLEAAD+oCD85cPcV9rNZ9tOmznSujV0UoWO6gYZv19YqxqF31XiwbvfNrT72bVn2BTnmgyEK2e2dpdyeRie+rgWbi//AYwBL8yvw6Hy1rqsAblGnDZCeW1/weQEmE2tivz5T3as2ql+KvXbX9dj9xGP6pxo5bRh1sLrz0g6TWVKPfxv/og5JyNiDAAAEFEx/N2Feb6g6U93ZPTqmW48HkKxQsKC5fZO1/MAMH+ZHZX1rX+emSOtSLOd/DFOHmZpt1z4Zr0DpTWdu9huL8Pfv2tvZM6fpJy8ds6prT9nDJi3uLHT+/tk4J1vGjqdF23kphrL3vhVeg4AnksmA7i2ORs2YogoAwAARPQDVAKCEiF74ePZlWYjBRaijhJ+3BrYr+P1MXy/sXWuJAGjB5z8neu4mxDo/f1znWhytRqjjgFIwO/CD+rRurzYediNsgAMDACs2ulEdUNEeMBBwWwm5z+fzK6UJMpVmfYEEX0TMqECJOIMQDO/hz8oqEiShUZ98nD2phDKoysON8OhssDbIWzZ3z4od0r/k7f3hvdt/7NdJYG73S4Paze/R7oB6R28jCG9TJDa/KjocOD3l2Wg8GDsZHp/cH/WxiQLqeWq/AvAS6GSRwsRaQCag4K3ASjkzRncyzj9wUtTuKcRRRPHqnyQNWTgHShtbywyUwwnzWmrsHYn05zYc6CsvUJnJLf/qnQ0CEeqtEXwO/4O0cqcK1KWD+9rmq4ypQjAzc3f6YgjIg0AABBRI/zlw9zKwGvPsE2dNTphS+ik0ge7U5tyNjjaz09JPPljTE5sawC0u9sNTe2/r8kdnmFLaB/Fb+rm7xCNTBth3XblTJta0K8GwAVExC2BDzcRawAAgIgOArgGakHB29P79csxcI8kiwa05sh3TAM2KHyKbbfuupLf7+vgkhg67AUStf+3Fg/Gf3/tMkUSvTMNx167K6M31IN+1xHRvhCKpZmINgAAQESLATzGHQcy5s/JabKaiXckWcSTaNW2J56c0P5jq2s6WZvavmG13l/pGQ0dntHRq0i0aPsqJSdEbx6AxUzO+XNz6iSCWiPbOUTEbYMXKUS8AQAAIvojgPm8cauZ8j9+JLsghCIFlbZpuoHQO7P9/BqFiHrbOgGbVYItQdtH3T+nfUFPxxhCxzqEnDRt9++dGbY6tG4z74GsjUlWGq4y5VMi4jbCjSSiwgA0cxsAbuR/UK5x2qNXpkZlUDA1SUKOBiMwsn97r7NIIcLfNtmGCMjvHbjCGSRgeL/WXYSWkt627D3mbbe0yOsVWKFRC0o7F9HAk9emLxvaWzXotxXA7aGSp7tEjQEgIgeAywBwT0a9fEbS9HMnWIN6eGKomHFK4HVOZ3dIwFHK1S880N4ozBzVeaVeC9NGWNsFFpW27OqbZJRUtkbyxw0xB+xljOhnQt/s6PMAzhyTsPni0xLUlL8a/ky/qFmORo0BAAAiOgR/ujBv09nw/E0Zg/vlGA+HUKygcMWMpHb76jxOH23F4J6tyrNprwvlCrn9q4ucaGwTBzh/UmJACkoE3HpO+/TiHzhlwT9ucZ74f7ORcOnUxE7vD/gLiKKNvlnGIy/dljYA/B4aXgCXExH3OLxIJKoMAAAQ0U8AHuGOA+kL5uQ4Ei2Seh1rhJHX29SpYuSmGTD3yva9UxYsV/41m1wM/1nb+iJKs0n47SUpoE5ibzfNtmFUm8zCijoflrRR9LZ8tbapXfT/l+cmtzNOSlw4JTGgvgGRhMVE9gWPZjdIRBkq0x4iIu6BuJFK1BkAACCi1wB8wBu3mJG/4NHsQiJu9+GIwtFc4XfXL5Lxm4tT2hXYtJDfx4R37s1EdmprrGDdLheWbVNWTgB47/vGdt7Bxacl4rkb0xXzBhLMhAcvTcW9F6a0+/krn9fD41P+Mx4q9+LLVa0GKMlKePfeLEwdcfJyhgi4elYSHr86td3vHOkQgc2fm73NalYN+n1CRK+HTKggErV7MYwxK4AVALgtl/6z1r7sd/9Xd3rIhAoQpY5AVfXyieKamkYZK7c7cazahyQLYUQ/E8YNsbTb269plHHjyxU41kkN/YQ8C968OwNmY+vFDjfDmiIXDpT6+/T1zTFi2gjLSVt/X65qwgsL1LtVpSRK+OSR7JN2JnaVeLB5rxt1TTKyUyVMHWFFrwz/nNIaH/6zpgl3RkFDkN9dn77svMkJp6tMKQAwPZrW/W2JWgMAAIyxXgA2Atx2y/JTn9Rt+madXa0vW8hRMgAPv1eD9+7P6tSFBvxbcHe9WYXio4Hl30/Ot+CV2zM01eAvWG7Hn76oCyjBp0e6Ae/emxlQYK++Sca971RjZH9TxLcEO2t8wqaXbkkfC4C3RVMGYCIRRW0iWlQuAVogomPwdxHiVZZIz16Xmjewh/FQCMXqEvVNMn75WiW+3eCAl+NyMwYs3erE1S9VBKz8ALButwuXP1+Obzc4Os3A23HIg7verMLLnwem/ID/jX7dHyvw2Qo7V/aWe9/0SiW2R0EhUL9s48EXb0kfCL7yewBcFc3KD0S5B9ACY+weAG/xxt0+7J8993i23ckiIvzM6wrcQmqShJkjreiTZUBWigF2l4wjlT6sKHQGVNOvRnKChNOGWzCwhxHpNgkmA6GqwYfj1T6s2+XqdEnRGalJEs4YbUX/XCNSEiTU2mWU1vjvfbgiOgqAkixkX/T7HsctZhqiMu0eIno7ZELpREwYAABgjP0NKgkYx6u86y54tnwSY+H/nTszAILwQQT27ydz1vbJNqoV+XxERDeFTCgdieolQAfuAbCSN9gz0zj5+RszloVOHEE08uJN6cs7Uf61AO4IlTx6EzMGgIg8AK4EcJQ359wJ1lkXTUlYHTqpBNHEhVMS1591aoLaKT6l8PfyV298GEXEjAEAACIqhT8oyPuApCevTR+d38cU0SWagtAzpKfxwFPXpg0DXyc8AK4koiMhFEt3YsoAAAARrQVwJ38ctnkPZEnJCVLEdGYVhJckCzV+9HC2TIQUlWm/JiLuEjNaiTkDAABE9CGAd3njZhMNXPhodpFE3EYjgjhBIsj/fCJnp8VEg1WmvUtEfwuZUCEkJg1AM/cB4JYH56Ybprx0a0ZMHjQiCJw/3pa+IjfNMEllyhoA94dKnlAT9i0xPWGM5cKfKdiHN+Xlz+vXLljeqBb1DToSARe3qZyrqPOn/gpCy8VTE9Y9eU36JPD14DiACc0JZzFJTBsAAGCMjQOwCoDi6RaMwX7Dy+XHi0q8akkfghgjr7dp//w52dlE4CWHOQHMIqL1oZQr1MTyEgAAQEQFUA8KJv3jwWxjcqJUHUKxBGEkNdFQ+/HD2QYV5Qf8Qb+YVn4gDgwAABDRxwDe4I2bDDTgi8dzDkqSCArGOhJBnv9o5h6TAf1Vpr1JRO+HTKgwEhcGoJkHAXAbNmSmSOP/dHumCArGOK/embEiN82oVh26CsBDoZIn3MSNASAiL/wHj3IrA2eOtJx+zSybyBSMUa45w7Zm+inWWSpTDsPf0y/yyxWDRNwYAAAgogoAFwPgNW+ghy5PGTd9hHlbCMUShIBJ+ZbtD12aMgb8wLcT/p5+5SEUK+zElQEAACLaAvVijoTX7srqN/0U69ZQySTQl9NHJRS8fU9mPwBqXUtvJ6INoZIpUoj5bUAejLFX4I8L8HD+/fuGDe9+0zAjVDIJggsR2L0XpKy86SzbZABqfddfJaIHQiVXJBHPBsAA4HsAs9XmlVZ719/zdnXuwTKvWtRYEGEM7mE88JdfZ1Zmpxo6awe3BMC5zTGiuCNuDQAAMMYyAawHMKiTqe6iEu/aVz6vzd6y363WHVYQZiYNtWx/4LKU2rxepskAOjt+6CD8Pf24J1DHOnFtAACAMTYawGoASYHM9/jY4aJD7oMb9rip8KAnuaZBTqh3+AI7EUMQNAwS+dKSJEdOumQf1sfcNCHPQsP6mAZJEnoHeIsmANOaY0JxS9wbAABgjF0I4AvwT30RxBYtp/j8J9yChJu42wVQgoi+AvBL+L8YgtjGC+BWofx+hAfQBsbY+QA+BVRzxAXRSx2Aa4jou3ALEikID6ANRPQ1gDFQaS4qiFqWAhgjlL89wgB0gIgOAJgFf9pwUZjFEXSfQgCXEdHPmk+XFrRBLAFUYIwRgNMBXA3g5wD6hlUgQaAcAPAdgPnNp0kLOAgDoAHGWA8AIwBkAUgLsziCVrzwr+/LABQRkThlJUD+H1mjVjgV9mfjAAAAAElFTkSuQmCC;" parent="sJfHZRyvvE6cVOoVh98q-78" vertex="1">
          <mxGeometry x="72.98418087328173" y="18.25999999999999" width="84.03807858565249" height="81.74267812909802" as="geometry" />
        </mxCell>
        <mxCell id="sJfHZRyvvE6cVOoVh98q-64" value="" style="sketch=0;outlineConnect=0;fontColor=#232F3E;gradientColor=none;fillColor=#8C4FFF;strokeColor=none;dashed=0;verticalLabelPosition=bottom;verticalAlign=top;align=center;html=1;fontSize=12;fontStyle=0;aspect=fixed;pointerEvents=1;shape=mxgraph.aws4.elastic_network_interface;" parent="sJfHZRyvvE6cVOoVh98q-50" vertex="1">
          <mxGeometry x="442" y="-50" width="78" height="78" as="geometry" />
        </mxCell>
        <mxCell id="sJfHZRyvvE6cVOoVh98q-66" value="" style="edgeStyle=orthogonalEdgeStyle;html=1;endArrow=block;elbow=vertical;startArrow=block;startFill=1;endFill=1;strokeColor=#ff0000;rounded=0;strokeWidth=5;exitX=1;exitY=0.5;exitDx=0;exitDy=0;" parent="1" source="sJfHZRyvvE6cVOoVh98q-7" target="sJfHZRyvvE6cVOoVh98q-64" edge="1">
          <mxGeometry width="100" relative="1" as="geometry">
            <mxPoint x="630" y="-520" as="sourcePoint" />
            <mxPoint x="810" y="-430" as="targetPoint" />
            <Array as="points">
              <mxPoint x="811" y="-541" />
            </Array>
          </mxGeometry>
        </mxCell>
        <mxCell id="sJfHZRyvvE6cVOoVh98q-80" value="" style="sketch=0;outlineConnect=0;fontColor=#232F3E;gradientColor=none;fillColor=#232F3D;strokeColor=none;dashed=0;verticalLabelPosition=bottom;verticalAlign=top;align=center;html=1;fontSize=12;fontStyle=0;aspect=fixed;pointerEvents=1;shape=mxgraph.aws4.user;" parent="1" vertex="1">
          <mxGeometry x="-330.8" y="-600" width="100" height="100" as="geometry" />
        </mxCell>
        <mxCell id="sJfHZRyvvE6cVOoVh98q-87" value="Operadores" style="text;strokeColor=none;align=center;fillColor=none;html=1;verticalAlign=middle;whiteSpace=wrap;rounded=0;fontStyle=0;fontSize=20;fontFamily=Times New Roman;" parent="1" vertex="1">
          <mxGeometry x="-360" y="-500" width="150" height="30" as="geometry" />
        </mxCell>
        <mxCell id="sJfHZRyvvE6cVOoVh98q-90" value="" style="sketch=0;html=1;aspect=fixed;strokeColor=none;shadow=0;fillColor=#999999;verticalAlign=top;labelPosition=center;verticalLabelPosition=bottom;shape=mxgraph.gcp2.phone_android" parent="1" vertex="1">
          <mxGeometry x="-311.6" y="-100" width="61.6" height="110" as="geometry" />
        </mxCell>
        <mxCell id="sJfHZRyvvE6cVOoVh98q-91" value="Aplicacion de Usuario " style="text;strokeColor=none;align=center;fillColor=none;html=1;verticalAlign=middle;whiteSpace=wrap;rounded=0;fontStyle=0;fontSize=20;fontFamily=Times New Roman;" parent="1" vertex="1">
          <mxGeometry x="-360.8" y="20" width="160" height="40" as="geometry" />
        </mxCell>
        <mxCell id="sJfHZRyvvE6cVOoVh98q-92" value="" style="edgeStyle=orthogonalEdgeStyle;html=1;endArrow=block;elbow=vertical;startArrow=none;startFill=0;endFill=1;strokeColor=#545B64;rounded=0;curved=0;dashed=1;dashPattern=8 8;strokeWidth=2;" parent="1" source="sJfHZRyvvE6cVOoVh98q-93" edge="1">
          <mxGeometry width="100" relative="1" as="geometry">
            <mxPoint x="-295.8" y="-40.22" as="sourcePoint" />
            <mxPoint x="377" y="-40" as="targetPoint" />
          </mxGeometry>
        </mxCell>
        <mxCell id="sJfHZRyvvE6cVOoVh98q-94" value="" style="edgeStyle=orthogonalEdgeStyle;html=1;endArrow=none;elbow=vertical;startArrow=block;startFill=1;endFill=0;strokeColor=#545B64;rounded=0;curved=0;dashed=1;dashPattern=8 8;strokeWidth=2;" parent="1" target="sJfHZRyvvE6cVOoVh98q-93" edge="1">
          <mxGeometry width="100" relative="1" as="geometry">
            <mxPoint x="-250" y="-40" as="sourcePoint" />
            <mxPoint x="377" y="-40" as="targetPoint" />
          </mxGeometry>
        </mxCell>
        <mxCell id="sJfHZRyvvE6cVOoVh98q-95" value="" style="edgeStyle=orthogonalEdgeStyle;html=1;endArrow=block;elbow=vertical;startArrow=block;startFill=1;endFill=1;strokeColor=#545B64;rounded=0;curved=0;dashed=1;dashPattern=8 8;strokeWidth=2;" parent="1" edge="1">
          <mxGeometry width="100" relative="1" as="geometry">
            <mxPoint x="-250" y="-550" as="sourcePoint" />
            <mxPoint x="-80" y="-550" as="targetPoint" />
          </mxGeometry>
        </mxCell>
        <mxCell id="sJfHZRyvvE6cVOoVh98q-96" value="IPv4" style="text;strokeColor=none;align=center;fillColor=default;html=1;verticalAlign=middle;whiteSpace=wrap;rounded=1;fontStyle=0;fontSize=20;fontFamily=Times New Roman;" parent="1" vertex="1">
          <mxGeometry x="-230.8" y="-590" width="60" height="30" as="geometry" />
        </mxCell>
      </root>
    </mxGraphModel>
  </diagram>
</mxfile>
